<svg width="24" height="24" viewBox="0 0 24 24" fill="none" xmlns="http://www.w3.org/2000/svg">
<path d="M21.7969 16.5469L18.0469 20.2969H18.0375L17.9625 20.3625L17.925 20.3906L17.8781 20.4281L17.8219 20.4562L17.7844 20.4844L17.7281 20.5031L17.6813 20.5312L17.6344 20.55L17.5781 20.5687H17.5219L17.4656 20.5875H17.0344L16.9781 20.5687H16.9219L16.8656 20.55L16.8187 20.5312L16.7719 20.5031L16.7156 20.4844L16.6781 20.4562L16.6219 20.4281L16.575 20.3906L16.5375 20.3625L16.4625 20.2875H16.4531L12.7031 16.5375C12.4918 16.3262 12.373 16.0395 12.373 15.7406C12.373 15.4417 12.4918 15.1551 12.7031 14.9437C12.9145 14.7324 13.2011 14.6137 13.5 14.6137C13.7989 14.6137 14.0855 14.7324 14.2969 14.9437L16.125 16.7812V10.5C16.125 10.2016 16.2435 9.91548 16.4545 9.7045C16.6655 9.49353 16.9516 9.375 17.25 9.375C17.5484 9.375 17.8345 9.49353 18.0455 9.7045C18.2565 9.91548 18.375 10.2016 18.375 10.5V16.7812L20.2031 14.9531C20.4145 14.7418 20.7011 14.623 21 14.623C21.2989 14.623 21.5855 14.7418 21.7969 14.9531C22.0082 15.1645 22.127 15.4511 22.127 15.75C22.127 16.0489 22.0082 16.3355 21.7969 16.5469ZM11.25 10.875H4.5C4.20163 10.875 3.91548 10.9935 3.7045 11.2045C3.49353 11.4155 3.375 11.7016 3.375 12C3.375 12.2984 3.49353 12.5845 3.7045 12.7955C3.91548 13.0065 4.20163 13.125 4.5 13.125H11.25C11.5484 13.125 11.8345 13.0065 12.0455 12.7955C12.2565 12.5845 12.375 12.2984 12.375 12C12.375 11.7016 12.2565 11.4155 12.0455 11.2045C11.8345 10.9935 11.5484 10.875 11.25 10.875ZM4.5 7.125H17.25C17.5484 7.125 17.8345 7.00647 18.0455 6.7955C18.2565 6.58452 18.375 6.29837 18.375 6C18.375 5.70163 18.2565 5.41548 18.0455 5.2045C17.8345 4.99353 17.5484 4.875 17.25 4.875H4.5C4.20163 4.875 3.91548 4.99353 3.7045 5.2045C3.49353 5.41548 3.375 5.70163 3.375 6C3.375 6.29837 3.49353 6.58452 3.7045 6.7955C3.91548 7.00647 4.20163 7.125 4.5 7.125ZM9.75 16.875H4.5C4.20163 16.875 3.91548 16.9935 3.7045 17.2045C3.49353 17.4155 3.375 17.7016 3.375 18C3.375 18.2984 3.49353 18.5845 3.7045 18.7955C3.91548 19.0065 4.20163 19.125 4.5 19.125H9.75C10.0484 19.125 10.3345 19.0065 10.5455 18.7955C10.7565 18.5845 10.875 18.2984 10.875 18C10.875 17.7016 10.7565 17.4155 10.5455 17.2045C10.3345 16.9935 10.0484 16.875 9.75 16.875Z" fill="white"/>
</svg>
