<svg width="35" height="35" viewBox="0 0 35 35" fill="none" xmlns="http://www.w3.org/2000/svg">
<path d="M0 10C0 4.47715 4.47715 0 10 0H25C30.5228 0 35 4.47715 35 10V35H10C4.47715 35 0 30.5228 0 25V10Z" fill="#C9E6FF"/>
<path fill-rule="evenodd" clip-rule="evenodd" d="M17.5 12.25C17.858 12.25 18.2014 12.3817 18.4546 12.6161C18.7078 12.8505 18.85 13.1685 18.85 13.5V17.25H22.9C23.258 17.25 23.6014 17.3817 23.8546 17.6161C24.1078 17.8505 24.25 18.1685 24.25 18.5C24.25 18.8315 24.1078 19.1495 23.8546 19.3839C23.6014 19.6183 23.258 19.75 22.9 19.75H18.85V23.5C18.85 23.8315 18.7078 24.1495 18.4546 24.3839C18.2014 24.6183 17.858 24.75 17.5 24.75C17.142 24.75 16.7986 24.6183 16.5454 24.3839C16.2922 24.1495 16.15 23.8315 16.15 23.5V19.75H12.1C11.742 19.75 11.3986 19.6183 11.1454 19.3839C10.8922 19.1495 10.75 18.8315 10.75 18.5C10.75 18.1685 10.8922 17.8505 11.1454 17.6161C11.3986 17.3817 11.742 17.25 12.1 17.25H16.15V13.5C16.15 13.1685 16.2922 12.8505 16.5454 12.6161C16.7986 12.3817 17.142 12.25 17.5 12.25Z" fill="#3F80FE"/>
</svg>
