<svg width="20" height="20" viewBox="0 0 20 20" fill="none" xmlns="http://www.w3.org/2000/svg">
<path d="M0.627945 19.983C0.590083 19.9621 0.554094 19.9394 0.514338 19.9205C0.338881 19.8466 0.193708 19.7154 0.102569 19.5482C0.0114307 19.3811 -0.0202568 19.1879 0.0126727 19.0004C0.0482816 18.8102 0.148259 18.6381 0.295813 18.513C0.443367 18.3878 0.629465 18.3173 0.822899 18.3132C1.09551 18.3037 1.36816 18.3132 1.66539 18.3132V18.0482C1.66539 15.9543 1.66539 13.8586 1.66539 11.7648C1.64761 11.1483 1.76849 10.5356 2.01915 9.97199C2.26981 9.40841 2.64385 8.90831 3.11363 8.5086C3.84245 7.85649 4.78606 7.49589 5.76403 7.49576C6.81662 7.49576 7.87109 7.49576 8.92558 7.49576H9.15654V6.95432C9.15654 6.36934 9.15654 5.78247 9.15654 5.19748C9.16159 5.14727 9.15033 5.09676 9.12441 5.05345C9.0985 5.01014 9.0593 4.97634 9.01266 4.95705C8.6944 4.79745 8.42513 4.55493 8.23321 4.25505C8.04129 3.95518 7.93383 3.60906 7.9222 3.25322C7.92656 3.03359 7.96687 2.81616 8.04149 2.60955C8.2951 1.75917 8.73706 0.976859 9.33453 0.320737C9.41185 0.220903 9.51095 0.140093 9.62432 0.0844977C9.7377 0.0289027 9.86231 0 9.98858 0C10.1149 0 10.2395 0.0289027 10.3528 0.0844977C10.4662 0.140093 10.5654 0.220903 10.6427 0.320737C11.3397 1.07379 11.8215 2.00028 12.0379 3.00333C12.1628 3.59588 11.9111 4.1165 11.5098 4.54813C11.3308 4.70748 11.141 4.85424 10.9418 4.98734C10.8926 5.02521 10.8301 5.08957 10.8301 5.14258C10.8301 5.91499 10.8301 6.68928 10.8301 7.46358C10.8301 7.46358 10.8301 7.47494 10.8566 7.50523H11.0459C12.0871 7.50523 13.1284 7.50523 14.1677 7.50523C15.189 7.50904 16.1733 7.88796 16.9335 8.56998C17.6937 9.25199 18.1768 10.1895 18.291 11.2044C18.3105 11.4178 18.3188 11.632 18.3156 11.8462C18.3156 13.9148 18.3156 15.984 18.3156 18.0538V18.3246C18.5371 18.3246 18.7378 18.334 18.9366 18.3246C19.4477 18.2943 19.8036 18.4912 19.9778 18.9853V19.3753C19.9235 19.5175 19.8398 19.6467 19.7321 19.7544C19.6245 19.862 19.4953 19.9457 19.353 20L0.627945 19.983ZM3.34648 18.2943H16.6326C16.6403 18.278 16.6461 18.2608 16.6496 18.2432C16.6496 17.1962 16.6496 16.1493 16.6496 15.1024C16.6496 14.9794 16.5815 14.9737 16.4925 14.9567C16.2167 14.9223 15.9448 14.8621 15.6803 14.7768C15.2884 14.6178 14.9231 14.3982 14.5217 14.1975H14.5066C13.1416 15.2293 11.4965 15.2482 10.0993 14.241C9.99898 14.1691 9.94787 14.1975 9.86457 14.2562C9.41336 14.6064 8.88265 14.8398 8.31955 14.9356C7.75645 15.0313 7.17842 14.9866 6.63679 14.8052C6.20758 14.6385 5.79121 14.4405 5.39109 14.2127C5.08039 14.4027 4.75788 14.5728 4.42556 14.7219C4.07018 14.8394 3.70791 14.9348 3.34079 15.0078L3.34648 18.2943ZM3.36543 13.3342C3.6145 13.2551 3.85851 13.1609 4.09616 13.0522C4.23374 12.9926 4.35286 12.8973 4.44109 12.7761C4.52933 12.6549 4.58347 12.5123 4.59787 12.363C4.62077 12.1599 4.72067 11.9732 4.87703 11.8415C5.0334 11.7098 5.23432 11.6431 5.43842 11.655C5.63889 11.6581 5.83127 11.7345 5.97918 11.8699C6.1271 12.0053 6.22029 12.1901 6.24111 12.3895C6.25566 12.572 6.34051 12.7417 6.47775 12.8628C7.08924 13.4516 8.28568 13.4668 8.91421 12.8931C9.05802 12.769 9.14994 12.5953 9.1717 12.4066C9.18573 12.1992 9.27874 12.0051 9.43159 11.8642C9.58443 11.7233 9.7855 11.6464 9.99334 11.6493C10.2014 11.6509 10.4016 11.729 10.5559 11.8686C10.7102 12.0082 10.8078 12.1997 10.8301 12.4066C10.8619 12.5757 10.9406 12.7325 11.0573 12.8591C11.6687 13.4724 12.8974 13.4743 13.5184 12.8591C13.6294 12.752 13.7059 12.6142 13.738 12.4634C13.8137 11.9712 14.1166 11.6531 14.5729 11.6493C14.7897 11.6494 14.9983 11.7324 15.156 11.8813C15.3136 12.0302 15.4084 12.2337 15.421 12.4501C15.4343 12.5517 15.4734 12.6481 15.5346 12.7303C15.6722 12.892 15.8407 13.0245 16.0302 13.1201C16.2197 13.2157 16.4265 13.2724 16.6383 13.2869C16.6469 13.252 16.6533 13.2166 16.6572 13.1809C16.6572 12.6527 16.6742 12.1245 16.6572 11.6001C16.6547 11.2704 16.5859 10.9445 16.455 10.6419C16.3241 10.3393 16.1337 10.066 15.8951 9.8384C15.6565 9.61078 15.3746 9.43342 15.0662 9.31686C14.7578 9.20029 14.429 9.1469 14.0996 9.15984C11.3166 9.15984 8.5318 9.15984 5.74887 9.15984C5.14055 9.17475 4.55958 9.4157 4.11927 9.83571C3.67896 10.2557 3.41091 10.8247 3.36732 11.4316C3.33514 12.0166 3.35216 12.6035 3.34837 13.1885C3.35107 13.2367 3.35678 13.2848 3.36543 13.3323V13.3342Z" fill="white"/>
</svg>
