<svg width="10" height="11" viewBox="0 0 10 11" fill="none" xmlns="http://www.w3.org/2000/svg">
<path d="M2.02944 9.69284C1.80623 9.69284 1.61508 9.61085 1.456 9.44686C1.29691 9.28287 1.2175 9.08598 1.21777 8.85617V2.99951C1.21777 2.76942 1.29732 2.57239 1.4564 2.4084C1.61549 2.24441 1.8065 2.16256 2.02944 2.16284H2.43527V1.32617H3.24694V2.16284H6.49361V1.32617H7.30527V2.16284H7.71111C7.93432 2.16284 8.12546 2.24483 8.28455 2.40882C8.44364 2.57281 8.52304 2.7697 8.52277 2.99951V5.50951H7.71111V4.67284H2.02944V8.85617H4.87027V9.69284H2.02944ZM8.97934 7.60117L8.11694 6.71221L8.41117 6.40892C8.48557 6.33223 8.58027 6.29388 8.69525 6.29388C8.81024 6.29388 8.90493 6.33223 8.97934 6.40892L9.27357 6.71221C9.34797 6.78891 9.38517 6.88652 9.38517 7.00505C9.38517 7.12357 9.34797 7.22119 9.27357 7.29788L8.97934 7.60117ZM5.68194 10.1112V9.22221L7.83286 7.00505L8.69525 7.89401L6.54434 10.1112H5.68194Z" fill="#464646"/>
</svg>
