<svg width="16" height="16" viewBox="0 0 16 16" fill="none" xmlns="http://www.w3.org/2000/svg">
<g opacity="0.5" filter="url(#filter0_i_205_8147)">
<rect width="16" height="16" rx="3" fill="#020B1C"/>
</g>
<path d="M6.33766 3C6.66092 3 6.92208 3.25137 6.92208 3.5625V4.125H9.25974V3.5625C9.25974 3.25137 9.5209 3 9.84416 3C10.1674 3 10.4286 3.25137 10.4286 3.5625V4.125H11.3052C11.7892 4.125 12.1818 4.50293 12.1818 4.96875V5.8125H4V4.96875C4 4.50293 4.39265 4.125 4.87662 4.125H5.75325V3.5625C5.75325 3.25137 6.01441 3 6.33766 3ZM4 6.375H12.1818V11.1562C12.1818 11.6221 11.7892 12 11.3052 12H4.87662C4.39265 12 4 11.6221 4 11.1562V6.375ZM5.16883 7.78125V8.34375C5.16883 8.49844 5.30032 8.625 5.46104 8.625H6.04545C6.20617 8.625 6.33766 8.49844 6.33766 8.34375V7.78125C6.33766 7.62656 6.20617 7.5 6.04545 7.5H5.46104C5.30032 7.5 5.16883 7.62656 5.16883 7.78125ZM7.50649 7.78125V8.34375C7.50649 8.49844 7.63799 8.625 7.7987 8.625H8.38312C8.54383 8.625 8.67532 8.49844 8.67532 8.34375V7.78125C8.67532 7.62656 8.54383 7.5 8.38312 7.5H7.7987C7.63799 7.5 7.50649 7.62656 7.50649 7.78125ZM10.1364 7.5C9.97565 7.5 9.84416 7.62656 9.84416 7.78125V8.34375C9.84416 8.49844 9.97565 8.625 10.1364 8.625H10.7208C10.8815 8.625 11.013 8.49844 11.013 8.34375V7.78125C11.013 7.62656 10.8815 7.5 10.7208 7.5H10.1364ZM5.16883 10.0312V10.5938C5.16883 10.7484 5.30032 10.875 5.46104 10.875H6.04545C6.20617 10.875 6.33766 10.7484 6.33766 10.5938V10.0312C6.33766 9.87656 6.20617 9.75 6.04545 9.75H5.46104C5.30032 9.75 5.16883 9.87656 5.16883 10.0312ZM7.7987 9.75C7.63799 9.75 7.50649 9.87656 7.50649 10.0312V10.5938C7.50649 10.7484 7.63799 10.875 7.7987 10.875H8.38312C8.54383 10.875 8.67532 10.7484 8.67532 10.5938V10.0312C8.67532 9.87656 8.54383 9.75 8.38312 9.75H7.7987ZM9.84416 10.0312V10.5938C9.84416 10.7484 9.97565 10.875 10.1364 10.875H10.7208C10.8815 10.875 11.013 10.7484 11.013 10.5938V10.0312C11.013 9.87656 10.8815 9.75 10.7208 9.75H10.1364C9.97565 9.75 9.84416 9.87656 9.84416 10.0312Z" fill="white" fill-opacity="0.6"/>
<defs>
<filter id="filter0_i_205_8147" x="0" y="0" width="16" height="16" filterUnits="userSpaceOnUse" color-interpolation-filters="sRGB">
<feFlood flood-opacity="0" result="BackgroundImageFix"/>
<feBlend mode="normal" in="SourceGraphic" in2="BackgroundImageFix" result="shape"/>
<feColorMatrix in="SourceAlpha" type="matrix" values="0 0 0 0 0 0 0 0 0 0 0 0 0 0 0 0 0 0 127 0" result="hardAlpha"/>
<feOffset/>
<feGaussianBlur stdDeviation="7.5"/>
<feComposite in2="hardAlpha" operator="arithmetic" k2="-1" k3="1"/>
<feColorMatrix type="matrix" values="0 0 0 0 1 0 0 0 0 1 0 0 0 0 1 0 0 0 0.5 0"/>
<feBlend mode="normal" in2="shape" result="effect1_innerShadow_205_8147"/>
</filter>
</defs>
</svg>
