<svg width="18" height="18" viewBox="0 0 18 18" fill="none" xmlns="http://www.w3.org/2000/svg">
<g clip-path="url(#clip0_2080_23559)">
<path d="M7.371 3.75L5.871 5.25H3V14.25H15V5.25H12.129L10.629 3.75H7.371ZM6.75 2.25H11.25L12.75 3.75H15.75C15.9489 3.75 16.1397 3.82902 16.2803 3.96967C16.421 4.11032 16.5 4.30109 16.5 4.5V15C16.5 15.1989 16.421 15.3897 16.2803 15.5303C16.1397 15.671 15.9489 15.75 15.75 15.75H2.25C2.05109 15.75 1.86032 15.671 1.71967 15.5303C1.57902 15.3897 1.5 15.1989 1.5 15V4.5C1.5 4.30109 1.57902 4.11032 1.71967 3.96967C1.86032 3.82902 2.05109 3.75 2.25 3.75H5.25L6.75 2.25ZM7.23 5.6475C8.11358 5.22694 9.11789 5.13418 10.0635 5.38581C11.0092 5.63744 11.8346 6.21705 12.3923 7.02113C12.95 7.8252 13.2037 8.80136 13.1081 9.77524C13.0125 10.7491 12.5737 11.6573 11.8702 12.3375L10.3125 9.45H11.6242L11.625 9.375C11.6251 8.93716 11.5156 8.50625 11.3066 8.12152C11.0976 7.73678 10.7957 7.41044 10.4283 7.17219C10.061 6.93395 9.63987 6.79138 9.20335 6.75747C8.76682 6.72355 8.32874 6.79936 7.929 6.978L7.23 5.6475ZM10.7378 13.1175C9.85631 13.5277 8.8583 13.6134 7.91983 13.3594C6.98137 13.1055 6.16276 12.5282 5.60845 11.7295C5.05414 10.9308 4.79977 9.96193 4.8902 8.99393C4.98064 8.02592 5.41008 7.12097 6.10275 6.43875L7.6875 9.375H6.375C6.37486 9.80997 6.48281 10.2382 6.68914 10.6211C6.89548 11.004 7.19373 11.3296 7.55709 11.5687C7.92045 11.8078 8.33753 11.9528 8.77084 11.9908C9.20414 12.0288 9.64009 11.9585 10.0395 11.7863L10.7378 13.1168V13.1175Z" fill="#6B7280"/>
</g>
<defs>
<clipPath id="clip0_2080_23559">
<rect width="18" height="18" fill="white"/>
</clipPath>
</defs>
</svg>
