<svg width="18" height="16" viewBox="0 0 18 16" fill="none" xmlns="http://www.w3.org/2000/svg">
<path d="M6.39152 0.173889H11.6089L13.348 1.91302H16.8263C17.0569 1.91302 17.2781 2.00463 17.4412 2.16771C17.6043 2.33078 17.6959 2.55196 17.6959 2.78258V14.9565C17.6959 15.1871 17.6043 15.4083 17.4412 15.5714C17.2781 15.7344 17.0569 15.8261 16.8263 15.8261H1.17413C0.943508 15.8261 0.72233 15.7344 0.559255 15.5714C0.39618 15.4083 0.304565 15.1871 0.304565 14.9565V2.78258C0.304565 2.55196 0.39618 2.33078 0.559255 2.16771C0.72233 2.00463 0.943508 1.91302 1.17413 1.91302H4.65239L6.39152 0.173889ZM9.00022 14.0869C10.384 14.0869 11.711 13.5372 12.6895 12.5588C13.6679 11.5803 14.2176 10.2533 14.2176 8.86954C14.2176 7.4858 13.6679 6.15874 12.6895 5.18029C11.711 4.20184 10.384 3.65215 9.00022 3.65215C7.61648 3.65215 6.28942 4.20184 5.31097 5.18029C4.33251 6.15874 3.78283 7.4858 3.78283 8.86954C3.78283 10.2533 4.33251 11.5803 5.31097 12.5588C6.28942 13.5372 7.61648 14.0869 9.00022 14.0869V14.0869ZM9.00022 12.3478C8.07773 12.3478 7.19302 11.9813 6.54072 11.329C5.88842 10.6767 5.52196 9.79203 5.52196 8.86954C5.52196 7.94705 5.88842 7.06234 6.54072 6.41004C7.19302 5.75774 8.07773 5.39128 9.00022 5.39128C9.92271 5.39128 10.8074 5.75774 11.4597 6.41004C12.112 7.06234 12.4785 7.94705 12.4785 8.86954C12.4785 9.79203 12.112 10.6767 11.4597 11.329C10.8074 11.9813 9.92271 12.3478 9.00022 12.3478Z" fill="white"/>
</svg>
