<svg width="18" height="18" viewBox="0 0 18 18" fill="none" xmlns="http://www.w3.org/2000/svg">
<path d="M9.00008 17.3346C4.39758 17.3346 0.666748 13.6038 0.666748 9.0013C0.666748 4.3988 4.39758 0.667969 9.00008 0.667969C13.6026 0.667969 17.3334 4.3988 17.3334 9.0013C17.3334 13.6038 13.6026 17.3346 9.00008 17.3346ZM9.00008 15.668C10.7682 15.668 12.4639 14.9656 13.7141 13.7153C14.9644 12.4651 15.6667 10.7694 15.6667 9.0013C15.6667 7.23319 14.9644 5.5375 13.7141 4.28726C12.4639 3.03701 10.7682 2.33464 9.00008 2.33464C7.23197 2.33464 5.53628 3.03701 4.28604 4.28726C3.03579 5.5375 2.33341 7.23319 2.33341 9.0013C2.33341 10.7694 3.03579 12.4651 4.28604 13.7153C5.53628 14.9656 7.23197 15.668 9.00008 15.668ZM9.00008 7.82297L11.3567 5.46547L12.5359 6.64464L10.1784 9.0013L12.5359 11.358L11.3567 12.5371L9.00008 10.1796L6.64341 12.5371L5.46425 11.358L7.82175 9.0013L5.46425 6.64464L6.64341 5.46547L9.00008 7.82297Z" fill="#6B7280"/>
</svg>
