<svg width="24" height="25" viewBox="0 0 24 25" fill="none" xmlns="http://www.w3.org/2000/svg">
<path d="M10.6284 0C11.0343 0.0767797 11.4621 0.120644 11.8679 0.23033C13.1821 0.535044 14.3956 1.17365 15.3909 2.08442C16.3862 2.99518 17.1298 4.14732 17.5496 5.42943C17.621 5.6681 17.7505 5.88526 17.9267 6.06141C18.1028 6.23756 18.32 6.36714 18.5587 6.43852C19.7443 6.82678 20.8205 7.49194 21.6979 8.3789C22.5753 9.26586 23.2287 10.3491 23.6042 11.5389C23.6676 11.6693 23.7024 11.8118 23.7058 11.9568C23.7092 12.1018 23.6814 12.2458 23.6241 12.379C23.5669 12.5123 23.4815 12.6316 23.374 12.7289C23.2665 12.8262 23.1393 12.8992 23.001 12.9428C22.8641 12.9856 22.7196 12.999 22.5772 12.9821C22.4348 12.9653 22.2975 12.9186 22.1743 12.8451C22.0511 12.7717 21.9448 12.673 21.8623 12.5557C21.7799 12.4383 21.7231 12.3049 21.6956 12.1641C21.426 11.3152 20.9685 10.5381 20.357 9.89052C19.7455 9.24295 18.9959 8.7416 18.1638 8.42382L17.8129 8.30318C17.3081 8.1545 16.8491 7.88034 16.4789 7.50632C16.1087 7.1323 15.8394 6.67061 15.6959 6.16431C15.4491 5.34467 15.0269 4.58853 14.4587 3.94834C13.8905 3.30816 13.1899 2.79926 12.4053 2.45694C11.5698 2.09065 10.6616 1.91973 9.7501 1.95718C8.83855 1.99464 7.94763 2.23948 7.14494 2.67308C6.34225 3.10668 5.64899 3.71762 5.11793 4.45945C4.58687 5.20127 4.23199 6.05443 4.08026 6.95404C3.8668 8.21072 4.06292 9.50275 4.63967 10.6395C4.78697 10.8838 4.88045 11.1566 4.91401 11.4399C4.94757 11.7231 4.92036 12.0103 4.83421 12.2822C4.74807 12.5541 4.605 12.8046 4.41446 13.0168C4.22392 13.2291 3.99027 13.3983 3.72919 13.5132C3.23179 13.7948 2.81396 14.1979 2.51478 14.6849C2.21561 15.1719 2.04487 15.7268 2.01857 16.2978C1.99227 16.8687 2.11128 17.437 2.36442 17.9495C2.61756 18.4619 2.99654 18.9018 3.46596 19.2278C3.63497 19.3254 3.77498 19.4663 3.87139 19.6359C3.96779 19.8056 4.0171 19.9979 4.01438 20.1931C4.00319 20.3713 3.94497 20.5433 3.84555 20.6916C3.74612 20.84 3.60901 20.9593 3.44842 21.0373C3.28782 21.1154 3.10938 21.1494 2.93132 21.136C2.75326 21.1226 2.58205 21.0621 2.43498 20.9608C1.39258 20.2863 0.617083 19.2704 0.241275 18.0871C0.142559 17.769 0.0767797 17.4399 0 17.1219V15.8057C0 15.7508 0 15.7069 0 15.6521C0.112719 14.8888 0.389756 14.159 0.812062 13.5133C1.23437 12.8675 1.79185 12.3211 2.44596 11.9118L2.88459 11.6486L2.82983 11.5279C2.02197 10.037 1.75451 8.31251 2.07293 6.64692C2.31386 5.13946 2.98898 3.73488 4.01559 2.60503C5.0422 1.47517 6.37581 0.669032 7.85337 0.285192C8.34128 0.162756 8.83561 0.0675373 9.33409 0H10.6284Z" fill="white"/>
<path d="M14.2154 24.0211H9.53181C9.03744 24.0251 8.54783 23.9249 8.09474 23.7271C7.64164 23.5293 7.23519 23.2383 6.90202 22.8731C6.56884 22.5078 6.31634 22.0765 6.16092 21.6072C6.00549 21.1379 5.95068 20.6411 5.99998 20.1492C6.04462 19.5579 6.24461 18.9888 6.57973 18.4996C6.91486 18.0104 7.37323 17.6184 7.90849 17.3632C8.04011 17.2973 8.09497 17.2425 8.06207 17.078C7.79581 15.6127 8.08084 14.1008 8.86248 12.8331C9.64412 11.5655 10.8671 10.6318 12.2959 10.2117C13.672 9.80546 15.1481 9.90769 16.455 10.4997C17.7619 11.0918 18.8124 12.1341 19.4145 13.4364C19.4911 13.6109 19.6073 13.7652 19.7539 13.8871C19.9005 14.0089 20.0735 14.0949 20.2591 14.1384C21.0323 14.3328 21.7463 14.7132 22.339 15.2466C22.9316 15.78 23.3848 16.4501 23.6593 17.1986C23.9268 17.8848 24.0391 18.6217 23.9881 19.3564C23.9372 20.0911 23.7242 20.8055 23.3646 21.4482C23.005 22.0909 22.5076 22.646 21.9081 23.0738C21.3086 23.5016 20.6218 23.7914 19.897 23.9223C19.5344 23.9811 19.1675 24.0104 18.8002 24.0101L14.2154 24.0211ZM14.2154 21.9919H17.8021C18.3478 22.0087 18.8939 21.9867 19.4364 21.9261C20.1927 21.8015 20.8716 21.3897 21.3314 20.7766C21.7913 20.1635 21.9965 19.3964 21.9043 18.6355C21.8317 18.0196 21.5702 17.4412 21.1559 16.9797C20.7415 16.5182 20.1946 16.1962 19.59 16.0579C19.1197 15.9608 18.6818 15.7457 18.3176 15.4327C17.9693 15.0995 17.6963 14.6956 17.5169 14.2481C17.1554 13.4855 16.5615 12.8571 15.8205 12.4532C15.0795 12.0492 14.2296 11.8904 13.3928 11.9996C12.8408 12.0714 12.3098 12.2576 11.8338 12.5462C11.3578 12.8348 10.9472 13.2195 10.6283 13.6757C10.3093 14.1319 10.089 14.6496 9.98143 15.1958C9.87384 15.7419 9.88143 16.3045 10.0035 16.8476C10.0524 17.1849 10.03 17.5287 9.93764 17.8568C9.85189 18.1459 9.70025 18.4113 9.49472 18.6321C9.28919 18.8528 9.03541 19.0229 8.75309 19.1291C8.47121 19.263 8.23882 19.4825 8.08911 19.7563C7.93941 20.0301 7.88005 20.3442 7.91947 20.6537C7.95161 20.9496 8.07414 21.2284 8.2704 21.4522C8.46667 21.6759 8.72714 21.8337 9.01632 21.9041C9.21446 21.9477 9.41664 21.9698 9.61951 21.9699L14.2154 21.9919Z" fill="white"/>
</svg>
