<svg width="19" height="14" viewBox="0 0 19 14" fill="none" xmlns="http://www.w3.org/2000/svg">
<path d="M17.5558 5.99994H3.4158L4.7158 4.70994C4.9041 4.52164 5.00989 4.26624 5.00989 3.99994C5.00989 3.73364 4.9041 3.47825 4.7158 3.28994C4.52749 3.10164 4.2721 2.99585 4.0058 2.99585C3.7395 2.99585 3.4841 3.10164 3.2958 3.28994L0.295798 6.28994C0.20207 6.3829 0.127676 6.49351 0.0769069 6.61536C0.0261382 6.73722 0 6.86793 0 6.99994C0 7.13195 0.0261382 7.26266 0.0769069 7.38452C0.127676 7.50638 0.20207 7.61698 0.295798 7.70994L3.2958 10.7099C3.38876 10.8037 3.49936 10.8781 3.62122 10.9288C3.74308 10.9796 3.87379 11.0057 4.0058 11.0057C4.13781 11.0057 4.26852 10.9796 4.39038 10.9288C4.51223 10.8781 4.62284 10.8037 4.7158 10.7099C4.80953 10.617 4.88392 10.5064 4.93469 10.3845C4.98546 10.2627 5.0116 10.132 5.0116 9.99994C5.0116 9.86793 4.98546 9.73722 4.93469 9.61536C4.88392 9.49351 4.80953 9.3829 4.7158 9.28994L3.4158 7.99994H17.5558C17.8038 7.98782 18.0385 7.88384 18.2141 7.70824C18.3897 7.53264 18.4937 7.29798 18.5058 7.04994V6.99994C18.5061 6.74316 18.4077 6.4961 18.2308 6.30994C18.0539 6.12378 17.8123 6.01278 17.5558 5.99994Z" fill="#334D6E"/>
<path d="M17.5558 12H1.4558C0.931128 12 0.505798 12.4253 0.505798 12.95V13.05C0.505798 13.5747 0.931128 14 1.4558 14H17.5558C18.0805 14 18.5058 13.5747 18.5058 13.05V12.95C18.5058 12.4253 18.0805 12 17.5558 12Z" fill="#334D6E"/>
<path d="M17.5558 0H1.4558C0.931128 0 0.505798 0.425329 0.505798 0.95V1.05C0.505798 1.57467 0.931128 2 1.4558 2H17.5558C18.0805 2 18.5058 1.57467 18.5058 1.05V0.95C18.5058 0.425329 18.0805 0 17.5558 0Z" fill="#334D6E"/>
</svg>
