<svg xmlns="http://www.w3.org/2000/svg" xmlns:xlink="http://www.w3.org/1999/xlink" version="1.1" width="1000" height="1000" viewBox="0 0 1000 1000" xml:space="preserve">
<desc>Created with Fabric.js 3.5.0</desc>
<defs>
</defs>
<rect x="0" y="0" width="100%" height="100%" fill="#ffffff"/>
<g transform="matrix(-47.8469 0 0 -47.8469 499.9999 499.9999)" id="701450">
<g style="" vector-effect="non-scaling-stroke">
		<g transform="matrix(1 0 0 1 -0.2471 0.0007)">
<path style="stroke: none; stroke-width: 1; stroke-dasharray: none; stroke-linecap: butt; stroke-dashoffset: 0; stroke-linejoin: miter; stroke-miterlimit: 4; is-custom-font: none; font-file-url: none; fill: rgb(51,77,110); fill-rule: nonzero; opacity: 1;" transform=" translate(-9.2529, -7.0008)" d="M 17.5558 5.99994 H 3.4158 L 4.7158 4.70994 C 4.9041 4.52164 5.00989 4.26624 5.00989 3.99994 C 5.00989 3.73364 4.9041 3.47825 4.7158 3.28994 C 4.52749 3.10164 4.2721 2.99585 4.0058 2.99585 C 3.7395 2.99585 3.4841 3.10164 3.2958 3.28994 L 0.295798 6.28994 C 0.20207 6.3829 0.127676 6.49351 0.0769069 6.61536 C 0.0261382 6.73722 0 6.86793 0 6.99994 C 0 7.13195 0.0261382 7.26266 0.0769069 7.38452 C 0.127676 7.50638 0.20207 7.61698 0.295798 7.70994 L 3.2958 10.7099 C 3.38876 10.8037 3.49936 10.8781 3.62122 10.9288 C 3.74308 10.9796 3.87379 11.0057 4.0058 11.0057 C 4.13781 11.0057 4.26852 10.9796 4.39038 10.9288 C 4.51223 10.8781 4.62284 10.8037 4.7158 10.7099 C 4.80953 10.617 4.88392 10.5064 4.93469 10.3845 C 4.98546 10.2627 5.0116 10.132 5.0116 9.99994 C 5.0116 9.86793 4.98546 9.73722 4.93469 9.61536 C 4.88392 9.49351 4.80953 9.3829 4.7158 9.28994 L 3.4158 7.99994 H 17.5558 C 17.8038 7.98782 18.0385 7.88384 18.2141 7.70824 C 18.3897 7.53264 18.4937 7.29798 18.5058 7.04994 V 6.99994 C 18.5061 6.74316 18.4077 6.4961 18.2308 6.30994 C 18.0539 6.12378 17.8123 6.01278 17.5558 5.99994 Z" stroke-linecap="round"/>
</g>
		<g transform="matrix(1 0 0 1 0.0058 6)">
<path style="stroke: none; stroke-width: 1; stroke-dasharray: none; stroke-linecap: butt; stroke-dashoffset: 0; stroke-linejoin: miter; stroke-miterlimit: 4; is-custom-font: none; font-file-url: none; fill: rgb(51,77,110); fill-rule: nonzero; opacity: 1;" transform=" translate(-9.5058, -13)" d="M 17.5558 12 H 1.4558 C 0.931128 12 0.505798 12.4253 0.505798 12.95 V 13.05 C 0.505798 13.5747 0.931128 14 1.4558 14 H 17.5558 C 18.0805 14 18.5058 13.5747 18.5058 13.05 V 12.95 C 18.5058 12.4253 18.0805 12 17.5558 12 Z" stroke-linecap="round"/>
</g>
		<g transform="matrix(1 0 0 1 0.0058 -6)">
<path style="stroke: none; stroke-width: 1; stroke-dasharray: none; stroke-linecap: butt; stroke-dashoffset: 0; stroke-linejoin: miter; stroke-miterlimit: 4; is-custom-font: none; font-file-url: none; fill: rgb(51,77,110); fill-rule: nonzero; opacity: 1;" transform=" translate(-9.5058, -1)" d="M 17.5558 0 H 1.4558 C 0.931128 0 0.505798 0.425329 0.505798 0.95 V 1.05 C 0.505798 1.57467 0.931128 2 1.4558 2 H 17.5558 C 18.0805 2 18.5058 1.57467 18.5058 1.05 V 0.95 C 18.5058 0.425329 18.0805 0 17.5558 0 Z" stroke-linecap="round"/>
</g>
</g>
</g>
</svg>