<svg width="24" height="24" viewBox="0 0 24 24" fill="none" xmlns="http://www.w3.org/2000/svg">
<path d="M2 11.9993C2 11.1343 2.11 10.2963 2.316 9.49533C2.86847 9.52437 3.4182 9.40008 3.90444 9.1362C4.39068 8.87231 4.79448 8.47912 5.07121 8.00007C5.34793 7.52103 5.48681 6.97479 5.47247 6.42175C5.45814 5.86871 5.29117 5.3304 4.99 4.86633C6.19894 3.6769 7.69079 2.81482 9.325 2.36133C9.57599 2.8548 9.95864 3.2692 10.4306 3.55864C10.9025 3.84808 11.4454 4.00128 11.999 4.00128C12.5526 4.00128 13.0955 3.84808 13.5674 3.55864C14.0394 3.2692 14.422 2.8548 14.673 2.36133C16.3072 2.81482 17.7991 3.6769 19.008 4.86633C18.7065 5.33048 18.5393 5.869 18.5248 6.42229C18.5104 6.97559 18.6493 7.52209 18.9262 8.00134C19.2031 8.48059 19.6071 8.87389 20.0937 9.13774C20.5802 9.40159 21.1303 9.5257 21.683 9.49633C21.889 10.2963 21.999 11.1343 21.999 11.9993C21.999 12.8643 21.889 13.7023 21.683 14.5033C21.1305 14.4741 20.5806 14.5982 20.0942 14.862C19.6078 15.1258 19.2039 15.519 18.927 15.9981C18.6502 16.4772 18.5112 17.0235 18.5255 17.5766C18.5398 18.1298 18.7068 18.6682 19.008 19.1323C17.7991 20.3218 16.3072 21.1838 14.673 21.6373C14.422 21.1439 14.0394 20.7295 13.5674 20.44C13.0955 20.1506 12.5526 19.9974 11.999 19.9974C11.4454 19.9974 10.9025 20.1506 10.4306 20.44C9.95864 20.7295 9.57599 21.1439 9.325 21.6373C7.69079 21.1838 6.19894 20.3218 4.99 19.1323C5.29151 18.6682 5.45873 18.1297 5.47317 17.5764C5.48761 17.0231 5.3487 16.4766 5.07181 15.9973C4.79492 15.5181 4.39085 15.1248 3.90431 14.8609C3.41776 14.5971 2.8677 14.473 2.315 14.5023C2.11 13.7033 2 12.8653 2 11.9993ZM6.804 14.9993C7.434 16.0903 7.614 17.3453 7.368 18.5233C7.776 18.8133 8.21 19.0643 8.665 19.2733C9.58167 18.4522 10.7693 17.9985 12 17.9993C13.26 17.9993 14.438 18.4703 15.335 19.2733C15.79 19.0643 16.224 18.8133 16.632 18.5233C16.3794 17.3193 16.5803 16.0644 17.196 14.9993C17.8106 13.9337 18.797 13.1325 19.966 12.7493C20.0122 12.2504 20.0122 11.7483 19.966 11.2493C18.7966 10.8664 17.8099 10.0651 17.195 8.99933C16.5793 7.93426 16.3784 6.67936 16.631 5.47533C16.2231 5.18525 15.7889 4.93415 15.334 4.72533C14.4176 5.54626 13.2303 5.99994 12 5.99933C10.7693 6.00018 9.58167 5.54649 8.665 4.72533C8.21013 4.93415 7.77589 5.18526 7.368 5.47533C7.62056 6.67936 7.41972 7.93426 6.804 8.99933C6.18937 10.065 5.20298 10.8662 4.034 11.2493C3.98775 11.7483 3.98775 12.2504 4.034 12.7493C5.20335 13.1323 6.19013 13.9335 6.805 14.9993H6.804ZM12 14.9993C11.2044 14.9993 10.4413 14.6833 9.87868 14.1206C9.31607 13.558 9 12.795 9 11.9993C9 11.2037 9.31607 10.4406 9.87868 9.87801C10.4413 9.3154 11.2044 8.99933 12 8.99933C12.7956 8.99933 13.5587 9.3154 14.1213 9.87801C14.6839 10.4406 15 11.2037 15 11.9993C15 12.795 14.6839 13.558 14.1213 14.1206C13.5587 14.6833 12.7956 14.9993 12 14.9993ZM12 12.9993C12.2652 12.9993 12.5196 12.894 12.7071 12.7064C12.8946 12.5189 13 12.2645 13 11.9993C13 11.7341 12.8946 11.4798 12.7071 11.2922C12.5196 11.1047 12.2652 10.9993 12 10.9993C11.7348 10.9993 11.4804 11.1047 11.2929 11.2922C11.1054 11.4798 11 11.7341 11 11.9993C11 12.2645 11.1054 12.5189 11.2929 12.7064C11.4804 12.894 11.7348 12.9993 12 12.9993Z" fill="#6B7280"/>
</svg>
