<svg width="86" height="86" viewBox="0 0 86 86" fill="none" xmlns="http://www.w3.org/2000/svg">
<rect width="86" height="86" rx="24" fill="#4CAF50"/>
<path d="M67.8087 30.0568C66.2097 30.8852 64.63 31.5595 63.2043 32.4746C61.143 33.8039 59.1008 33.7364 57.0876 32.5805C55.5657 31.7039 54.1593 30.6347 52.7144 29.6233C47.3683 25.8473 41.6369 25.2597 35.7899 28.0725C29.8755 30.9237 26.6004 35.8749 26.3692 42.425C26.1381 48.9752 29.0375 54.1287 34.74 57.4037C40.587 60.7559 46.4821 60.3995 52.1557 56.7873C53.5428 55.9011 54.7758 54.7837 56.1629 53.8975C58.4747 52.4237 60.8058 51.9806 63.3007 53.7048C64.6396 54.6295 66.2193 55.1979 67.6931 55.9299C64.4084 63.6938 53.7451 72.421 40.0957 70.8412C26.1188 69.2229 15.783 58.1936 15.0413 44.5249C14.3189 31.2127 23.1423 19.2008 36.0982 15.8487C48.6109 12.6218 62.5589 18.8637 67.7894 30.0471L67.8087 30.0568Z" fill="white"/>
<path d="M57.2129 45.3533C53.0613 45.4881 50.21 47.0197 47.6092 49.1678C45.4804 50.9113 43.0915 51.7782 40.3269 51.1906C36.9555 50.4778 34.7304 48.4068 33.8731 45.1028C32.9773 41.6543 33.9887 38.6393 36.8207 36.4431C39.5178 34.3528 42.5521 34.035 45.6345 35.5665C46.8386 36.1734 47.8982 37.0789 49.0059 37.8687C53.331 40.9512 57.762 41.7699 62.4338 38.6104C64.4663 37.233 66.5758 37.1174 68.6468 38.5238C71.0068 40.1324 71.6907 43.3208 70.2458 45.7867C68.8298 48.2142 65.9015 49.1389 63.2911 47.9348C62.3182 47.4821 61.4223 46.8271 60.4302 46.4225C59.1876 45.912 57.8776 45.5748 57.2033 45.3629L57.2129 45.3533Z" fill="white"/>
</svg>
