<svg width="21" height="21" viewBox="0 0 21 21" fill="none" xmlns="http://www.w3.org/2000/svg">
<g clip-path="url(#clip0_2043_147767)">
<path d="M11.007 3.00061L18.9453 16.7506C19.0185 16.8773 19.057 17.021 19.057 17.1673C19.057 17.3136 19.0185 17.4573 18.9453 17.5839C18.8722 17.7106 18.767 17.8158 18.6403 17.889C18.5136 17.9621 18.3699 18.0006 18.2236 18.0006H2.34698C2.20071 18.0006 2.057 17.9621 1.93032 17.889C1.80365 17.8158 1.69845 17.7106 1.62531 17.5839C1.55217 17.4573 1.51367 17.3136 1.51367 17.1673C1.51367 17.021 1.55218 16.8773 1.62532 16.7506L9.56365 3.00061C9.63679 2.87394 9.74199 2.76875 9.86867 2.69562C9.99535 2.62249 10.139 2.58398 10.2853 2.58398C10.4316 2.58398 10.5753 2.62249 10.702 2.69562C10.8286 2.76875 10.9338 2.87394 11.007 3.00061ZM3.79032 16.3339H16.7803L10.2853 5.08395L3.79032 16.3339ZM9.45198 13.8339H11.1186V15.5006H9.45198V13.8339ZM9.45198 8.00061H11.1186V12.1673H9.45198V8.00061Z" fill="#E11D48"/>
</g>
<defs>
<clipPath id="clip0_2043_147767">
<rect width="20" height="20" fill="white" transform="translate(0.285156 0.5)"/>
</clipPath>
</defs>
</svg>
