<svg width="20" height="21" viewBox="0 0 20 21" fill="none" xmlns="http://www.w3.org/2000/svg">
<path d="M8.33331 9.66667V14.6667M11.6666 9.66667V14.6667M3.33331 6.33333H16.6666M15.8333 6.33333L15.1108 16.4517C15.0809 16.8722 14.8927 17.2657 14.5842 17.553C14.2758 17.8403 13.8699 18 13.4483 18H6.55165C6.1301 18 5.7242 17.8403 5.41572 17.553C5.10723 17.2657 4.91908 16.8722 4.88915 16.4517L4.16665 6.33333H15.8333ZM12.5 6.33333V3.83333C12.5 3.61232 12.4122 3.40036 12.2559 3.24408C12.0996 3.0878 11.8877 3 11.6666 3H8.33331C8.1123 3 7.90034 3.0878 7.74406 3.24408C7.58778 3.40036 7.49998 3.61232 7.49998 3.83333V6.33333H12.5Z" stroke="#CF1322" stroke-width="2" stroke-linecap="round" stroke-linejoin="round"/>
</svg>
