<svg width="25" height="24" viewBox="0 0 25 24" fill="none" xmlns="http://www.w3.org/2000/svg">
<rect x="0.25" width="24" height="24" rx="5" fill="#096DD9" fill-opacity="0.5"/>
<path d="M8.58329 17.2834C7.57218 17.2834 6.7084 16.9334 5.99196 16.2334C5.27507 15.5334 4.91663 14.6779 4.91663 13.6667C4.91663 12.8001 5.17774 12.0279 5.69996 11.3501C6.22218 10.6723 6.90551 10.239 7.74996 10.0501C8.00551 9.15008 8.48063 8.39453 9.17529 7.78341C9.86951 7.1723 10.6722 6.80008 11.5833 6.66675V12.0501L10.5166 11.0167L9.58329 11.9501L12.25 14.6167L14.9166 11.9501L13.9833 11.0167L12.9166 12.0501V6.66675C14.0611 6.8223 15.014 7.33608 15.7753 8.20808C16.5362 9.08053 16.9166 10.1056 16.9166 11.2834C17.6833 11.3723 18.3195 11.7027 18.8253 12.2747C19.3306 12.8472 19.5833 13.5167 19.5833 14.2834C19.5833 15.1167 19.2917 15.8252 18.7086 16.4087C18.1251 16.9919 17.4166 17.2834 16.5833 17.2834H8.58329Z" fill="white"/>
</svg>
