<svg width="24" height="24" viewBox="0 0 24 24" fill="none" xmlns="http://www.w3.org/2000/svg">
<path d="M2.33861 24C1.69549 24 1.14475 23.7708 0.686382 23.3124C0.228794 22.8549 0 22.3045 0 21.6614V5.29111C0 4.64799 0.228794 4.09725 0.686382 3.63888C1.14475 3.18129 1.69549 2.9525 2.33861 2.9525H12.7747L10.4361 5.29111H2.33861V21.6614H18.7089V13.5347L21.0475 11.1961V21.6614C21.0475 22.3045 20.8187 22.8549 20.3611 23.3124C19.9028 23.7708 19.352 24 18.7089 24H2.33861ZM15.4056 3.62485L17.0719 5.26188L9.35445 12.9793V14.6456H10.9915L18.7381 6.8989L20.4044 8.53593L12.6577 16.2826C12.4434 16.497 12.1951 16.6677 11.9129 16.7947C11.6299 16.921 11.3325 16.9842 11.0207 16.9842H8.18514C7.85384 16.9842 7.57632 16.8723 7.35259 16.6486C7.12809 16.4241 7.01583 16.1462 7.01583 15.8149V12.9793C7.01583 12.6675 7.0743 12.3701 7.19123 12.0871C7.30816 11.8049 7.47381 11.5566 7.68818 11.3423L15.4056 3.62485ZM20.4044 8.53593L15.4056 3.62485L18.3289 0.701584C18.7966 0.233861 19.3571 0 20.0103 0C20.6628 0 21.2132 0.233861 21.6614 0.701584L23.2984 2.36784C23.7466 2.81608 23.9708 3.36175 23.9708 4.00487C23.9708 4.64799 23.7466 5.19367 23.2984 5.6419L20.4044 8.53593Z" fill="black"/>
</svg>
