<svg width="20" height="19" viewBox="0 0 20 19" fill="none" xmlns="http://www.w3.org/2000/svg">
<path d="M0 14.6055V3.7049C0.0329689 3.55567 0.0642162 3.40471 0.100656 3.25548C0.311317 2.32384 0.834935 1.49256 1.58422 0.9002C2.33351 0.307841 3.2632 -0.00979798 4.2183 0.000230381C8.07393 0.000230381 11.9284 0.000230381 15.7817 0.000230381C16.0418 0.00223741 16.3012 0.0260332 16.5573 0.0713719C17.5114 0.235751 18.378 0.728769 19.0067 1.46498C19.6355 2.20118 19.9869 3.13418 20 4.10226C20 7.48129 20 10.8603 20 14.2393C19.9976 14.583 19.9503 14.9248 19.8594 15.2562C19.6235 16.152 19.0948 16.9432 18.3576 17.5041C17.6203 18.065 16.7167 18.3634 15.7904 18.3518C11.9868 18.3518 8.18439 18.3518 4.38313 18.3518C4.17491 18.3518 3.96667 18.3414 3.76018 18.3223C2.92984 18.2407 2.14314 17.9115 1.50208 17.3775C0.861018 16.8435 0.395147 16.1292 0.164836 15.3273C0.0954279 15.0879 0.0537914 14.8449 0 14.6055ZM1.68314 5.45572C1.68314 5.54248 1.68314 5.59801 1.68314 5.65353V14.1699C1.68027 14.2807 1.68608 14.3915 1.70051 14.5014C1.78058 15.1145 2.08513 15.6762 2.55532 16.0778C3.02551 16.4794 3.62792 16.6924 4.24605 16.6756C8.0878 16.6756 11.9295 16.6756 15.7713 16.6756C15.9659 16.6765 16.1602 16.6574 16.3509 16.6183C16.9241 16.5026 17.438 16.1877 17.8013 15.7294C18.1647 15.2711 18.354 14.699 18.3359 14.1144C18.3359 11.3011 18.3359 8.48828 18.3359 5.67609V5.44878C18.2492 5.53033 18.1919 5.58066 18.1399 5.63271C16.422 7.35057 14.7042 9.06726 12.9863 10.7828C12.6053 11.1772 12.1485 11.4906 11.6434 11.7041C11.1383 11.9176 10.5952 12.0268 10.0468 12.0252C9.47904 12.0352 8.91534 11.9275 8.39123 11.7089C7.86711 11.4903 7.39397 11.1655 7.00158 10.755L1.87751 5.63271C1.81677 5.57718 1.76123 5.5286 1.68314 5.45572ZM10.0208 1.67297C8.09301 1.67297 6.16691 1.67297 4.2391 1.67297C3.7629 1.65846 3.29267 1.78173 2.88482 2.02798C2.47698 2.27422 2.14887 2.63297 1.93995 3.06113C1.92098 3.08608 1.90729 3.1146 1.89962 3.14498C1.89195 3.17537 1.89048 3.20699 1.89534 3.23794C1.9002 3.2689 1.91127 3.29855 1.92788 3.32512C1.94449 3.35169 1.96632 3.37463 1.99201 3.39256C4.05344 5.44704 6.11199 7.50384 8.16763 9.56296C9.23825 10.6336 10.7704 10.6353 11.8358 9.56296C13.888 7.50963 15.9419 5.45746 17.9976 3.40644C18.0259 3.38678 18.05 3.36159 18.0683 3.33238C18.0866 3.30317 18.0988 3.27055 18.1041 3.23649C18.1095 3.20243 18.1079 3.16764 18.0994 3.13422C18.0909 3.1008 18.0758 3.06944 18.0548 3.04205C17.8425 2.61998 17.5139 2.26746 17.1077 2.0261C16.7016 1.78474 16.2349 1.66461 15.7626 1.67991C13.8487 1.66603 11.9348 1.67297 10.0208 1.67297Z" fill="white"/>
</svg>
