<svg width="19" height="22" viewBox="0 0 19 22" fill="none" xmlns="http://www.w3.org/2000/svg">
<path d="M17.25 5C17.4489 5 17.6397 4.92098 17.7803 4.78033C17.921 4.63968 18 4.44891 18 4.25V1.5C18 1.30109 17.921 1.11032 17.7803 0.96967C17.6397 0.829018 17.4489 0.75 17.25 0.75C17.0511 0.75 16.8603 0.829018 16.7197 0.96967C16.579 1.11032 16.5 1.30109 16.5 1.5V2.126C15.4065 1.34067 14.0807 0.945919 12.7357 1.00522C11.3907 1.06452 10.1048 1.57443 9.08467 2.45295C8.06454 3.33147 7.36951 4.52755 7.11135 5.84884C6.85319 7.17013 7.0469 8.53985 7.66132 9.73774C8.27575 10.9356 9.27519 11.8921 10.4989 12.4533C11.7227 13.0145 13.0996 13.1478 14.4082 12.8318C15.7169 12.5158 16.8813 11.7689 17.7141 10.7111C18.547 9.65339 18.9999 8.34628 19 7C19 6.80109 18.921 6.61032 18.7803 6.46967C18.6397 6.32902 18.4489 6.25 18.25 6.25C18.0511 6.25 17.8603 6.32902 17.7197 6.46967C17.579 6.61032 17.5 6.80109 17.5 7C17.4997 8.02072 17.1524 9.01102 16.5151 9.80835C15.8778 10.6057 14.9884 11.1626 13.9928 11.3878C12.9972 11.613 11.9547 11.4931 11.0363 11.0477C10.1179 10.6022 9.37819 9.85781 8.93863 8.93658C8.49907 8.01535 8.38577 6.97206 8.61731 5.97794C8.84885 4.98383 9.41148 4.09797 10.2129 3.46577C11.0142 2.83357 12.0067 2.49259 13.0274 2.49881C14.0481 2.50503 15.0364 2.85808 15.83 3.5H14.5C14.3011 3.5 14.1103 3.57902 13.9697 3.71967C13.829 3.86032 13.75 4.05109 13.75 4.25C13.75 4.44891 13.829 4.63968 13.9697 4.78033C14.1103 4.92098 14.3011 5 14.5 5H17.25ZM2.5 2H8.101C7.64658 2.44498 7.25467 2.94959 6.936 3.5H2.5C2.23478 3.5 1.98043 3.60536 1.79289 3.79289C1.60536 3.98043 1.5 4.23478 1.5 4.5V18H15V13.71C15.5237 13.554 16.0271 13.3368 16.5 13.063V18.75C16.5 18.9489 16.421 19.1397 16.2803 19.2803C16.1397 19.421 15.9489 19.5 15.75 19.5H1.5C1.5 19.7652 1.60536 20.0196 1.79289 20.2071C1.98043 20.3946 2.23478 20.5 2.5 20.5H15.75C15.9489 20.5 16.1397 20.579 16.2803 20.7197C16.421 20.8603 16.5 21.0511 16.5 21.25C16.5 21.4489 16.421 21.6397 16.2803 21.7803C16.1397 21.921 15.9489 22 15.75 22H2.5C1.83696 22 1.20107 21.7366 0.732233 21.2678C0.263392 20.7989 0 20.163 0 19.5V4.5C0 3.83696 0.263392 3.20107 0.732233 2.73223C1.20107 2.26339 1.83696 2 2.5 2Z" fill="black"/>
</svg>
