<svg width="20" height="20" viewBox="0 0 20 20" fill="none" xmlns="http://www.w3.org/2000/svg">
<path d="M10.8334 1.66602V2.73102L15.0001 4.12102L18.0267 3.11268L18.5542 4.69268L16.0276 5.53518L18.6076 12.6285C17.6976 13.576 16.4167 14.166 15.0001 14.166C13.5826 14.166 12.3026 13.576 11.3926 12.6285L13.9709 5.53518L10.8334 4.48852V15.8327H14.1667V17.4993H5.83341V15.8327H9.16675V4.48852L6.02674 5.53518L8.60674 12.6285C7.69758 13.576 6.41674 14.166 5.00008 14.166C3.58258 14.166 2.30258 13.576 1.39258 12.6285L3.97091 5.53518L1.44591 4.69352L1.97341 3.11185L5.00008 4.12018L9.16675 2.73102V1.66602H10.8334ZM15.0001 7.58518L13.3684 12.0735C13.8576 12.3493 14.4159 12.4993 15.0001 12.4993C15.5834 12.4993 16.1417 12.3493 16.6317 12.0743L15.0001 7.58435V7.58518ZM5.00008 7.58518L3.36841 12.0735C3.85758 12.3493 4.41591 12.4993 5.00008 12.4993C5.58341 12.4993 6.14174 12.3493 6.63174 12.0743L5.00008 7.58435V7.58518Z" fill="#6B7280"/>
</svg>
