<svg width="32" height="32" viewBox="0 0 32 32" fill="none" xmlns="http://www.w3.org/2000/svg">
<g clip-path="url(#clip0_4347_44793)">
<path d="M9.33464 5.33366V2.66699H22.668V5.33366H29.3346V8.00033H26.668V28.0003C26.668 28.3539 26.5275 28.6931 26.2774 28.9431C26.0274 29.1932 25.6883 29.3337 25.3346 29.3337H6.66797C6.31435 29.3337 5.97521 29.1932 5.72516 28.9431C5.47511 28.6931 5.33464 28.3539 5.33464 28.0003V8.00033H2.66797V5.33366H9.33464ZM8.0013 8.00033V26.667H24.0013V8.00033H8.0013ZM12.0013 12.0003H14.668V22.667H12.0013V12.0003ZM17.3346 12.0003H20.0013V22.667H17.3346V12.0003Z" fill="#F43F5E"/>
</g>
<defs>
<clipPath id="clip0_4347_44793">
<rect width="32" height="32" fill="white"/>
</clipPath>
</defs>
</svg>
