<svg width="40" height="40" viewBox="0 0 40 40" fill="none" xmlns="http://www.w3.org/2000/svg">
<rect width="40" height="40" rx="20" fill="#FFE4E6"/>
<g clip-path="url(#clip0_2377_62305)">
<path d="M20 30C14.477 30 10 25.523 10 20C10 14.477 14.477 10 20 10C25.523 10 30 14.477 30 20C30 25.523 25.523 30 20 30ZM20 28C22.1217 28 24.1566 27.1571 25.6569 25.6569C27.1571 24.1566 28 22.1217 28 20C28 17.8783 27.1571 15.8434 25.6569 14.3431C24.1566 12.8429 22.1217 12 20 12C17.8783 12 15.8434 12.8429 14.3431 14.3431C12.8429 15.8434 12 17.8783 12 20C12 22.1217 12.8429 24.1566 14.3431 25.6569C15.8434 27.1571 17.8783 28 20 28ZM20 18.586L22.828 15.757L24.243 17.172L21.414 20L24.243 22.828L22.828 24.243L20 21.414L17.172 24.243L15.757 22.828L18.586 20L15.757 17.172L17.172 15.757L20 18.586Z" fill="#F43F5E"/>
</g>
<defs>
<clipPath id="clip0_2377_62305">
<rect width="24" height="24" fill="white" transform="translate(8 8)"/>
</clipPath>
</defs>
</svg>
