<svg width="22" height="23" viewBox="0 0 22 23" fill="none" xmlns="http://www.w3.org/2000/svg">
<path d="M12.2637 3.78572L12.2639 3.78608L18.4019 14.6979C18.946 15.6657 18.2474 16.8584 17.1394 16.8584H4.86232C3.75292 16.8584 3.05484 15.6654 3.59878 14.6979L9.7367 3.78608C10.2917 2.79949 11.7101 2.80028 12.2637 3.78572ZM12.3085 15.6176C12.6554 15.2707 12.8503 14.8001 12.8503 14.3095C12.8503 13.8188 12.6554 13.3483 12.3085 13.0013C11.9615 12.6544 11.491 12.4595 11.0003 12.4595C10.5097 12.4595 10.0391 12.6544 9.69217 13.0013C9.34523 13.3483 9.15032 13.8188 9.15032 14.3095C9.15032 14.8001 9.34523 15.2707 9.69217 15.6176C10.0391 15.9646 10.5097 16.1595 11.0003 16.1595C11.491 16.1595 11.9615 15.9646 12.3085 15.6176ZM11.0003 4.75949C10.5097 4.75949 10.0391 4.9544 9.69217 5.30134C9.34523 5.64828 9.15032 6.11884 9.15032 6.60949V9.90949C9.15032 10.4001 9.34523 10.8707 9.69217 11.2176C10.0391 11.5646 10.5097 11.7595 11.0003 11.7595C11.491 11.7595 11.9615 11.5646 12.3085 11.2176C12.6554 10.8707 12.8503 10.4001 12.8503 9.90949V6.60949C12.8503 6.11884 12.6554 5.64828 12.3085 5.30134C11.9615 4.9544 11.491 4.75949 11.0003 4.75949Z" fill="#374151" stroke="#71717A" stroke-width="1.5"/>
</svg>
