<svg width="24" height="17" viewBox="0 0 24 17" fill="none" xmlns="http://www.w3.org/2000/svg">
<path d="M23.841 7.8273C21.2317 2.6204 17.2875 0 12 0C6.70978 0 2.76827 2.6204 0.158941 7.82991C0.0542802 8.03984 0 8.26913 0 8.5013C0 8.73347 0.0542802 8.96276 0.158941 9.1727C2.76827 14.3796 6.71253 17 12 17C17.2902 17 21.2317 14.3796 23.841 9.17009C24.053 8.7477 24.053 8.25752 23.841 7.8273ZM12 15.1227C7.56029 15.1227 4.30964 12.9899 2.01685 8.5C4.30964 4.01012 7.56029 1.8773 12 1.8773C16.4397 1.8773 19.6903 4.01012 21.9831 8.5C19.6931 12.9899 16.4425 15.1227 12 15.1227ZM11.8899 3.91104C9.21451 3.91104 7.04558 5.96564 7.04558 8.5C7.04558 11.0344 9.21451 13.089 11.8899 13.089C14.5653 13.089 16.7342 11.0344 16.7342 8.5C16.7342 5.96564 14.5653 3.91104 11.8899 3.91104ZM11.8899 11.4202C10.1861 11.4202 8.80715 10.114 8.80715 8.5C8.80715 6.88604 10.1861 5.57975 11.8899 5.57975C13.5937 5.57975 14.9726 6.88604 14.9726 8.5C14.9726 10.114 13.5937 11.4202 11.8899 11.4202Z" fill="#A9A9A9"/>
</svg>
