<svg width="22" height="20" viewBox="0 0 22 20" fill="none" xmlns="http://www.w3.org/2000/svg">
<path d="M10.83 6.08142L14 9.24142V9.08142C14 8.28577 13.6839 7.52271 13.1213 6.9601C12.5587 6.39749 11.7956 6.08142 11 6.08142H10.83ZM6.53 6.88142L8.08 8.43142C8.03 8.64142 8 8.85142 8 9.08142C8 9.87707 8.31607 10.6401 8.87868 11.2027C9.44129 11.7654 10.2044 12.0814 11 12.0814C11.22 12.0814 11.44 12.0514 11.65 12.0014L13.2 13.5514C12.53 13.8814 11.79 14.0814 11 14.0814C9.67392 14.0814 8.40215 13.5546 7.46447 12.617C6.52678 11.6793 6 10.4075 6 9.08142C6 8.29142 6.2 7.55142 6.53 6.88142ZM1 1.35142L3.28 3.63142L3.73 4.08142C2.08 5.38142 0.78 7.08142 0 9.08142C1.73 13.4714 6 16.5814 11 16.5814C12.55 16.5814 14.03 16.2814 15.38 15.7414L15.81 16.1614L18.73 19.0814L20 17.8114L2.27 0.0814209M11 4.08142C12.3261 4.08142 13.5979 4.6082 14.5355 5.54589C15.4732 6.48357 16 7.75534 16 9.08142C16 9.72142 15.87 10.3414 15.64 10.9014L18.57 13.8314C20.07 12.5814 21.27 10.9414 22 9.08142C20.27 4.69142 16 1.58142 11 1.58142C9.6 1.58142 8.26 1.83142 7 2.28142L9.17 4.43142C9.74 4.21142 10.35 4.08142 11 4.08142Z" fill="#BDBDBDCC"/>
</svg>
