<svg width="224" height="216" viewBox="0 0 224 216" fill="none" xmlns="http://www.w3.org/2000/svg">
<rect width="224" height="216" fill="white"/>
<path d="M170.865 163.364C167.657 166.75 164.623 168.934 162.225 170.66C134.041 190.941 100.69 185.029 93.6042 183.586C83.1381 181.454 62.9073 177.333 48.2803 160.082C26.1516 133.981 29.5974 92.8649 46.7622 65.7188C49.8988 60.7535 66.4865 33.1967 100.195 28.7776C120.595 26.103 144.374 31.4968 161.595 45.9667C197.743 76.341 195.17 137.701 170.865 163.364Z" fill="url(#paint0_linear_1568_169949)"/>
<path d="M146.044 117.537C146.044 117.537 145.589 98.3979 154.443 93.2755C163.297 88.1531 180.138 84.9505 180.77 57.4685C181.14 41.3793 181.54 34.345 181.808 31.2777C181.833 30.999 181.793 30.7184 181.691 30.4578C181.588 30.1972 181.427 29.9638 181.218 29.7759C181.01 29.5879 180.761 29.4506 180.49 29.3746C180.22 29.2987 179.935 29.2862 179.659 29.3381C171.271 30.9105 144.023 37.3841 138.309 55.8961C131.536 77.8415 146.044 117.537 146.044 117.537Z" fill="#91B3FA"/>
<path d="M172.885 36.5491C163.84 44.7506 153.385 59.2658 147.812 73.7809C147.096 76.1735 145.004 81.2607 144.095 90.2991C143.283 97.8374 143.687 105.803 144.671 111.076C144.701 111.236 144.792 111.378 144.924 111.47C145.057 111.561 145.22 111.596 145.377 111.566C145.941 111.457 145.866 110.84 145.861 110.859C144.737 101.85 145.204 90.6375 147.779 80.5198C151.069 68.0963 158.408 56.051 165.999 45.8362L166.781 44.8301C172.663 37.1498 173.9 37.0931 173.351 36.5577C173.288 36.4971 173.206 36.4626 173.12 36.461C173.033 36.4594 172.949 36.4909 172.885 36.5491Z" fill="#BDD0FB"/>
<path d="M134.206 153.293C132.988 153.886 145.729 137.976 149.72 112.991C151.601 101.217 151.625 86.4648 158.382 80.7801C164.003 76.0489 183.132 79.0358 189.391 80.1711C189.567 80.2026 189.729 80.2831 189.86 80.4031C189.991 80.523 190.085 80.6775 190.131 80.8485C190.177 81.0195 190.173 81.2 190.119 81.3687C190.065 81.5374 189.964 81.6875 189.828 81.8013C186.825 84.3048 180.405 90.2086 178.733 96.1595C176.525 104.003 169.016 108.991 162.293 110.341C155.571 111.691 151.831 113.001 148.556 123.677C145.28 134.352 137.664 151.609 134.206 153.293Z" fill="#BDD0FB"/>
<path d="M180.465 84.1543C172.737 84.479 164.441 88.0164 160.231 94.6521L159.834 95.2853C158.916 96.7702 153.715 107.325 150.826 116.074C150.809 116.126 150.813 116.184 150.838 116.233C150.862 116.282 150.906 116.32 150.958 116.337C151.009 116.353 151.064 116.349 151.112 116.326C151.16 116.303 151.197 116.262 151.217 116.213C153.229 111.27 156.121 105.003 158.422 100.317C160.892 95.2034 162.619 91.7406 168.251 88.4235C174.519 84.8514 180.507 84.4835 180.49 84.4868C180.529 84.4785 180.565 84.456 180.589 84.4236C180.614 84.3911 180.626 84.3509 180.623 84.3103C180.62 84.2697 180.602 84.2316 180.574 84.2029C180.545 84.1742 180.507 84.1569 180.466 84.1543H180.465Z" fill="url(#paint1_linear_1568_169949)"/>
<path d="M63.7773 65.7417C63.7773 64.5583 64.0097 63.3865 64.4612 62.2932C64.9128 61.1998 65.5747 60.2064 66.4092 59.3696C67.2437 58.5328 68.2343 57.8691 69.3246 57.4163C70.4149 56.9634 71.5835 56.7304 72.7636 56.7305H149.183C151.213 56.7306 153.166 57.5126 154.637 58.9149C156.109 60.3173 156.987 62.2328 157.09 64.2658L162.731 175.367C162.771 176.151 162.653 176.935 162.385 177.673C162.117 178.41 161.703 179.086 161.169 179.66C160.635 180.234 159.991 180.694 159.276 181.014C158.561 181.333 157.789 181.505 157.006 181.519L69.4194 183.114C68.6833 183.128 67.9519 182.994 67.268 182.721C66.5841 182.447 65.9613 182.04 65.436 181.523C64.9107 181.006 64.4935 180.389 64.2087 179.708C63.924 179.027 63.7773 178.296 63.7773 177.558V65.7417Z" fill="url(#paint2_linear_1568_169949)"/>
<path d="M81.4548 181.922H81.452L71.9334 181.794C68.7504 181.751 66.1611 179.011 66.1611 175.685V160.673C66.1611 160.617 66.1825 160.563 66.2206 160.523C66.2587 160.483 66.3103 160.461 66.3642 160.461C66.418 160.461 66.4697 160.483 66.5077 160.523C66.5458 160.563 66.5672 160.617 66.5672 160.673V175.686C66.5672 178.78 68.9767 181.329 71.9384 181.37L81.4581 181.498C81.5119 181.498 81.5636 181.521 81.6017 181.56C81.6397 181.6 81.6611 181.654 81.6611 181.71C81.6611 181.767 81.6397 181.821 81.6017 181.86C81.5636 181.9 81.5119 181.922 81.4581 181.922H81.4548Z" fill="#91B3FA"/>
<path d="M69.7383 58.2017C69.7358 57.8228 69.8143 57.4478 69.9686 57.1021C70.1228 56.7563 70.3492 56.4479 70.6324 56.1977C70.9156 55.9475 71.249 55.7614 71.61 55.6519C71.971 55.5424 72.3512 55.5121 72.7248 55.5631C83.2509 56.9973 119.449 61.4356 149.377 59.1251C149.701 59.0996 150.026 59.1393 150.334 59.2421C150.643 59.3448 150.927 59.5085 151.172 59.7235C151.416 59.9384 151.615 60.2004 151.757 60.4938C151.899 60.7872 151.981 61.1063 151.999 61.4321L157.965 174.222C158.005 174.964 157.75 175.693 157.257 176.247C156.763 176.802 156.072 177.138 155.333 177.182C142.746 177.93 90.908 180.823 72.4189 178.877C71.8755 178.82 71.3723 178.563 71.0058 178.156C70.6392 177.748 70.435 177.22 70.4323 176.671L69.7383 58.2017Z" fill="#1D4ED8"/>
<path d="M70.9317 61.6515C70.9293 61.2909 71.0047 60.934 71.1527 60.6049C71.3006 60.2759 71.5178 59.9824 71.7895 59.7442C72.0611 59.5061 72.3809 59.3289 72.7272 59.2247C73.0736 59.1204 73.4383 59.0916 73.7968 59.14C83.8967 60.5068 118.628 64.7279 147.343 62.5302C147.654 62.5062 147.966 62.5442 148.262 62.6422C148.557 62.7402 148.83 62.8961 149.064 63.1008C149.299 63.3054 149.489 63.5547 149.625 63.8339C149.762 64.1132 149.84 64.4167 149.857 64.7268L155.582 172.094C155.62 172.801 155.376 173.495 154.903 174.023C154.429 174.551 153.765 174.871 153.056 174.912C140.979 175.624 91.2413 178.378 73.5008 176.526C72.9794 176.471 72.4967 176.226 72.1451 175.839C71.7935 175.451 71.5978 174.947 71.5955 174.425L70.9317 61.6515Z" fill="#BFDBFE"/>
<path opacity="0.78" d="M80.4724 69.1596L81.5182 93.1765C81.5348 93.5615 81.6872 93.9255 81.9449 94.1956C82.2026 94.4657 82.5466 94.622 82.9078 94.6329C87.0782 94.7589 100.075 95.0964 107.413 94.6888C107.813 94.6664 108.191 94.4845 108.471 94.1793C108.751 93.874 108.914 93.4676 108.927 93.0404C109.067 88.5362 109.373 75.4263 108.411 69.9458C108.335 69.516 108.124 69.1267 107.812 68.8421C107.501 68.5575 107.108 68.3945 106.698 68.38L82.0447 67.4619C81.8346 67.4542 81.6253 67.493 81.43 67.5758C81.2346 67.6587 81.0575 67.7838 80.9098 67.9433C80.762 68.1029 80.6469 68.2933 80.5716 68.5026C80.4963 68.7119 80.4625 68.9356 80.4724 69.1596Z" fill="white"/>
<g opacity="0.6">
<path d="M143.435 71.6668C143.907 71.6668 144.284 71.3182 144.272 70.8919C144.259 70.4656 143.862 70.1101 143.39 70.1016L115.57 69.6095C115.097 69.601 114.839 69.9593 114.998 70.405L115.158 70.8622C115.316 71.308 115.831 71.6731 116.302 71.6731L143.435 71.6668Z" fill="white"/>
</g>
<g opacity="0.6">
<path d="M115.57 73.9123C115.097 73.9037 114.839 74.262 114.998 74.7078L115.158 75.1621C115.316 75.6078 115.831 75.973 116.302 75.973H143.433C143.906 75.973 144.282 75.6244 144.27 75.1981C144.257 74.7718 143.861 74.4163 143.388 74.4077L115.57 73.9123Z" fill="white"/>
</g>
<g opacity="0.6">
<path d="M115.57 78.2775C115.097 78.2695 114.839 78.6272 114.998 79.073L115.158 79.5302C115.316 79.9759 115.831 80.3405 116.302 80.3405H143.433C143.906 80.3405 144.282 79.9919 144.27 79.5656C144.257 79.1393 143.861 78.7838 143.388 78.7758L115.57 78.2775Z" fill="white"/>
</g>
<g opacity="0.6">
<path d="M146.128 101.408C146.601 101.408 146.965 101.06 146.937 100.633C146.909 100.207 146.499 99.8557 146.026 99.8523L80.9675 99.3379C80.4948 99.3339 80.349 99.6334 80.6434 100.003L81.2259 100.735C81.5203 101.104 82.1486 101.407 82.6213 101.407L146.128 101.408Z" fill="white"/>
</g>
<g opacity="0.6">
<path d="M80.9675 103.647C80.4948 103.643 80.349 103.942 80.6434 104.312L81.2259 105.043C81.5203 105.413 82.1486 105.715 82.6213 105.715H146.131C146.603 105.715 146.968 105.367 146.94 104.941C146.912 104.515 146.501 104.163 146.028 104.159L80.9675 103.647Z" fill="white"/>
</g>
<path d="M80.2747 110.582C81.8962 110.462 84.9321 110.406 86.604 110.383C86.9477 110.378 87.2829 110.487 87.5546 110.691C87.8263 110.896 88.0183 111.184 88.0991 111.508C88.4218 112.806 88.8668 115.061 88.811 117.45C88.8036 117.794 88.6569 118.121 88.4028 118.36C88.1487 118.6 87.8076 118.732 87.4536 118.729L81.2833 118.664C80.9172 118.66 80.5655 118.525 80.2962 118.284C80.0269 118.043 79.8588 117.714 79.8244 117.36L79.2821 111.726C79.2686 111.587 79.2837 111.447 79.3265 111.314C79.3693 111.182 79.4389 111.058 79.5313 110.952C79.6238 110.845 79.7371 110.758 79.8647 110.694C79.9924 110.631 80.1317 110.593 80.2747 110.582Z" fill="url(#paint3_linear_1568_169949)"/>
<g opacity="0.6">
<path d="M91.6652 113.13C91.1924 113.11 90.8649 113.477 90.934 113.944L91.0901 114.984C91.1319 115.217 91.2529 115.429 91.4327 115.584C91.6125 115.739 91.8401 115.827 92.0773 115.833H106.596C106.708 115.833 106.819 115.811 106.923 115.768C107.026 115.725 107.12 115.661 107.199 115.582C107.278 115.502 107.34 115.407 107.382 115.303C107.425 115.199 107.446 115.088 107.445 114.976L107.441 114.65C107.435 114.419 107.342 114.198 107.181 114.032C107.019 113.866 106.802 113.767 106.571 113.755L91.6652 113.13Z" fill="white"/>
</g>
<path d="M113.533 110.582C114.952 110.462 117.609 110.406 119.071 110.383C119.372 110.378 119.666 110.486 119.904 110.691C120.141 110.895 120.31 111.184 120.38 111.508C120.662 112.806 121.051 115.061 121.003 117.45C120.997 117.794 120.868 118.121 120.646 118.36C120.424 118.6 120.125 118.732 119.815 118.729L114.416 118.664C114.096 118.66 113.788 118.525 113.553 118.284C113.317 118.043 113.17 117.714 113.14 117.36L112.665 111.726C112.654 111.587 112.667 111.447 112.704 111.315C112.742 111.182 112.803 111.059 112.883 110.952C112.964 110.846 113.063 110.758 113.175 110.695C113.286 110.631 113.408 110.593 113.533 110.582Z" fill="#BFDBFE"/>
<g opacity="0.6">
<path d="M124.04 113.13C123.568 113.11 123.24 113.477 123.309 113.944L123.465 114.984C123.507 115.217 123.628 115.429 123.808 115.584C123.988 115.739 124.216 115.827 124.453 115.833H138.969C139.081 115.833 139.192 115.811 139.295 115.768C139.399 115.725 139.493 115.661 139.572 115.582C139.651 115.502 139.713 115.407 139.755 115.303C139.797 115.199 139.819 115.088 139.817 114.976L139.813 114.65C139.808 114.419 139.715 114.198 139.554 114.032C139.393 113.866 139.175 113.767 138.944 113.755L124.04 113.13Z" fill="white"/>
</g>
<g opacity="0.6">
<path d="M78.8945 129.956C79.0986 130.557 79.8 130.975 80.5986 130.969L145.696 130.539C146.432 130.533 147.022 130.06 147.006 129.486C146.99 128.929 146.407 128.482 145.691 128.48L80.5917 128.248C79.4427 128.244 78.6018 129.091 78.8945 129.956Z" fill="white"/>
</g>
<g opacity="0.6">
<path d="M78.8945 141.708C79.0986 142.31 79.8 142.727 80.5986 142.722L145.696 142.289C146.432 142.284 147.022 141.811 147.006 141.238C146.99 140.68 146.407 140.233 145.691 140.231L80.5912 140.002C79.4427 139.995 78.6018 140.842 78.8945 141.708Z" fill="white"/>
</g>
<g opacity="0.6">
<path d="M78.8945 153.459C79.0986 154.061 79.8 154.479 80.5986 154.474L145.696 154.041C146.432 154.036 147.022 153.563 147.006 152.989C146.99 152.431 146.407 151.985 145.691 151.983L80.5912 151.754C79.4427 151.747 78.6018 152.593 78.8945 153.459Z" fill="white"/>
</g>
<g opacity="0.6">
<path d="M78.8945 165.207C79.0986 165.809 79.8 166.227 80.5986 166.221L145.696 165.788C146.432 165.783 147.022 165.31 147.006 164.736C146.99 164.178 146.407 163.732 145.691 163.729L80.5917 163.502C79.4427 163.495 78.6018 164.342 78.8945 165.207Z" fill="white"/>
</g>
<path d="M115.189 41.7873C112.658 39.7816 110.458 39.8214 108.909 40.3418C108.224 40.5745 107.631 41.0705 107.231 41.7455C106.83 42.4204 106.648 43.2325 106.715 44.0434L107.382 52.351L115.331 53.1544C115.331 53.1544 120.152 45.7215 115.189 41.7873ZM111.693 48.4927C111.301 48.4927 110.918 48.3603 110.592 48.1121C110.266 47.8639 110.012 47.5112 109.862 47.0985C109.712 46.6858 109.673 46.2317 109.749 45.7936C109.826 45.3555 110.014 44.9531 110.292 44.6373C110.569 44.3214 110.922 44.1063 111.306 44.0192C111.691 43.932 112.089 43.9768 112.452 44.1477C112.814 44.3186 113.123 44.6081 113.341 44.9795C113.559 45.3509 113.675 45.7876 113.675 46.2342C113.675 46.8327 113.465 47.4064 113.094 47.8293C112.722 48.2522 112.218 48.4897 111.693 48.4897V48.4927Z" fill="url(#paint4_linear_1568_169949)"/>
<path d="M107.271 48.3843C107.216 48.3842 107.162 48.365 107.122 48.3304C107.081 48.2958 107.055 48.2483 107.05 48.1972L106.93 46.9519C106.925 46.8975 106.943 46.8435 106.981 46.8016C107.018 46.7597 107.073 46.7334 107.131 46.7285C107.16 46.7259 107.19 46.7286 107.217 46.7366C107.245 46.7445 107.271 46.7575 107.294 46.7748C107.316 46.7921 107.334 46.8134 107.348 46.8373C107.361 46.8613 107.37 46.8875 107.372 46.9144L107.493 48.1598C107.495 48.1867 107.492 48.2138 107.484 48.2396C107.475 48.2654 107.461 48.2894 107.442 48.3102C107.424 48.3309 107.401 48.3481 107.375 48.3606C107.349 48.3731 107.321 48.3808 107.292 48.3832L107.271 48.3843ZM107.03 45.9438C106.975 45.9439 106.921 45.9247 106.88 45.8901C106.839 45.8555 106.814 45.8079 106.809 45.7568L106.715 44.8118C106.644 44.0849 106.845 43.3573 107.286 42.7525C107.727 42.1477 108.38 41.7029 109.135 41.4935C110.226 41.1932 111.382 41.1493 112.496 41.3656C112.551 41.3789 112.599 41.4112 112.629 41.4561C112.659 41.5009 112.67 41.5547 112.658 41.6064C112.647 41.6582 112.614 41.7039 112.568 41.7341C112.521 41.7643 112.463 41.7767 112.407 41.7688C111.364 41.5665 110.283 41.6076 109.261 41.8883C108.605 42.0705 108.037 42.4574 107.653 42.9835C107.27 43.5096 107.095 44.1423 107.158 44.7744L107.251 45.7199C107.254 45.7468 107.251 45.7739 107.242 45.7997C107.233 45.8254 107.219 45.8494 107.201 45.8701C107.182 45.8909 107.159 45.908 107.133 45.9205C107.108 45.9331 107.079 45.9408 107.05 45.9433L107.03 45.9438Z" fill="#91B3FA"/>
<path d="M94.7773 57.3327V53.2568C94.7777 52.9231 94.8454 52.5928 94.9765 52.2857C95.1076 51.9785 95.2994 51.7007 95.5404 51.4688C95.7815 51.237 96.0669 51.0557 96.3797 50.9358C96.6925 50.8159 97.0263 50.7598 97.3613 50.7709L125.584 51.7339C126.188 51.7546 126.763 51.9989 127.196 52.4192C127.629 52.8395 127.89 53.4056 127.926 54.0067L128.162 57.9234L94.7773 57.3327Z" fill="url(#paint5_linear_1568_169949)"/>
<path d="M96.1899 55.5379C96.1317 55.5379 96.076 55.5186 96.0349 55.4844C95.9938 55.4501 95.9707 55.4036 95.9707 55.3552V53.9415C95.9723 53.4166 96.2231 52.9136 96.6684 52.5425C97.1137 52.1713 97.7171 51.9622 98.3468 51.9609H102.916C102.972 51.9634 103.025 51.9837 103.064 52.0178C103.103 52.0518 103.125 52.0969 103.125 52.1439C103.125 52.1908 103.103 52.2359 103.064 52.27C103.025 52.304 102.972 52.3243 102.916 52.3268H98.3468C97.8331 52.3272 97.3406 52.4974 96.9773 52.8001C96.614 53.1028 96.4096 53.5133 96.409 53.9415V55.3552C96.409 55.4036 96.3859 55.4501 96.3448 55.4844C96.3037 55.5186 96.248 55.5379 96.1899 55.5379Z" fill="#91B3FA"/>
<path d="M84.1582 58.1519C84.1904 57.4476 84.4795 56.7834 84.9656 56.2969C85.4517 55.8104 86.0976 55.539 86.7691 55.5391H135.275C136.12 55.539 136.937 55.852 137.583 56.4229C138.23 56.9938 138.663 57.7859 138.808 58.6596L138.849 58.9086C138.925 59.373 138.904 59.8492 138.787 60.3041C138.67 60.759 138.46 61.1814 138.171 61.542C137.882 61.9025 137.521 62.1923 137.114 62.3911C136.707 62.5899 136.264 62.6929 135.815 62.6929H86.0507C85.7796 62.6932 85.5113 62.6357 85.262 62.5239C85.0127 62.412 84.7877 62.2481 84.6006 62.0421C84.4136 61.8361 84.2683 61.5924 84.1737 61.3257C84.079 61.0589 84.037 60.7748 84.0502 60.4905L84.1582 58.1519Z" fill="#1D4ED8"/>
<path d="M104.315 167.617H35.1611V184.309H104.315V167.617Z" fill="url(#paint6_linear_1568_169949)"/>
<path d="M33.9707 177.154H105.509V182.834C105.509 182.908 105.478 182.98 105.424 183.033C105.369 183.086 105.295 183.116 105.217 183.116H34.4077C34.292 183.116 34.181 183.071 34.0991 182.992C34.0173 182.913 33.9713 182.806 33.9713 182.694V177.154H33.9707Z" fill="url(#paint7_linear_1568_169949)"/>
<path d="M33.9707 170H105.509V175.543C105.509 175.654 105.464 175.76 105.382 175.839C105.301 175.917 105.191 175.962 105.076 175.962H34.5111C34.3678 175.962 34.2303 175.906 34.129 175.809C34.0276 175.711 33.9707 175.578 33.9707 175.439V170Z" fill="url(#paint8_linear_1568_169949)"/>
<path d="M34.4168 167.617H105.057C105.177 167.617 105.292 167.666 105.377 167.754C105.462 167.841 105.509 167.96 105.509 168.083V170.002H33.9707V168.08C33.9704 168.019 33.9817 167.959 34.004 167.903C34.0263 167.847 34.0591 167.796 34.1006 167.753C34.142 167.71 34.1913 167.676 34.2456 167.652C34.2998 167.629 34.358 167.617 34.4168 167.617Z" fill="url(#paint9_linear_1568_169949)"/>
<path d="M171.49 182.133C172.815 179.408 171.988 176.274 169.641 175.133C167.294 173.992 164.318 175.277 162.992 178.003C161.666 180.728 162.494 183.862 164.841 185.003C167.187 186.144 170.164 184.859 171.49 182.133Z" fill="url(#paint10_linear_1568_169949)"/>
<path d="M162.194 174.558L159.791 179.499C159.705 179.676 159.779 179.89 159.956 179.976L162.964 181.439C163.141 181.525 163.355 181.451 163.442 181.274L165.845 176.332C165.931 176.155 165.857 175.941 165.68 175.855L162.672 174.393C162.494 174.307 162.28 174.381 162.194 174.558Z" fill="url(#paint11_linear_1568_169949)"/>
<path d="M162.678 173.581C162.249 175.798 161.27 177.779 159.782 179.539C158.978 180.49 157.688 180.917 156.405 180.657C144.14 178.18 118.434 162.198 93.4699 148.236C91.8155 147.311 90.6719 146.262 91.4515 144.649L93.1732 141.087C93.9477 139.483 95.802 140.387 97.5419 141.106C123.949 152.019 151.956 161.532 161.571 170.334C162.494 171.179 162.905 172.409 162.678 173.581Z" fill="url(#paint12_linear_1568_169949)"/>
<path d="M97.1298 137.425L91.3275 149.538C91.2882 149.62 91.2185 149.683 91.1337 149.713C91.049 149.742 90.956 149.737 90.8752 149.697L87.8144 148.186C87.7338 148.146 87.672 148.075 87.6427 147.989C87.6133 147.903 87.6188 147.809 87.6578 147.727L93.4601 135.618C93.4993 135.536 93.569 135.473 93.6538 135.443C93.7385 135.413 93.8315 135.418 93.9124 135.458L96.9732 136.969C97.0531 137.009 97.1143 137.079 97.1436 137.165C97.1729 137.25 97.168 137.344 97.1298 137.425Z" fill="url(#paint13_linear_1568_169949)"/>
<path d="M70.8994 125.501L65.0971 137.614C65.0577 137.696 64.988 137.759 64.9032 137.789C64.8185 137.819 64.7255 137.813 64.6448 137.773L61.5839 136.262C61.5033 136.222 61.4416 136.152 61.4122 136.066C61.3829 135.979 61.3883 135.885 61.4273 135.803L67.2296 123.693C67.269 123.611 67.3387 123.549 67.4234 123.519C67.5082 123.489 67.6011 123.495 67.6819 123.534L70.7428 125.045C70.8226 125.085 70.8838 125.155 70.9131 125.24C70.9424 125.326 70.9375 125.419 70.8994 125.501Z" fill="url(#paint14_linear_1568_169949)"/>
<path d="M73.7658 113.575L55.2295 151.688L81.0576 164.242L99.5939 126.13L73.7658 113.575Z" fill="url(#paint15_linear_1568_169949)"/>
<path d="M56.2062 149.674L53.875 154.467L79.7031 167.021L82.0342 162.228L56.2062 149.674Z" fill="url(#paint16_linear_1568_169949)"/>
<path d="M80.4709 164.381L79.3008 166.708C79.1272 167.052 78.833 167.326 78.4704 167.48C78.1079 167.634 77.7005 167.659 77.3207 167.551C69.1901 165.216 61.3211 161.578 53.7499 156.455C53.4291 156.237 53.1988 155.917 53.1005 155.55C53.0022 155.183 53.0423 154.795 53.2136 154.454L54.3884 152.117L80.4709 164.381Z" fill="url(#paint17_linear_1568_169949)"/>
<path d="M82.8178 161.734L81.8552 163.826C81.8349 163.871 81.8064 163.91 81.7714 163.943C81.7365 163.976 81.6958 164.001 81.6516 164.017C81.6074 164.034 81.5606 164.04 81.514 164.037C81.4673 164.034 81.4216 164.022 81.3796 164L54.4382 150.153C54.3534 150.109 54.2885 150.031 54.2577 149.937C54.227 149.843 54.2329 149.74 54.2741 149.65L55.2362 147.558C55.2566 147.513 55.2851 147.473 55.3201 147.441C55.3551 147.408 55.3959 147.383 55.4401 147.366C55.4843 147.35 55.5311 147.343 55.5779 147.346C55.6246 147.349 55.6703 147.362 55.7123 147.384L82.6538 161.231C82.7386 161.275 82.8035 161.352 82.8342 161.447C82.865 161.541 82.8591 161.644 82.8178 161.734Z" fill="url(#paint18_linear_1568_169949)"/>
<path d="M82.8236 161.401L82.1889 162.675C82.171 162.711 82.146 162.743 82.1153 162.77C82.0846 162.796 82.0488 162.817 82.01 162.83C81.9712 162.843 81.9301 162.849 81.8892 162.846C81.8482 162.844 81.8081 162.834 81.7712 162.816L55.6073 150.392C55.5704 150.375 55.5374 150.35 55.5102 150.32C55.483 150.29 55.4621 150.255 55.4487 150.218C55.4353 150.18 55.4297 150.14 55.4322 150.1C55.4347 150.06 55.4453 150.02 55.4632 149.984L56.0974 148.711C56.1153 148.675 56.1403 148.643 56.171 148.616C56.2017 148.589 56.2375 148.569 56.2763 148.556C56.3151 148.543 56.3561 148.537 56.3971 148.54C56.4381 148.542 56.4782 148.552 56.5151 148.57L82.679 160.993C82.7534 161.029 82.8104 161.092 82.8375 161.168C82.8646 161.245 82.8596 161.329 82.8236 161.401Z" fill="url(#paint19_linear_1568_169949)"/>
<path d="M99.746 125.83L102.077 121.037L76.2491 108.483L73.9179 113.276L99.746 125.83Z" fill="url(#paint20_linear_1568_169949)"/>
<path d="M100.652 123.499L101.771 120.992C101.937 120.621 101.976 120.198 101.882 119.799C101.788 119.399 101.567 119.049 101.258 118.81C94.6381 113.699 87.1585 109.675 78.6998 106.88C78.3411 106.762 77.9554 106.787 77.6119 106.95C77.2684 107.113 76.9896 107.405 76.8255 107.772L75.7012 110.288L100.652 123.499Z" fill="url(#paint21_linear_1568_169949)"/>
<path d="M99.7409 126.878L100.703 124.935C100.724 124.894 100.736 124.849 100.739 124.804C100.742 124.758 100.735 124.712 100.72 124.669C100.705 124.625 100.681 124.585 100.65 124.551C100.619 124.517 100.581 124.489 100.539 124.469L73.5986 111.611C73.5137 111.571 73.4159 111.565 73.3267 111.595C73.2376 111.626 73.1643 111.689 73.123 111.773L72.1599 113.716C72.1186 113.799 72.1127 113.895 72.1435 113.983C72.1742 114.071 72.2391 114.143 72.3239 114.183L99.2642 127.041C99.3064 127.061 99.3522 127.073 99.399 127.076C99.4458 127.078 99.4928 127.072 99.5371 127.057C99.5814 127.042 99.6222 127.018 99.6572 126.987C99.6922 126.957 99.7207 126.92 99.7409 126.878Z" fill="url(#paint22_linear_1568_169949)"/>
<path d="M100.045 126.889L100.707 125.509C100.744 125.43 100.75 125.34 100.721 125.257C100.693 125.174 100.634 125.106 100.556 125.067L73.2544 111.609C73.1765 111.571 73.087 111.566 73.0053 111.594C72.9236 111.623 72.8565 111.683 72.8185 111.762L72.1569 113.141C72.1381 113.181 72.1272 113.223 72.1246 113.266C72.122 113.31 72.1279 113.353 72.1419 113.394C72.156 113.435 72.1778 113.473 72.2063 113.506C72.2347 113.538 72.2692 113.564 72.3078 113.583L99.6065 127.042C99.6451 127.061 99.6871 127.073 99.7302 127.075C99.7732 127.078 99.8163 127.073 99.8571 127.058C99.8978 127.044 99.9354 127.022 99.9676 126.993C99.9999 126.964 100.026 126.929 100.045 126.889Z" fill="url(#paint23_linear_1568_169949)"/>
<path fill-rule="evenodd" clip-rule="evenodd" d="M95.5115 75.5941C95.8764 75.5956 96.2258 75.7421 96.4828 76.0013C96.7397 76.2605 96.8832 76.6111 96.8817 76.9761L96.8639 81.1045L100.992 81.1222C101.357 81.1238 101.707 81.2703 101.964 81.5295C102.221 81.7887 102.364 82.1393 102.362 82.5043C102.361 82.8693 102.214 83.2187 101.955 83.4756C101.696 83.7326 101.345 83.8761 100.98 83.8745L96.852 83.8567L96.8343 87.9851C96.8327 88.35 96.6862 88.6994 96.427 88.9564C96.1678 89.2134 95.8172 89.3568 95.4522 89.3553C95.0873 89.3537 94.7379 89.2072 94.4809 88.948C94.2239 88.6888 94.0805 88.3382 94.082 87.9732L94.0998 83.8449L89.9714 83.8271C89.6065 83.8255 89.2571 83.679 89.0001 83.4198C88.7431 83.1607 88.5997 82.81 88.6012 82.4451C88.6028 82.0801 88.7493 81.7307 89.0085 81.4737C89.2677 81.2168 89.6183 81.0733 89.9833 81.0749L94.1116 81.0926L94.1294 76.9643C94.131 76.5993 94.2775 76.2499 94.5367 75.9929C94.7958 75.736 95.1465 75.5925 95.5115 75.5941Z" fill="#BFDBFE"/>
<defs>
<linearGradient id="paint0_linear_1568_169949" x1="209.278" y1="231.953" x2="69.1481" y2="58.4317" gradientUnits="userSpaceOnUse">
<stop stop-color="#DAE3FE"/>
<stop offset="1" stop-color="#E9EFFD"/>
</linearGradient>
<linearGradient id="paint1_linear_1568_169949" x1="150.817" y1="100.251" x2="180.64" y2="100.251" gradientUnits="userSpaceOnUse">
<stop stop-color="#DAE3FE"/>
<stop offset="1" stop-color="#E9EFFD"/>
</linearGradient>
<linearGradient id="paint2_linear_1568_169949" x1="113.225" y1="175.653" x2="106.158" y2="-32.9712" gradientUnits="userSpaceOnUse">
<stop stop-color="#09005D"/>
<stop offset="1" stop-color="#1A0F91"/>
</linearGradient>
<linearGradient id="paint3_linear_1568_169949" x1="70.7251" y1="104.243" x2="145.781" y2="166.035" gradientUnits="userSpaceOnUse">
<stop stop-color="#A737D5"/>
<stop offset="1" stop-color="#EF497A"/>
</linearGradient>
<linearGradient id="paint4_linear_1568_169949" x1="123.005" y1="29.8719" x2="85.288" y2="73.4153" gradientUnits="userSpaceOnUse">
<stop stop-color="#09005D"/>
<stop offset="1" stop-color="#1A0F91"/>
</linearGradient>
<linearGradient id="paint5_linear_1568_169949" x1="128.288" y1="33.1451" x2="92.499" y2="80.4292" gradientUnits="userSpaceOnUse">
<stop stop-color="#09005D"/>
<stop offset="1" stop-color="#1A0F91"/>
</linearGradient>
<linearGradient id="paint6_linear_1568_169949" x1="84.7003" y1="154.106" x2="75.3365" y2="166.857" gradientUnits="userSpaceOnUse">
<stop stop-color="#09005D"/>
<stop offset="1" stop-color="#1A0F91"/>
</linearGradient>
<linearGradient id="paint7_linear_1568_169949" x1="109.539" y1="127.336" x2="50.8286" y2="210.465" gradientUnits="userSpaceOnUse">
<stop stop-color="#4F52FF"/>
<stop offset="1" stop-color="#4042E2"/>
</linearGradient>
<linearGradient id="paint8_linear_1568_169949" x1="70.1137" y1="165.271" x2="71.7014" y2="131.15" gradientUnits="userSpaceOnUse">
<stop stop-color="#4F52FF"/>
<stop offset="1" stop-color="#4042E2"/>
</linearGradient>
<linearGradient id="paint9_linear_1568_169949" x1="124.506" y1="111.773" x2="108.317" y2="127.657" gradientUnits="userSpaceOnUse">
<stop stop-color="#09005D"/>
<stop offset="1" stop-color="#1A0F91"/>
</linearGradient>
<linearGradient id="paint10_linear_1568_169949" x1="199.326" y1="187.991" x2="213.944" y2="191.599" gradientUnits="userSpaceOnUse">
<stop stop-color="#4F52FF"/>
<stop offset="1" stop-color="#4042E2"/>
</linearGradient>
<linearGradient id="paint11_linear_1568_169949" x1="131.608" y1="158.39" x2="152.68" y2="171.588" gradientUnits="userSpaceOnUse">
<stop stop-color="#4F52FF"/>
<stop offset="1" stop-color="#4042E2"/>
</linearGradient>
<linearGradient id="paint12_linear_1568_169949" x1="193.329" y1="188.841" x2="88.1216" y2="144.219" gradientUnits="userSpaceOnUse">
<stop stop-color="#4F52FF"/>
<stop offset="1" stop-color="#4042E2"/>
</linearGradient>
<linearGradient id="paint13_linear_1568_169949" x1="77.6746" y1="131.877" x2="93.6541" y2="143.149" gradientUnits="userSpaceOnUse">
<stop stop-color="#09005D"/>
<stop offset="1" stop-color="#1A0F91"/>
</linearGradient>
<linearGradient id="paint14_linear_1568_169949" x1="118.539" y1="152.498" x2="67.2884" y2="131.755" gradientUnits="userSpaceOnUse">
<stop stop-color="#4F52FF"/>
<stop offset="1" stop-color="#4042E2"/>
</linearGradient>
<linearGradient id="paint15_linear_1568_169949" x1="64.5509" y1="132.56" x2="88.7532" y2="144.522" gradientUnits="userSpaceOnUse">
<stop stop-color="#4F52FF"/>
<stop offset="1" stop-color="#4042E2"/>
</linearGradient>
<linearGradient id="paint16_linear_1568_169949" x1="48.2522" y1="172.526" x2="62.4878" y2="162.274" gradientUnits="userSpaceOnUse">
<stop stop-color="#09005D"/>
<stop offset="1" stop-color="#1A0F91"/>
</linearGradient>
<linearGradient id="paint17_linear_1568_169949" x1="55.9327" y1="187.931" x2="63.8819" y2="165.697" gradientUnits="userSpaceOnUse">
<stop stop-color="#4F52FF"/>
<stop offset="1" stop-color="#4042E2"/>
</linearGradient>
<linearGradient id="paint18_linear_1568_169949" x1="49.7055" y1="105.003" x2="59.1265" y2="127.69" gradientUnits="userSpaceOnUse">
<stop stop-color="#09005D"/>
<stop offset="1" stop-color="#1A0F91"/>
</linearGradient>
<linearGradient id="paint19_linear_1568_169949" x1="56.2392" y1="191.526" x2="67.8162" y2="157.81" gradientUnits="userSpaceOnUse">
<stop stop-color="#4F52FF"/>
<stop offset="1" stop-color="#4042E2"/>
</linearGradient>
<linearGradient id="paint20_linear_1568_169949" x1="697.063" y1="5.38437" x2="671.201" y2="10.1331" gradientUnits="userSpaceOnUse">
<stop stop-color="#09005D"/>
<stop offset="1" stop-color="#1A0F91"/>
</linearGradient>
<linearGradient id="paint21_linear_1568_169949" x1="110.39" y1="77.3689" x2="97.7716" y2="96.1776" gradientUnits="userSpaceOnUse">
<stop stop-color="#4F52FF"/>
<stop offset="1" stop-color="#4042E2"/>
</linearGradient>
<linearGradient id="paint22_linear_1568_169949" x1="81.8738" y1="85.3939" x2="84.609" y2="106.535" gradientUnits="userSpaceOnUse">
<stop stop-color="#09005D"/>
<stop offset="1" stop-color="#1A0F91"/>
</linearGradient>
<linearGradient id="paint23_linear_1568_169949" x1="113.421" y1="80.5859" x2="95.5192" y2="105.585" gradientUnits="userSpaceOnUse">
<stop stop-color="#4F52FF"/>
<stop offset="1" stop-color="#4042E2"/>
</linearGradient>
</defs>
</svg>
