<svg width="22" height="23" viewBox="0 0 22 23" fill="none" xmlns="http://www.w3.org/2000/svg">
<path d="M11.9167 14.6759H11V11.0093H10.0833M11 7.34261H11.0092M19.25 11.0093C19.25 12.0927 19.0366 13.1655 18.622 14.1664C18.2074 15.1674 17.5997 16.0768 16.8336 16.8429C16.0675 17.609 15.1581 18.2167 14.1571 18.6313C13.1562 19.0459 12.0834 19.2593 11 19.2593C9.91659 19.2593 8.8438 19.0459 7.84286 18.6313C6.84193 18.2167 5.93245 17.609 5.16637 16.8429C4.40029 16.0768 3.7926 15.1674 3.37799 14.1664C2.96339 13.1655 2.75 12.0927 2.75 11.0093C2.75 8.82124 3.61919 6.72282 5.16637 5.17565C6.71354 3.62847 8.81196 2.75928 11 2.75928C13.188 2.75928 15.2865 3.62847 16.8336 5.17565C18.3808 6.72282 19.25 8.82124 19.25 11.0093Z" stroke="#71717A" stroke-width="1.5" stroke-linecap="round" stroke-linejoin="round"/>
</svg>
