<svg width="32" height="32" viewBox="0 0 32 32" fill="none" xmlns="http://www.w3.org/2000/svg">
<g clip-path="url(#clip0_2606_2650)">
<path d="M15.9974 29.3332C8.6334 29.3332 2.66406 23.3638 2.66406 15.9998C2.66406 8.63584 8.6334 2.6665 15.9974 2.6665C23.3614 2.6665 29.3307 8.63584 29.3307 15.9998C29.3307 23.3638 23.3614 29.3332 15.9974 29.3332ZM15.9974 26.6665C18.8264 26.6665 21.5395 25.5427 23.5399 23.5423C25.5403 21.5419 26.6641 18.8288 26.6641 15.9998C26.6641 13.1709 25.5403 10.4578 23.5399 8.45737C21.5395 6.45698 18.8264 5.33317 15.9974 5.33317C13.1684 5.33317 10.4553 6.45698 8.45492 8.45737C6.45454 10.4578 5.33073 13.1709 5.33073 15.9998C5.33073 18.8288 6.45454 21.5419 8.45492 23.5423C10.4553 25.5427 13.1684 26.6665 15.9974 26.6665ZM14.6641 19.9998H17.3307V22.6665H14.6641V19.9998ZM14.6641 9.33317H17.3307V17.3332H14.6641V9.33317Z" fill="#3B82F6"/>
</g>
<defs>
<clipPath id="clip0_2606_2650">
<rect width="32" height="32" fill="white"/>
</clipPath>
</defs>
</svg>
