<svg width="24" height="24" viewBox="0 0 24 24" fill="none" xmlns="http://www.w3.org/2000/svg">
<g clip-path="url(#clip0_21692_493647)">
<path d="M8.5 15.6624C8.87813 15.6624 9.20194 15.4926 9.47144 15.1531C9.74094 14.8135 9.87546 14.4058 9.875 13.9299C9.875 13.4535 9.74025 13.0455 9.47075 12.7059C9.20125 12.3664 8.87767 12.1969 8.5 12.1975C8.12187 12.1975 7.79806 12.3672 7.52856 12.7068C7.25906 13.0464 7.12454 13.4541 7.125 13.9299C7.125 14.4064 7.25975 14.8144 7.52925 15.1539C7.79875 15.4935 8.12233 15.663 8.5 15.6624ZM8.5 24C8.40833 24 8.31667 23.9783 8.225 23.935C8.13333 23.8917 8.05313 23.834 7.98438 23.7618C6.31146 21.8994 5.0625 20.1703 4.2375 18.5747C3.4125 16.9791 3 15.4886 3 14.1032C3 11.9376 3.55298 10.2123 4.65894 8.92739C5.7649 7.64246 7.04525 7 8.5 7C9.95521 7 11.2358 7.64246 12.3417 8.92739C13.4477 10.2123 14.0005 11.9376 14 14.1032C14 15.4892 13.5875 16.98 12.7625 18.5756C11.9375 20.1712 10.6885 21.8999 9.01562 23.7618C8.94687 23.834 8.86667 23.8917 8.775 23.935C8.68333 23.9783 8.59167 24 8.5 24Z" fill="#595959"/>
</g>
<defs>
<clipPath id="clip0_21692_493647">
<rect width="24" height="24" fill="white"/>
</clipPath>
</defs>
</svg>
