<svg width="45" height="43" viewBox="0 0 45 43" fill="none" xmlns="http://www.w3.org/2000/svg">
<rect width="44.7712" height="42.6008" rx="5" fill="#8338EC"/>
<path d="M21.5429 15.5453C21.7043 15.7068 21.9046 15.7875 22.1438 15.7875H31.4273C31.6664 15.7875 31.8667 15.7068 32.0282 15.5453C32.1902 15.3833 32.2712 15.1827 32.2712 14.9436C32.2712 14.7044 32.1902 14.5039 32.0282 14.3418C31.8667 14.1803 31.6664 14.0996 31.4273 14.0996H22.1438C21.9046 14.0996 21.7043 14.1803 21.5429 14.3418C21.3808 14.5039 21.2998 14.7044 21.2998 14.9436C21.2998 15.1827 21.3808 15.3833 21.5429 15.5453Z" fill="white"/>
<path d="M21.5429 21.9457C21.7043 22.1072 21.9046 22.1879 22.1438 22.1879H31.4273C31.6664 22.1879 31.8667 22.1072 32.0282 21.9457C32.1902 21.7837 32.2712 21.5831 32.2712 21.344C32.2712 21.1048 32.1902 20.9043 32.0282 20.7422C31.8667 20.5807 31.6664 20.5 31.4273 20.5H22.1438C21.9046 20.5 21.7043 20.5807 21.5429 20.7422C21.3808 20.9043 21.2998 21.1048 21.2998 21.344C21.2998 21.5831 21.3808 21.7837 21.5429 21.9457Z" fill="white"/>
<path d="M21.5429 28.3441C21.7043 28.5056 21.9046 28.5863 22.1438 28.5863H31.4273C31.6664 28.5863 31.8667 28.5056 32.0282 28.3441C32.1902 28.1821 32.2712 27.9815 32.2712 27.7424C32.2712 27.5033 32.1902 27.3027 32.0282 27.1407C31.8667 26.9792 31.6664 26.8984 31.4273 26.8984H22.1438C21.9046 26.8984 21.7043 26.9792 21.5429 27.1407C21.3808 27.3027 21.2998 27.5033 21.2998 27.7424C21.2998 27.9815 21.3808 28.1821 21.5429 28.3441Z" fill="white"/>
<rect x="13.25" y="13.25" width="5.7" height="3.3" rx="0.75" stroke="white" stroke-width="1.5"/>
<rect x="13.25" y="19.6504" width="5.7" height="3.3" rx="0.75" stroke="white" stroke-width="1.5"/>
<rect x="13.25" y="26.0508" width="5.7" height="3.3" rx="0.75" stroke="white" stroke-width="1.5"/>
</svg>
