<?xml version="1.0" standalone="no"?>
<!DOCTYPE svg PUBLIC "-//W3C//DTD SVG 20010904//EN"
 "http://www.w3.org/TR/2001/REC-SVG-20010904/DTD/svg10.dtd">
<svg version="1.0" xmlns="http://www.w3.org/2000/svg"
 width="1662.000000pt" height="518.000000pt" viewBox="0 0 1662.000000 518.000000"
 preserveAspectRatio="xMidYMid meet">

<g transform="translate(0.000000,518.000000) scale(0.100000,-0.100000)"
fill="white" stroke="none">
<path d="M6530 3900 c-476 -43 -869 -400 -961 -873 -120 -621 307 -1209 936
-1286 122 -15 1228 -15 1350 0 481 59 863 425 940 900 43 269 -13 543 -157
766 -114 175 -244 290 -433 383 -136 67 -241 97 -389 110 -120 11 -1164 11
-1286 0z m1345 -445 c112 -28 221 -90 305 -174 136 -135 196 -278 194 -466 -1
-128 -28 -227 -91 -334 -52 -87 -171 -197 -264 -244 -147 -74 -129 -72 -839
-72 -575 0 -641 2 -700 18 -346 93 -557 429 -485 772 49 232 252 444 480 499
91 22 1314 23 1400 1z"/>
<path d="M9922 3899 c-146 -19 -263 -78 -372 -188 -203 -204 -248 -505 -113
-764 53 -102 173 -222 273 -271 153 -75 65 -69 1261 -75 l1076 -6 42 -29 c140
-97 128 -298 -22 -379 l-42 -22 -1266 -5 -1266 -5 -41 -29 c-27 -19 -51 -47
-68 -82 -52 -107 -16 -227 86 -284 l45 -25 1245 -3 c1399 -3 1351 -5 1495 67
169 84 284 219 341 400 25 77 29 236 10 325 -49 217 -213 402 -426 478 l-65
23 -1075 5 -1075 5 -48 23 c-79 40 -127 116 -127 204 0 53 48 138 98 173 l44
30 1267 5 1268 5 49 30 c61 37 104 114 104 185 0 71 -43 148 -104 185 l-49 30
-1241 1 c-683 1 -1270 -2 -1304 -7z"/>
<path d="M13733 3899 c-206 -24 -399 -162 -493 -351 -71 -146 -71 -138 -68
-952 l3 -724 30 -44 c89 -125 271 -125 360 0 l30 44 3 364 3 363 1147 4 c1277
3 1178 -2 1332 73 58 28 95 57 160 123 127 128 177 240 187 417 7 127 -12 222
-69 337 -55 110 -170 226 -278 280 -153 76 -74 71 -1235 73 -572 1 -1073 -2
-1112 -7z m2169 -464 c61 -42 101 -122 96 -191 -8 -102 -79 -183 -180 -203
-37 -8 -385 -10 -1133 -9 l-1080 3 -3 120 c-2 66 2 136 7 156 16 55 64 114
112 137 l44 22 1047 -2 1046 -3 44 -30z"/>
<path d="M5602 998 c-17 -17 -16 -219 2 -262 16 -38 83 -76 134 -76 l32 0 2
-181 c3 -199 7 -209 61 -195 l27 6 0 185 0 185 33 0 c42 1 110 32 131 61 13
19 16 49 16 151 l0 128 -25 6 c-49 12 -53 4 -57 -121 -4 -149 -9 -155 -138
-155 -73 0 -92 3 -114 21 -25 20 -26 23 -26 134 0 94 -3 114 -16 119 -25 9
-49 7 -62 -6z"/>
<path d="M6357 996 c-94 -35 -97 -45 -97 -353 0 -238 2 -260 20 -290 34 -57
69 -68 210 -68 112 0 129 2 161 22 19 12 41 34 47 48 8 18 12 109 12 290 0
181 -4 272 -12 290 -23 51 -72 70 -193 73 -75 1 -122 -2 -148 -12z m244 -65
l24 -19 0 -267 0 -267 -24 -19 c-19 -16 -40 -19 -114 -19 -79 0 -94 3 -114 22
-23 21 -23 23 -23 282 0 320 -6 306 136 306 75 0 96 -3 115 -19z"/>
<path d="M6952 998 c-9 -9 -12 -93 -12 -319 0 -299 1 -307 22 -334 42 -53 87
-65 255 -65 140 0 153 2 163 19 6 13 10 145 10 360 l0 341 -27 6 c-58 15 -58
17 -61 -340 l-2 -326 -115 0 c-168 0 -155 -29 -155 343 0 318 -1 327 -45 327
-12 0 -26 -5 -33 -12z"/>
<path d="M7652 998 c-9 -9 -12 -103 -12 -360 l0 -348 27 -6 c55 -14 58 -4 61
200 l2 186 114 0 c162 0 155 9 158 -204 3 -185 7 -196 61 -182 l27 6 0 174 c0
169 -1 175 -24 203 l-24 28 24 28 c21 25 24 38 24 112 0 79 -2 86 -30 118 -16
18 -47 39 -68 45 -54 16 -324 16 -340 0z m328 -68 c16 -16 20 -33 20 -90 0
-104 -9 -110 -155 -110 l-115 0 0 110 0 110 115 0 c102 0 117 -2 135 -20z"/>
<path d="M8815 999 c-17 -4 -44 -22 -60 -39 -28 -29 -30 -38 -33 -113 -5 -143
34 -177 216 -186 105 -6 115 -8 134 -31 17 -21 19 -36 16 -127 -4 -141 2 -137
-195 -143 -134 -4 -157 -7 -167 -22 -8 -13 -8 -23 0 -35 10 -16 31 -18 158
-21 173 -3 213 5 255 53 l31 36 0 140 0 141 -28 28 c-37 37 -88 50 -193 50
-72 0 -91 3 -113 21 -24 19 -26 27 -26 90 0 101 3 103 198 109 l157 5 0 25 0
25 -160 2 c-88 1 -174 -3 -190 -8z"/>
<path d="M9487 996 c-94 -35 -97 -45 -97 -353 0 -238 2 -260 20 -290 34 -57
69 -68 210 -68 112 0 129 2 161 22 19 12 41 34 47 48 8 18 12 109 12 290 0
181 -4 272 -12 290 -23 51 -72 70 -193 73 -75 1 -122 -2 -148 -12z m244 -65
l24 -19 0 -267 0 -267 -24 -19 c-19 -16 -40 -19 -114 -19 -79 0 -94 3 -114 22
-23 21 -23 23 -23 282 0 320 -6 306 136 306 75 0 96 -3 115 -19z"/>
<path d="M10083 1003 c-10 -4 -13 -77 -13 -317 0 -306 0 -314 22 -341 38 -48
90 -65 210 -65 119 0 138 4 138 30 0 26 -19 30 -134 30 -157 0 -146 -25 -146
343 0 222 -3 306 -12 315 -12 12 -43 15 -65 5z"/>
<path d="M10663 1003 c-10 -4 -13 -85 -13 -359 l0 -354 27 -6 c58 -15 58 -19
61 356 2 245 -1 347 -9 356 -11 14 -42 17 -66 7z"/>
<path d="M11002 998 c-9 -9 -12 -101 -12 -353 0 -252 3 -344 12 -353 8 -8 59
-12 163 -12 166 0 212 12 253 65 21 27 22 36 22 300 0 264 -1 273 -22 300 -41
53 -87 65 -253 65 -104 0 -155 -4 -163 -12z m328 -68 c19 -19 20 -33 20 -285
0 -328 12 -305 -155 -305 l-115 0 0 305 0 305 115 0 c102 0 117 -2 135 -20z"/>
<path d="M12103 999 c-10 -10 -13 -96 -13 -361 l0 -348 27 -6 c58 -15 58 -17
61 340 l2 326 115 0 c146 0 155 -6 155 -110 0 -97 -15 -110 -126 -110 -95 0
-114 -5 -114 -31 0 -26 33 -32 143 -27 149 6 187 41 187 168 0 84 -12 114 -59
143 -33 20 -51 22 -201 25 -124 3 -168 0 -177 -9z"/>
<path d="M12842 997 c-18 -5 -46 -25 -62 -44 l-30 -34 0 -307 c0 -324 1 -332
45 -332 42 0 45 15 45 207 l0 183 135 0 135 0 2 -186 c3 -204 6 -214 61 -200
l27 6 0 315 0 314 -31 35 c-17 20 -47 40 -67 46 -47 13 -217 11 -260 -3z m246
-67 c19 -18 22 -31 22 -110 l0 -90 -135 0 -135 0 0 90 c0 123 7 130 133 130
80 0 96 -3 115 -20z"/>
<path d="M13452 998 c-9 -9 -12 -103 -12 -360 l0 -348 27 -6 c55 -14 58 -4 61
200 l2 186 114 0 c162 0 155 9 158 -204 3 -185 7 -196 61 -182 l27 6 0 174 c0
169 -1 175 -24 203 l-24 28 24 28 c21 25 24 38 24 112 0 79 -2 86 -30 118 -16
18 -47 39 -68 45 -54 16 -324 16 -340 0z m328 -68 c16 -16 20 -33 20 -90 0
-104 -9 -110 -155 -110 l-115 0 0 110 0 110 115 0 c102 0 117 -2 135 -20z"/>
<path d="M14080 995 c-10 -12 -10 -18 0 -30 9 -11 33 -15 91 -15 l79 0 2 -326
c3 -357 3 -355 61 -340 l27 6 0 330 0 329 88 3 c85 3 87 3 87 28 l0 25 -211 3
c-179 2 -213 0 -224 -13z"/>
<path d="M14722 998 c-9 -9 -12 -103 -12 -360 l0 -348 27 -6 c58 -15 58 -17
61 340 l2 326 113 0 c82 0 119 -4 133 -14 18 -14 19 -32 24 -327 5 -341 5
-340 63 -325 l27 6 0 314 c0 306 0 314 -22 341 -41 53 -87 65 -253 65 -104 0
-155 -4 -163 -12z"/>
<path d="M15410 991 c-6 -12 -10 -132 -10 -320 l0 -300 31 -35 c39 -45 79 -56
206 -56 114 0 133 4 133 30 0 26 -19 30 -134 30 -94 0 -104 2 -124 23 -20 22
-22 33 -22 165 l0 142 124 0 c137 0 156 4 156 30 0 26 -19 30 -156 30 l-124 0
0 110 0 110 124 0 c137 0 156 4 156 30 0 10 -7 21 -16 24 -9 3 -87 6 -174 6
-147 0 -160 -1 -170 -19z"/>
<path d="M15992 998 c-9 -9 -12 -103 -12 -360 l0 -348 27 -6 c55 -14 58 -4 61
200 l2 186 114 0 c162 0 155 9 158 -204 3 -185 7 -196 61 -182 l27 6 0 174 c0
169 -1 175 -24 203 l-24 28 24 28 c21 25 24 38 24 112 0 79 -2 86 -30 118 -16
18 -47 39 -68 45 -54 16 -324 16 -340 0z m328 -68 c16 -16 20 -33 20 -90 0
-104 -9 -110 -155 -110 l-115 0 0 110 0 110 115 0 c102 0 117 -2 135 -20z"/>
</g>
</svg>
