<svg width="24" height="24" viewBox="0 0 24 24" fill="none" xmlns="http://www.w3.org/2000/svg">
<path d="M5.33296 3.27193C5.99999 3.03392 6.72354 3.00386 7.40802 3.18574C8.0925 3.36761 8.7057 3.75286 9.16661 4.29059C9.62752 4.82832 9.91445 5.49322 9.9895 6.19746C10.0646 6.9017 9.92419 7.61215 9.58696 8.23493L20.296 18.9449L18.882 20.3589L8.17196 9.64893C7.54903 9.98484 6.83895 10.1241 6.13529 10.0484C5.43163 9.97275 4.76741 9.68564 4.23017 9.22494C3.69293 8.76425 3.30787 8.15159 3.12575 7.4677C2.94363 6.78382 2.97299 6.0608 3.20996 5.39393L5.44696 7.63093C5.58533 7.7742 5.75084 7.88847 5.93385 7.96708C6.11686 8.0457 6.31369 8.08708 6.51286 8.08881C6.71202 8.09054 6.90954 8.05259 7.09389 7.97717C7.27823 7.90174 7.44571 7.79036 7.58655 7.64953C7.72739 7.50869 7.83877 7.34121 7.91419 7.15686C7.98961 6.97252 8.02756 6.775 8.02583 6.57583C8.0241 6.37666 7.98272 6.17983 7.90411 5.99683C7.8255 5.81382 7.71122 5.6483 7.56796 5.50993L5.33196 3.27093L5.33296 3.27193ZM15.7 5.15593L18.882 3.38793L20.296 4.80193L18.528 7.98393L16.76 8.33793L14.64 10.4589L13.225 9.04493L15.346 6.92393L15.7 5.15593ZM8.98196 13.2879L10.396 14.7019L5.09296 20.0049C4.91266 20.1857 4.67002 20.2907 4.41479 20.2984C4.15956 20.306 3.91107 20.2157 3.72027 20.046C3.52948 19.8763 3.41082 19.6401 3.38864 19.3857C3.36645 19.1313 3.44242 18.8781 3.60096 18.6779L3.67896 18.5909L8.98196 13.2879Z" fill="#6B7280"/>
</svg>
