<svg width="16" height="17" viewBox="0 0 16 17" fill="none" xmlns="http://www.w3.org/2000/svg">
<path d="M5.67914 0.5H10.3057H10.3934C10.6942 0.573416 10.9877 0.673712 11.2705 0.799673C11.7066 1.02899 12.0686 1.37739 12.3145 1.80438C12.5603 2.23136 12.6799 2.71938 12.6592 3.21165C12.6592 4.67346 12.6592 6.13527 12.6592 7.59707V7.80904H13.2732C13.6335 7.80309 13.9912 7.86977 14.3252 8.00513C14.6591 8.14049 14.9624 8.34174 15.2169 8.59687C15.4713 8.852 15.6717 9.15579 15.8062 9.49009C15.9406 9.82439 16.0064 10.1824 15.9995 10.5426C15.9995 11.639 15.9995 12.7353 15.9995 13.8244C15.9976 14.5275 15.7174 15.2012 15.2202 15.6983C14.7231 16.1955 14.0494 16.4756 13.3463 16.4776H2.6605C2.10143 16.4774 1.55647 16.3017 1.10269 15.9751C0.648912 15.6486 0.30919 15.1877 0.131513 14.6576C0.0730405 14.4895 0.0438543 14.3068 0 14.1314V10.1626C0 10.1187 0 10.0749 0 10.031C0.103782 9.44804 0.398549 8.91617 0.837881 8.51918C1.27721 8.12219 1.8361 7.88265 2.42656 7.83829C2.71162 7.83829 2.99671 7.83829 3.29639 7.83829V3.22628C3.28522 2.65753 3.45563 2.10003 3.78291 1.63474C4.11019 1.16946 4.57728 0.820612 5.11633 0.638874C5.31367 0.580401 5.49641 0.543854 5.67914 0.5ZM11.3144 7.80904C11.3144 7.75057 11.3144 7.71402 11.3144 7.67017V3.21896C11.317 3.09853 11.3047 2.97825 11.2778 2.86083C11.2151 2.56374 11.051 2.29769 10.8137 2.10833C10.5763 1.91897 10.2805 1.81808 9.97686 1.82293H5.99338C5.9156 1.81545 5.83731 1.81545 5.75953 1.82293C5.43503 1.87986 5.14298 2.05456 4.93931 2.31352C4.73565 2.57248 4.6347 2.89751 4.65586 3.22628C4.65586 4.68809 4.65586 6.1499 4.65586 7.61171C4.65221 7.66768 4.65221 7.72382 4.65586 7.7798L11.3144 7.80904ZM7.31636 9.1539H2.71894C2.53343 9.14437 2.34799 9.17401 2.17469 9.2409C2.00139 9.30778 1.84415 9.41042 1.71315 9.54211C1.58214 9.6738 1.48032 9.83159 1.41434 10.0052C1.34837 10.1789 1.3197 10.3645 1.33021 10.5499V13.7586C1.3231 13.851 1.3231 13.9439 1.33021 14.0363C1.37971 14.3513 1.5419 14.6375 1.78658 14.8418C2.03125 15.0462 2.34181 15.1547 2.6605 15.1473H7.16281H7.30173L7.31636 9.1539ZM8.66851 15.1473H13.2805C13.4635 15.1546 13.646 15.1238 13.8165 15.0568C13.987 14.9899 14.1418 14.8882 14.2709 14.7584C14.4001 14.6285 14.5009 14.4733 14.567 14.3024C14.633 14.1316 14.6628 13.9489 14.6546 13.7659V10.5353C14.6657 10.4455 14.6657 10.3547 14.6546 10.2649C14.6041 9.9395 14.4335 9.6449 14.1764 9.43921C13.9193 9.23353 13.5944 9.13172 13.2659 9.1539H8.69046L8.66851 15.1473Z" fill="#828282"/>
<path d="M7.99527 4.49797H7.33744C7.24888 4.50089 7.16066 4.48608 7.07789 4.45443C6.99513 4.42277 6.91956 4.37492 6.85555 4.31364C6.79155 4.25236 6.74044 4.17889 6.70521 4.09759C6.66999 4.01628 6.65136 3.92876 6.65043 3.84016C6.64847 3.66306 6.71642 3.49232 6.83958 3.36505C6.96275 3.23778 7.1312 3.16424 7.30826 3.1604H8.68237C8.85815 3.168 9.02393 3.24421 9.14418 3.37266C9.26442 3.5011 9.32956 3.67155 9.32557 3.84745C9.32367 3.9348 9.30455 4.02094 9.26936 4.10091C9.23416 4.18088 9.18357 4.25314 9.12045 4.31355C9.05732 4.37396 8.98294 4.42133 8.9015 4.45298C8.82006 4.48462 8.73314 4.49991 8.64579 4.49797H7.99527Z" fill="#828282"/>
<path d="M4.32716 10.4989H4.97036C5.05796 10.495 5.14551 10.5086 5.22776 10.539C5.31002 10.5694 5.38529 10.6159 5.4493 10.6758C5.51331 10.7358 5.56471 10.8079 5.60044 10.8879C5.63618 10.968 5.6556 11.0544 5.65746 11.1421C5.66138 11.2294 5.64805 11.3167 5.6182 11.3989C5.58835 11.4811 5.54254 11.5566 5.48347 11.6211C5.42441 11.6856 5.35325 11.7379 5.27398 11.7748C5.19472 11.8117 5.10895 11.8327 5.02157 11.8365C4.55379 11.8365 4.0933 11.8365 3.62552 11.8365C3.53484 11.8329 3.44585 11.8109 3.36401 11.7716C3.28217 11.7324 3.20927 11.6768 3.1497 11.6084C3.09014 11.5399 3.04517 11.46 3.01765 11.3735C2.99013 11.287 2.98059 11.1958 2.98964 11.1055C2.9991 10.9317 3.07638 10.7685 3.20484 10.651C3.3333 10.5334 3.50273 10.471 3.67673 10.477L4.32716 10.4989Z" fill="#828282"/>
<path d="M11.6587 10.4987H12.3165C12.4898 10.4948 12.6576 10.5593 12.7835 10.6784C12.9094 10.7975 12.9833 10.9614 12.989 11.1346C12.9992 11.2257 12.9902 11.3179 12.9627 11.4054C12.9351 11.4928 12.8896 11.5735 12.829 11.6424C12.7685 11.7112 12.6942 11.7666 12.611 11.805C12.5277 11.8434 12.4375 11.864 12.3458 11.8655C11.8926 11.8655 11.4322 11.8655 10.9717 11.8655C10.8847 11.8636 10.7989 11.8445 10.7193 11.8092C10.6397 11.7739 10.5679 11.7232 10.5081 11.66C10.4483 11.5967 10.4016 11.5223 10.3708 11.4409C10.34 11.3595 10.3256 11.2728 10.3285 11.1858C10.3295 11.0984 10.3475 11.0121 10.3819 10.9318C10.4162 10.8515 10.466 10.7787 10.5284 10.7176C10.5909 10.6565 10.6647 10.6083 10.7458 10.5758C10.8269 10.5432 10.9135 10.527 11.0009 10.5279L11.6587 10.4987Z" fill="#828282"/>
</svg>
