<svg width="125" height="125" viewBox="0 0 125 125" fill="none" xmlns="http://www.w3.org/2000/svg">
<g filter="url(#filter0_d_90_5248)">
<circle cx="62.5" cy="62.5" r="37.5" fill="#0A7CFF"/>
</g>
<path d="M41 61.8539C41 49.8672 50.3887 41 62.5007 41C74.6128 41 83.9996 49.869 83.9996 61.8539C83.9996 73.8387 74.611 82.706 62.4989 82.706C60.331 82.706 58.2346 82.4193 56.2817 81.8818C55.9005 81.7792 55.4956 81.8108 55.1349 81.9714L50.8527 83.8527C50.5946 83.9676 50.3121 84.0171 50.0303 83.9969C49.7484 83.9767 49.4759 83.8874 49.2368 83.7369C48.9977 83.5863 48.7993 83.3792 48.6593 83.1337C48.5193 82.8883 48.4419 82.6122 48.4339 82.3297L48.3085 78.4954C48.2988 78.2644 48.243 78.0377 48.1446 77.8285C48.0461 77.6193 47.9069 77.4318 47.7351 77.2771C45.5808 75.333 43.8658 72.9519 42.7047 70.2927C41.5437 67.6334 40.9631 64.7571 41.0018 61.8557L41 61.8539ZM55.9072 57.93L49.6003 67.9637C48.9732 68.9133 50.1737 70.0045 51.0695 69.3075L57.8602 64.1652C58.326 63.8069 58.9352 63.8069 59.419 64.1652L64.4358 67.9278C65.9408 69.0566 68.0909 68.6445 69.0943 67.0678L75.4012 57.0342C76.0283 56.0845 74.8278 55.0095 73.9319 55.6904L67.1413 60.8326C66.6934 61.191 66.0663 61.191 65.6004 60.8326L60.5836 57.07C60.2268 56.8005 59.8179 56.6081 59.3828 56.505C58.9477 56.402 58.496 56.3905 58.0562 56.4714C57.6165 56.5523 57.1983 56.7237 56.8284 56.9748C56.4584 57.2259 56.1447 57.5512 55.9072 57.93Z" fill="white"/>
<defs>
<filter id="filter0_d_90_5248" x="0" y="0" width="125" height="125" filterUnits="userSpaceOnUse" color-interpolation-filters="sRGB">
<feFlood flood-opacity="0" result="BackgroundImageFix"/>
<feColorMatrix in="SourceAlpha" type="matrix" values="0 0 0 0 0 0 0 0 0 0 0 0 0 0 0 0 0 0 127 0" result="hardAlpha"/>
<feOffset/>
<feGaussianBlur stdDeviation="12.5"/>
<feComposite in2="hardAlpha" operator="out"/>
<feColorMatrix type="matrix" values="0 0 0 0 0.011875 0 0 0 0 0.111374 0 0 0 0 0.2375 0 0 0 0.15 0"/>
<feBlend mode="normal" in2="BackgroundImageFix" result="effect1_dropShadow_90_5248"/>
<feBlend mode="normal" in="SourceGraphic" in2="effect1_dropShadow_90_5248" result="shape"/>
</filter>
</defs>
</svg>
