<svg width="24" height="25" viewBox="0 0 24 25" fill="none" xmlns="http://www.w3.org/2000/svg">
<path d="M10.6429 0C11.0597 0.0767839 11.4875 0.13162 11.9043 0.230342C13.0328 0.499605 14.0883 1.01351 14.9962 1.73568C15.9042 2.45786 16.6423 3.37065 17.1586 4.40957C17.2497 4.6072 17.3869 4.7801 17.5587 4.91371C17.7305 5.04732 17.9317 5.13775 18.1457 5.17743C19.602 5.45856 20.934 6.18821 21.9549 7.26416C22.9758 8.34012 23.6345 9.70848 23.8387 11.1775C24.1125 12.4476 24.0366 13.7681 23.6194 14.9986C23.2022 16.229 22.4592 17.3232 21.4694 18.1649C20.8682 18.7012 20.1777 19.1282 19.4291 19.4263C19.3077 19.4825 19.1763 19.5138 19.0426 19.5182C18.9089 19.5226 18.7756 19.5001 18.6508 19.452C18.5259 19.4039 18.4121 19.3312 18.3159 19.2382C18.2197 19.1453 18.1432 19.0339 18.0909 18.9108C18.034 18.7876 18.003 18.6539 18 18.5183C17.997 18.3826 18.0221 18.2477 18.0735 18.1221C18.125 17.9966 18.2018 17.8829 18.2991 17.7884C18.3965 17.6938 18.5124 17.6203 18.6394 17.5725C19.3316 17.2995 19.9571 16.8811 20.4737 16.3456C20.9903 15.81 21.386 15.1699 21.6339 14.4683C22.0941 13.2304 22.0996 11.8694 21.6496 10.6278C21.1996 9.38628 20.3233 8.3449 19.1769 7.68936C18.6933 7.44157 18.1812 7.2537 17.6521 7.12993C17.1781 7.03228 16.7332 6.82589 16.3525 6.52704C15.9718 6.2282 15.6657 5.84505 15.4583 5.40777C14.8309 4.07957 13.7325 3.03187 12.3761 2.46805C11.5536 2.12221 10.6642 1.96415 9.77291 2.00539C8.88162 2.04663 8.01075 2.28611 7.22371 2.70643C6.43667 3.12674 5.75335 3.7173 5.22337 4.43508C4.69339 5.15286 4.33009 5.97981 4.16007 6.8557C4.0176 7.66485 4.0176 8.49268 4.16007 9.30183C4.22984 9.77179 4.1811 10.2517 4.01827 10.698C3.85544 11.1444 3.58372 11.543 3.22772 11.8576C2.66849 12.3655 2.28449 13.0375 2.13081 13.7772C1.97762 14.4404 2.02639 15.1343 2.27073 15.7696C2.51508 16.4049 2.94383 16.9526 3.50195 17.3422C3.65895 17.4377 3.78942 17.5711 3.88142 17.7302C3.97342 17.8893 4.02397 18.0689 4.02844 18.2526C4.03306 18.4338 3.98604 18.6125 3.8928 18.7679C3.79956 18.9233 3.66398 19.049 3.50195 19.1301C3.33411 19.232 3.13917 19.2803 2.94318 19.2686C2.74719 19.2568 2.55948 19.1856 2.40504 19.0643C1.24016 18.2808 0.428969 17.0718 0.145466 15.6968C-0.0741324 14.7722 -0.0446568 13.8059 0.230895 12.8963C0.506447 11.9868 1.01815 11.1667 1.71398 10.5194C1.88151 10.367 2.00621 10.1734 2.07551 9.95784C2.1448 9.74226 2.15624 9.51227 2.10885 9.29085C1.91748 8.22298 1.95144 7.12691 2.20834 6.07289C2.46523 5.01886 2.93951 4.03012 3.60077 3.17006C4.25134 2.28519 5.08269 1.54883 6.03963 1.00984C6.99657 0.470856 8.05714 0.141596 9.15107 0.0438859H9.32662L10.6429 0Z" fill="white"/>
<path d="M9.60076 20.0187H7.94442C7.67995 20.0191 7.41816 19.9655 7.17516 19.8612C6.93215 19.7568 6.71303 19.6039 6.53123 19.4118C6.34943 19.2198 6.20874 18.9926 6.11788 18.7442C6.02702 18.4958 5.98792 18.2315 6.00286 17.9675C6.01549 17.7797 6.05615 17.5948 6.1235 17.419C6.80359 15.4226 7.48733 13.4336 8.17472 11.4518C8.30295 11.0114 8.5767 10.6273 8.95121 10.3624C9.32572 10.0974 9.77889 9.96719 10.2369 9.99291H11.9482C12.2778 9.98397 12.6045 10.0564 12.8995 10.2038C13.1945 10.3511 13.4486 10.5689 13.6395 10.8378C13.8303 11.1067 13.9521 11.4185 13.9938 11.7456C14.0355 12.0727 13.996 12.4051 13.8787 12.7133C13.7361 13.1301 13.5825 13.536 13.429 13.9857H15.0524C15.4105 13.9691 15.7656 14.058 16.0736 14.2413C16.3817 14.4245 16.6291 14.6942 16.7855 15.0168C16.9587 15.3298 17.0365 15.6867 17.0092 16.0434C16.9819 16.4002 16.8507 16.7411 16.6319 17.0241C15.9518 18.0333 15.2717 19.0315 14.5807 20.0297C13.8896 21.0279 13.1547 22.1357 12.3868 23.1778C12.2221 23.421 12.0025 23.622 11.7458 23.7648C11.4892 23.9075 11.2026 23.988 10.9091 23.9998C10.6156 24.0115 10.3236 23.9542 10.0563 23.8324C9.78903 23.7105 9.55399 23.5277 9.37032 23.2985C9.16926 23.0677 9.03298 22.7878 8.97518 22.4872C8.91738 22.1867 8.9402 21.8762 9.04133 21.5873C9.24974 21.0827 9.42526 20.5672 9.60076 20.0187ZM8.03212 18.0333H8.36125H10.917C11.0914 18.0158 11.2673 18.0446 11.427 18.1167C11.5868 18.1888 11.7247 18.3016 11.827 18.4439C11.9293 18.5862 11.9924 18.753 12.0098 18.9273C12.0272 19.1017 11.9983 19.2776 11.9262 19.4373C11.7617 19.92 11.608 20.4026 11.4435 20.8853C11.4435 20.9511 11.4435 21.0279 11.4435 21.1046L14.9208 16.004H12.1236C11.9455 16.0259 11.7647 15.9994 11.6004 15.9272C11.4361 15.8551 11.2943 15.74 11.1899 15.5941C11.0855 15.4481 11.0225 15.2767 11.0073 15.0979C10.992 14.9191 11.0253 14.7395 11.1035 14.578L11.8056 12.5707C11.8714 12.4061 11.9262 12.2416 12.0029 12.0113H10.3138C10.1492 12.0113 10.0944 12.0661 10.0396 12.2196C9.55691 13.6347 9.07419 15.0497 8.58058 16.4537L8.03212 18.0333Z" fill="white"/>
</svg>
