<svg width="16" height="16" viewBox="0 0 16 16" fill="none" xmlns="http://www.w3.org/2000/svg">
<path fill-rule="evenodd" clip-rule="evenodd" d="M14.6667 8.00001C14.6667 7.67784 14.3953 7.41668 14.0606 7.41668H1.93941C1.6047 7.41668 1.33335 7.67784 1.33335 8.00001C1.33335 8.32218 1.6047 8.58334 1.93941 8.58334H14.0606C14.3953 8.58334 14.6667 8.32218 14.6667 8.00001Z" fill="#BFBFBF"/>
<path fill-rule="evenodd" clip-rule="evenodd" d="M9.38965 3.5042C9.15297 3.732 9.15297 4.10135 9.38965 4.32916L13.2035 8.00001L9.38965 11.6709C9.15297 11.8987 9.15297 12.268 9.38965 12.4958C9.62633 12.7236 10.0101 12.7236 10.2468 12.4958L14.4892 8.41249C14.7259 8.18468 14.7259 7.81534 14.4892 7.58753L10.2468 3.5042C10.0101 3.27639 9.62633 3.27639 9.38965 3.5042Z" fill="#BFBFBF"/>
</svg>
