<svg width="57" height="68" viewBox="0 0 57 68" fill="none" xmlns="http://www.w3.org/2000/svg">
<path d="M18.3973 39.6751C15.177 31.878 14.6001 23.2405 16.755 15.0844C18.2124 9.55174 20.8598 4.4038 24.5123 0C23.4833 0.315821 22.4661 0.67902 21.4607 1.08959C12.9799 4.56201 6.22588 11.2612 2.68441 19.7134C-0.857053 28.1656 -0.895843 37.6785 2.57658 46.1593C6.049 54.6401 12.7482 61.3941 21.2004 64.9356C29.6526 68.4771 39.1655 68.5159 47.6463 65.0434C48.649 64.6329 49.6281 64.1776 50.5834 63.6775C44.8922 63.1028 39.3951 61.292 34.4765 58.3717C27.2173 54.0645 21.5694 47.4972 18.3973 39.6751Z" fill="#E7C229"/>
<path d="M36.178 36.509L34.6423 42.2411L40.1257 39.9751L45.0999 43.2083L44.638 37.2906L49.249 33.556L43.4813 32.1664L41.3535 26.6277L38.2506 31.6848L32.325 31.9967L36.178 36.509Z" fill="#44C2E4"/>
<path d="M52.3522 13.4579L50.0823 10.4063L49.0401 14.0659L45.4397 15.2818L48.594 17.4017L48.6374 21.2034L51.6298 18.8545L55.2578 19.9915L53.9511 16.4188L56.15 13.3198L52.3522 13.4579Z" fill="#44C2E4"/>
</svg>
