<svg width="35" height="36" viewBox="0 0 35 36" fill="none" xmlns="http://www.w3.org/2000/svg">
<path d="M16.0265 31.3732C12.9198 31.3732 9.81315 30.8799 6.86648 29.8932C5.74647 29.5065 4.89314 28.7199 4.51981 27.6932C4.13314 26.6665 4.26647 25.5332 4.87981 24.5199L6.41314 21.9732C6.73314 21.4399 7.02648 20.3732 7.02648 19.7465V15.8932C7.02648 10.9332 11.0665 6.89319 16.0265 6.89319C20.9865 6.89319 25.0265 10.9332 25.0265 15.8932V19.7465C25.0265 20.3598 25.3199 21.4399 25.6399 21.9865L27.1599 24.5199C27.7332 25.4799 27.8399 26.6399 27.4532 27.6932C27.0665 28.7465 26.2265 29.5465 25.1732 29.8932C22.2399 30.8799 19.1332 31.3732 16.0265 31.3732ZM16.0265 8.89319C12.1732 8.89319 9.02648 12.0265 9.02648 15.8932V19.7465C9.02648 20.7199 8.62648 22.1599 8.13314 22.9999L6.59981 25.5465C6.30648 26.0399 6.22647 26.5599 6.39981 26.9999C6.55981 27.4532 6.95981 27.7999 7.50648 27.9865C13.0798 29.8532 18.9865 29.8532 24.5599 27.9865C25.0399 27.8265 25.4132 27.4665 25.5865 26.9865C25.7599 26.5065 25.7199 25.9865 25.4532 25.5465L23.9199 22.9999C23.4132 22.1332 23.0265 20.7065 23.0265 19.7332V15.8932C23.0265 12.0265 19.8932 8.89319 16.0265 8.89319Z" fill="#F0F0F0"/>
<path d="M18.5061 9.25288C18.4128 9.25288 18.3195 9.23955 18.2261 9.21288C17.8395 9.10621 17.4661 9.02621 17.1061 8.97288C15.9728 8.82621 14.8795 8.90621 13.8528 9.21288C13.4795 9.33288 13.0795 9.21288 12.8262 8.93288C12.5728 8.65288 12.4928 8.25288 12.6395 7.89288C13.1862 6.49288 14.5195 5.57288 16.0395 5.57288C17.5595 5.57288 18.8928 6.47954 19.4395 7.89288C19.5728 8.25288 19.5061 8.65288 19.2528 8.93288C19.0528 9.14621 18.7728 9.25288 18.5061 9.25288Z" fill="white"/>
<path d="M16.026 34.4128C14.706 34.4128 13.426 33.8795 12.4927 32.9462C11.5594 32.0128 11.0261 30.7328 11.0261 29.4128H13.0261C13.0261 30.1995 13.346 30.9728 13.906 31.5328C14.466 32.0928 15.2394 32.4128 16.026 32.4128C17.6794 32.4128 19.026 31.0662 19.026 29.4128H21.026C21.026 32.1728 18.786 34.4128 16.026 34.4128Z" fill="#F0F0F0"/>
<rect x="16.0001" width="18.6667" height="18.6667" rx="9.33335" fill="#FC0A0A"/>
<path d="M25.3903 13.9527C24.9414 13.9499 24.5082 13.8746 24.0905 13.7268C23.6758 13.5791 23.3036 13.3391 22.9741 13.0067C22.6445 12.6743 22.3832 12.2339 22.19 11.6856C21.9996 11.1374 21.9045 10.4641 21.9045 9.66576C21.9073 8.93281 21.9911 8.27798 22.1559 7.70127C22.3235 7.12173 22.5621 6.63025 22.8718 6.22684C23.1843 5.82343 23.5579 5.51661 23.9925 5.30638C24.4272 5.09332 24.9144 4.98678 25.4542 4.98678C26.0366 4.98678 26.5508 5.10042 26.9968 5.32769C27.4428 5.55212 27.8008 5.85752 28.0707 6.24389C28.3434 6.63025 28.5082 7.06349 28.565 7.5436H26.7454C26.6743 7.23962 26.5252 7.00099 26.2979 6.82769C26.0707 6.6544 25.7894 6.56775 25.4542 6.56775C24.886 6.56775 24.4542 6.81491 24.1587 7.30923C23.8661 7.80354 23.717 8.47542 23.7113 9.32485H23.7709C23.9016 9.06633 24.0778 8.84616 24.2993 8.66434C24.5238 8.47968 24.778 8.33906 25.0621 8.24246C25.3491 8.14303 25.6516 8.09332 25.9698 8.09332C26.4868 8.09332 26.9471 8.21548 27.3505 8.45979C27.7539 8.70127 28.0721 9.03366 28.305 9.45695C28.538 9.88025 28.6545 10.3646 28.6545 10.9101C28.6545 11.501 28.5167 12.0266 28.2411 12.4868C27.9684 12.947 27.5863 13.3078 27.0948 13.5692C26.6062 13.8277 26.038 13.9555 25.3903 13.9527ZM25.3817 12.5038C25.6658 12.5038 25.9201 12.4356 26.1445 12.2993C26.3689 12.1629 26.5451 11.9783 26.6729 11.7453C26.8008 11.5124 26.8647 11.251 26.8647 10.9612C26.8647 10.6714 26.8008 10.4115 26.6729 10.1814C26.5479 9.95127 26.3746 9.76803 26.153 9.63167C25.9314 9.49531 25.6786 9.42712 25.3945 9.42712C25.1814 9.42712 24.984 9.4669 24.8022 9.54644C24.6232 9.62599 24.4655 9.73678 24.3292 9.87883C24.1957 10.0209 24.0905 10.1856 24.0138 10.3731C23.9371 10.5578 23.8988 10.7552 23.8988 10.9655C23.8988 11.2467 23.9627 11.5038 24.0905 11.7368C24.2212 11.9697 24.3974 12.1558 24.6189 12.295C24.8434 12.4342 25.0976 12.5038 25.3817 12.5038Z" fill="white"/>
</svg>
