<svg width="32" height="32" viewBox="0 0 32 32" fill="none" xmlns="http://www.w3.org/2000/svg">
<path d="M16.0266 27.3733C12.9199 27.3733 9.81321 26.88 6.86654 25.8933C5.74654 25.5067 4.8932 24.72 4.51987 23.6933C4.1332 22.6666 4.26653 21.5333 4.87987 20.52L6.4132 17.9733C6.7332 17.44 7.02654 16.3733 7.02654 15.7466V11.8933C7.02654 6.93332 11.0665 2.89331 16.0266 2.89331C20.9866 2.89331 25.0266 6.93332 25.0266 11.8933V15.7466C25.0266 16.36 25.3199 17.44 25.6399 17.9866L27.1599 20.52C27.7333 21.48 27.8399 22.64 27.4533 23.6933C27.0666 24.7467 26.2266 25.5467 25.1733 25.8933C22.2399 26.88 19.1333 27.3733 16.0266 27.3733ZM16.0266 4.89331C12.1732 4.89331 9.02654 8.02665 9.02654 11.8933V15.7466C9.02654 16.72 8.62654 18.16 8.13321 19L6.59987 21.5466C6.30654 22.04 6.22654 22.56 6.39987 23C6.55987 23.4533 6.95987 23.8 7.50654 23.9867C13.0799 25.8533 18.9866 25.8533 24.5599 23.9867C25.0399 23.8267 25.4133 23.4667 25.5866 22.9866C25.7599 22.5066 25.7199 21.9866 25.4533 21.5466L23.9199 19C23.4133 18.1333 23.0266 16.7066 23.0266 15.7333V11.8933C23.0266 8.02665 19.8933 4.89331 16.0266 4.89331Z" fill="#262626"/>
<path d="M18.5061 5.253C18.4128 5.253 18.3195 5.23967 18.2261 5.213C17.8395 5.10634 17.4661 5.02634 17.1061 4.973C15.9728 4.82634 14.8795 4.90634 13.8528 5.213C13.4795 5.333 13.0795 5.213 12.8262 4.933C12.5728 4.653 12.4928 4.253 12.6395 3.893C13.1862 2.493 14.5195 1.573 16.0395 1.573C17.5595 1.573 18.8928 2.47967 19.4395 3.893C19.5728 4.253 19.5061 4.653 19.2528 4.933C19.0528 5.14634 18.7728 5.253 18.5061 5.253Z" fill="#262626"/>
<path d="M16.026 30.4128C14.706 30.4128 13.426 29.8795 12.4927 28.9462C11.5593 28.0128 11.026 26.7328 11.026 25.4128H13.026C13.026 26.1995 13.346 26.9728 13.906 27.5328C14.466 28.0928 15.2393 28.4128 16.026 28.4128C17.6793 28.4128 19.026 27.0662 19.026 25.4128H21.026C21.026 28.1728 18.786 30.4128 16.026 30.4128Z" fill="#262626"/>
</svg>
