<svg width="18" height="18" viewBox="0 0 18 18" fill="none" xmlns="http://www.w3.org/2000/svg">
<path d="M1 2.77832H4.55556M17 2.77832H8.11111M1 9.00054H11.6667M17 9.00054H15.2222M1 15.2228H2.77778M17 15.2228H6.33333" stroke="white" stroke-width="1.5" stroke-linecap="round"/>
<path d="M6.3332 4.55556C7.31504 4.55556 8.11098 3.75962 8.11098 2.77778C8.11098 1.79594 7.31504 1 6.3332 1C5.35136 1 4.55542 1.79594 4.55542 2.77778C4.55542 3.75962 5.35136 4.55556 6.3332 4.55556Z" stroke="white" stroke-width="1.5" stroke-linecap="round"/>
<path d="M13.4445 10.7772C14.4264 10.7772 15.2223 9.9813 15.2223 8.99946C15.2223 8.01762 14.4264 7.22168 13.4445 7.22168C12.4627 7.22168 11.6667 8.01762 11.6667 8.99946C11.6667 9.9813 12.4627 10.7772 13.4445 10.7772Z" stroke="white" stroke-width="1.5" stroke-linecap="round"/>
<path d="M4.55561 16.9999C5.53745 16.9999 6.33339 16.204 6.33339 15.2221C6.33339 14.2403 5.53745 13.4443 4.55561 13.4443C3.57377 13.4443 2.77783 14.2403 2.77783 15.2221C2.77783 16.204 3.57377 16.9999 4.55561 16.9999Z" stroke="white" stroke-width="1.5" stroke-linecap="round"/>
</svg>
