<svg width="26" height="26" viewBox="0 0 26 26" fill="none" xmlns="http://www.w3.org/2000/svg">
<rect width="26" height="26" rx="10" fill="white" fill-opacity="0.2"/>
<path d="M12.65 7C9.53435 7 7 9.53435 7 12.65C7 15.7656 9.53435 18.3 12.65 18.3C15.7656 18.3 18.3 15.7656 18.3 12.65C18.3 9.53435 15.7656 7 12.65 7ZM16.3863 9.60498C17.0586 10.4267 17.4661 11.4725 17.4756 12.612C17.3167 12.578 15.7208 12.2548 14.1155 12.4571C14.0815 12.3743 14.0476 12.2914 14.0122 12.2086C13.9117 11.9736 13.8044 11.7387 13.6917 11.5091C15.475 10.7798 16.2845 9.74351 16.3863 9.60498ZM12.65 7.8312C13.8764 7.8312 14.9969 8.29162 15.8485 9.04677C15.7616 9.17036 15.035 10.1469 13.3196 10.7907C12.5291 9.33742 11.6531 8.14494 11.5186 7.96566C11.8894 7.87602 12.2684 7.8312 12.65 7.8312ZM10.5978 8.29026C10.7255 8.46411 11.5879 9.66066 12.3865 11.0813C10.1292 11.6803 8.14087 11.6721 7.92492 11.6694C8.23865 10.1713 9.24778 8.92725 10.5978 8.29026ZM7.82441 12.6568C7.82441 12.6079 7.82577 12.5576 7.82713 12.5088C8.03764 12.5128 10.3764 12.5427 12.7872 11.8215C12.9257 12.0918 13.0575 12.3661 13.1783 12.6405C13.1145 12.6581 13.0507 12.6772 12.9882 12.6975C10.4987 13.5043 9.17444 15.6977 9.06442 15.8838C8.29434 15.0282 7.82441 13.8968 7.82441 12.6568ZM12.65 17.4824C11.5336 17.4824 10.5054 17.1021 9.68782 16.4637C9.77475 16.2858 10.7513 14.3993 13.4731 13.45L13.5043 13.4391C14.182 15.1993 14.4618 16.6756 14.5338 17.0994C13.9384 17.3538 13.2974 17.4842 12.65 17.4824ZM15.346 16.658C15.2971 16.3646 15.0404 14.9521 14.4088 13.2177C15.9218 12.976 17.2501 13.3725 17.4145 13.4242C17.1999 14.766 16.4298 15.9259 15.346 16.658Z" fill="white"/>
</svg>
