<svg width="26" height="26" viewBox="0 0 26 26" fill="none" xmlns="http://www.w3.org/2000/svg">
<rect width="26" height="26" rx="10" fill="white" fill-opacity="0.2"/>
<path d="M18.2782 11.7231L18.2751 11.711L16.5826 7.41031C16.5072 7.16744 16.2824 7 16.0275 7H9.16682C8.91038 7 8.68259 7.17046 8.61018 7.41635L7.02777 11.6733L7.02324 11.6839L7.02023 11.696C7.00062 11.7699 6.99458 11.8453 7.00514 11.9192C7.00363 11.9433 7.00212 11.9675 7.00212 11.9916V17.5112C7.00252 17.7543 7.09928 17.9874 7.2712 18.1593C7.44311 18.3312 7.67617 18.428 7.91929 18.4284H17.3806C17.8859 18.4284 18.2978 18.0166 18.2993 17.5112V11.9916C18.2993 11.972 18.2993 11.9524 18.2978 11.9358C18.3038 11.8619 18.2978 11.791 18.2782 11.7231ZM13.816 11.0745L13.8115 11.3113C13.7994 11.9886 13.3318 12.4442 12.6484 12.4442C12.3151 12.4442 12.0284 12.3371 11.8218 12.1334C11.6151 11.9298 11.502 11.6462 11.4959 11.3113L11.4914 11.0745H8.38693L9.58618 8.15853H15.6081L16.8406 11.0745H13.816ZM8.15914 12.233H10.532C10.8986 13.0943 11.6785 13.6027 12.6499 13.6027C13.1583 13.6027 13.6305 13.4609 14.0121 13.1924C14.347 12.9571 14.608 12.6282 14.7769 12.233H17.1377V17.2699H8.15914V12.233Z" fill="white"/>
</svg>
