<svg width="86" height="86" viewBox="0 0 86 86" fill="none" xmlns="http://www.w3.org/2000/svg">
<rect width="86" height="86" rx="24" fill="#11496D"/>
<path d="M20.4934 20.2659C22.5054 24.9061 26.1059 27.4861 30.4765 29.3538C39.0445 33.0313 47.5451 36.8435 56.065 40.6366C58.7316 41.8207 61.225 43.3321 63.4392 45.2575C68.8014 49.917 70.3129 55.8664 67.8484 62.5957C67.4825 63.6065 67.0108 64.5884 66.5295 65.7148C64.5271 61.142 61.0132 58.5523 56.71 56.6943C47.6029 52.7569 38.5246 48.7232 29.5138 44.5644C27.3381 43.5632 25.2876 42.1191 23.4681 40.5499C18 35.8423 16.6618 29.8062 19.3285 22.9326C19.6654 22.0758 20.0698 21.2479 20.4934 20.2756V20.2659Z" fill="white"/>
<path d="M18 71V51.6498C23.6318 54.8845 29.1576 58.0517 34.8472 61.3153C29.1962 64.5692 23.651 67.7557 18 71Z" fill="white"/>
<path d="M52.1469 24.6655C57.8075 21.4116 63.3334 18.2443 68.9748 15V34.3213C63.3719 31.1059 57.8364 27.929 52.1469 24.6655Z" fill="white"/>
</svg>
