<svg width="23" height="23" viewBox="0 0 23 23" fill="none" xmlns="http://www.w3.org/2000/svg">
<path d="M10.5837 4.59268H6.00033C5.5141 4.59268 5.04778 4.78583 4.70396 5.12965C4.36015 5.47347 4.16699 5.93978 4.16699 6.42601V16.5093C4.16699 16.9956 4.36015 17.4619 4.70396 17.8057C5.04778 18.1495 5.5141 18.3427 6.00033 18.3427H16.0837C16.5699 18.3427 17.0362 18.1495 17.38 17.8057C17.7238 17.4619 17.917 16.9956 17.917 16.5093V11.926M16.6208 3.29651C16.7899 3.12141 16.9922 2.98174 17.2159 2.88566C17.4396 2.78958 17.6802 2.739 17.9236 2.73689C18.167 2.73477 18.4084 2.78116 18.6337 2.87334C18.8591 2.96552 19.0637 3.10165 19.2359 3.27379C19.408 3.44592 19.5441 3.65062 19.6363 3.87593C19.7285 4.10124 19.7749 4.34265 19.7728 4.58608C19.7707 4.82951 19.7201 5.07008 19.624 5.29375C19.5279 5.51743 19.3883 5.71973 19.2132 5.88885L11.3427 13.7593H8.75033V11.167L16.6208 3.29651Z" stroke="#71717A" stroke-width="1.5" stroke-linecap="round" stroke-linejoin="round"/>
</svg>
