<svg width="22" height="22" viewBox="0 0 22 22" fill="none" xmlns="http://www.w3.org/2000/svg">
<path d="M11 0.5C5.20156 0.5 0.5 5.20156 0.5 11C0.5 16.7984 5.20156 21.5 11 21.5C16.7984 21.5 21.5 16.7984 21.5 11C21.5 5.20156 16.7984 0.5 11 0.5ZM11 19.7188C6.18594 19.7188 2.28125 15.8141 2.28125 11C2.28125 6.18594 6.18594 2.28125 11 2.28125C15.8141 2.28125 19.7188 6.18594 19.7188 11C19.7188 15.8141 15.8141 19.7188 11 19.7188ZM8.9375 7.25H7.8125C7.70937 7.25 7.625 7.33437 7.625 7.4375V14.5625C7.625 14.6656 7.70937 14.75 7.8125 14.75H8.9375C9.04062 14.75 9.125 14.6656 9.125 14.5625V7.4375C9.125 7.33437 9.04062 7.25 8.9375 7.25ZM14.1875 7.25H13.0625C12.9594 7.25 12.875 7.33437 12.875 7.4375V14.5625C12.875 14.6656 12.9594 14.75 13.0625 14.75H14.1875C14.2906 14.75 14.375 14.6656 14.375 14.5625V7.4375C14.375 7.33437 14.2906 7.25 14.1875 7.25Z" fill="black"/>
</svg>
