<svg width="86" height="86" viewBox="0 0 86 86" fill="none" xmlns="http://www.w3.org/2000/svg">
<rect width="86" height="86" rx="24" fill="#90CAF9"/>
<path d="M19.0334 71C19.0334 66.2721 18.9467 61.7945 19.0526 57.3266C19.2645 48.4966 26.2457 40.8895 35.0371 39.7822C35.4415 39.734 35.8556 39.7437 36.3755 39.7148V46.9367C42.0953 42.8443 47.5936 38.9059 53.2459 34.8617C47.6321 30.8367 42.1338 26.8983 36.4622 22.8348V31.9922C28.6529 32.8492 18.8697 25.4925 19.1201 15.0063C19.486 15.0063 19.8615 15.0063 20.2274 15.0063C28.6241 15.0063 37.0207 14.987 45.4174 15.0159C49.9238 15.0352 54.2473 15.844 58.1471 18.261C62.6536 21.0534 65.3113 25.1266 66.2742 30.2974C67.1312 34.9002 66.9001 39.4355 64.955 43.7494C62.2588 49.7388 57.3961 53.0897 51.0986 54.1874C47.8439 54.7556 44.4448 54.9674 41.1612 54.7363C33.9682 54.2356 28.7204 57.471 24.4739 62.767C22.6443 65.0492 21.1903 67.649 19.5726 70.1045C19.4186 70.3356 19.2837 70.5763 19.0238 71H19.0334Z" fill="white"/>
</svg>
