<svg width="20" height="20" viewBox="0 0 20 20" fill="none" xmlns="http://www.w3.org/2000/svg">
<path d="M4.58939 0C4.63786 0.0155803 4.68461 0.0346219 4.73308 0.0450087C5.33109 0.171565 5.86302 0.510412 6.2305 0.998869C6.7308 1.66363 7.25017 2.31627 7.76605 2.97064C8.13597 3.44827 8.32925 4.03917 8.31316 4.64309C8.29706 5.24702 8.07259 5.82678 7.67776 6.28404C7.34191 6.67182 7.02684 7.08037 6.71523 7.49584C6.69674 7.53693 6.68717 7.58148 6.68717 7.62654C6.68717 7.6716 6.69674 7.71615 6.71523 7.75724C7.34557 9.22092 8.29898 10.5229 9.50408 11.5657C10.316 12.2699 11.2279 12.8498 12.2099 13.2865C12.2698 13.3223 12.3402 13.3366 12.4094 13.3272C12.4786 13.3178 12.5425 13.2851 12.5907 13.2346C12.9871 12.8987 13.3992 12.5785 13.8025 12.2495C14.2564 11.8869 14.8187 11.6869 15.3996 11.6816C15.9805 11.6763 16.5464 11.8659 17.0069 12.2201C17.6993 12.7516 18.3693 13.29 19.0565 13.818C19.5319 14.1919 19.8525 14.7283 19.9567 15.3241C19.968 15.367 19.9818 15.4092 19.9983 15.4504V16.1152C19.8632 16.4718 19.7922 16.8717 19.5828 17.1746C19.1722 17.7951 18.673 18.3521 18.1009 18.8279C16.6918 19.9479 15.0714 20.1643 13.3541 19.8873C11.8833 19.6252 10.4743 19.091 9.19939 18.312C6.53682 16.7496 4.24933 14.6223 2.49816 12.0799C1.39023 10.4942 0.522955 8.79073 0.149028 6.8709C-0.0722828 5.82866 -0.0468028 4.74912 0.223455 3.71849C0.642391 2.17258 1.73474 1.17198 2.99328 0.311606C3.18814 0.208756 3.39441 0.129153 3.60784 0.0744378C3.68574 0.0467395 3.76535 0.0259678 3.84499 0.00346302L4.58939 0ZM14.6698 18.3068C15.8054 18.3068 16.8182 17.9433 17.5712 16.9946C17.7339 16.7903 17.9174 16.6016 18.0905 16.406C18.1768 16.3124 18.2422 16.2016 18.2826 16.0809C18.3231 15.9603 18.3375 15.8324 18.3251 15.7057C18.3127 15.5791 18.2736 15.4565 18.2105 15.346C18.1474 15.2354 18.0617 15.1395 17.959 15.0644C17.3104 14.5624 16.6618 14.0592 16.0132 13.5548C15.8474 13.42 15.6398 13.3473 15.4262 13.3492C15.2125 13.3511 15.0063 13.4275 14.8429 13.5652C14.2803 14.0188 13.7142 14.4689 13.1533 14.9242C13.0245 15.0406 12.8647 15.1172 12.6932 15.1445C12.5217 15.1719 12.346 15.1488 12.1873 15.0782C8.72506 13.6933 6.30147 11.2697 4.91655 7.80744C4.8461 7.64895 4.82333 7.47337 4.851 7.30214C4.87867 7.13091 4.9556 6.97144 5.07238 6.8432C5.52767 6.28231 5.97774 5.71623 6.42957 5.15187C6.566 4.99149 6.64264 4.78878 6.64643 4.57825C6.65021 4.36772 6.58094 4.16239 6.45036 3.9972C5.93102 3.32725 5.41168 2.65903 4.89234 1.98908C4.81805 1.88492 4.71861 1.80125 4.60329 1.74586C4.48797 1.69046 4.3605 1.66516 4.23276 1.67228C4.06477 1.66656 3.89875 1.70987 3.75496 1.79692C3.29677 2.12962 2.87389 2.50841 2.49296 2.92736C1.74164 3.84659 1.58757 4.95106 1.71221 6.10227C1.83784 7.10442 2.13907 8.0766 2.60204 8.97423C3.38284 10.5322 4.39682 11.9618 5.60901 13.2138C7.27956 14.9796 9.15613 16.4735 11.3806 17.4914C12.406 17.9956 13.5277 18.2736 14.6698 18.3068Z" fill="white"/>
<path d="M20.0001 8.52587C19.9581 8.67365 19.8794 8.80842 19.7713 8.91767C19.6633 9.02692 19.5294 9.10711 19.3821 9.15081C19.2558 9.18531 19.1231 9.18967 18.9948 9.16352C18.8665 9.13737 18.7461 9.08145 18.6434 9.00027C18.5406 8.91909 18.4584 8.81491 18.4033 8.69612C18.3482 8.57734 18.3217 8.44727 18.3261 8.3164C18.3309 7.47464 18.1667 6.64047 17.8431 5.86337C16.8529 3.56442 15.1252 2.18297 12.6497 1.75538C12.347 1.70996 12.0417 1.68451 11.7356 1.67921C11.2353 1.66189 10.896 1.39876 10.8199 0.943471C10.7541 0.553964 10.993 0.197351 11.4379 0.0225057C11.449 0.0160001 11.4594 0.00846433 11.469 0H12.2515C12.2936 0.0155526 12.3371 0.0271432 12.3814 0.0346223C13.3568 0.104232 14.3099 0.359844 15.1893 0.787669C17.696 2.02197 19.2557 4.00586 19.8374 6.74452C19.9084 7.07517 19.9447 7.41101 19.9966 7.74339L20.0001 8.52587Z" fill="white"/>
<path d="M16.6676 8.2437C16.6879 8.47016 16.6183 8.69553 16.4738 8.87109C16.3294 9.04666 16.1216 9.15834 15.8955 9.18198C15.6919 9.19679 15.4898 9.13721 15.3268 9.01432C15.1638 8.89143 15.0509 8.71357 15.0091 8.51376C14.9624 8.25236 14.9745 7.98057 14.9226 7.71917C14.7817 6.96013 14.3807 6.2739 13.7887 5.7785C13.1966 5.28309 12.4504 5.00949 11.6784 5.00474C11.4883 5.01172 11.3015 4.95282 11.1498 4.838C10.9981 4.72318 10.8907 4.55949 10.8457 4.3746C10.8136 4.24808 10.8116 4.11578 10.8399 3.98834C10.8682 3.86091 10.9261 3.7419 11.0087 3.64087C11.0914 3.53985 11.1966 3.45963 11.3159 3.40666C11.4353 3.3537 11.5654 3.32947 11.6957 3.33592C12.3985 3.33789 13.0927 3.48996 13.7319 3.78194C14.3711 4.07393 14.9405 4.49909 15.4021 5.02898C16.1962 5.91384 16.6454 7.05494 16.6676 8.2437Z" fill="white"/>
</svg>
