<svg width="16" height="20" viewBox="0 0 16 20" fill="none" xmlns="http://www.w3.org/2000/svg">
<path d="M13.75 1.69987e-08C14.3201 -7.00219e-05 14.869 0.216295 15.2858 0.605369C15.7025 0.994443 15.956 1.52721 15.995 2.096L16 2.25V17.748C16.0001 18.3181 15.7837 18.867 15.3946 19.2838C15.0056 19.7005 14.4728 19.954 13.904 19.993L13.75 19.998H2.25C1.67987 19.9981 1.13098 19.7817 0.714247 19.3926C0.297514 19.0036 0.0440221 18.4708 0.00500013 17.902L1.69987e-08 17.748V2.25C-7.00219e-05 1.67987 0.216295 1.13098 0.605369 0.714247C0.994443 0.297514 1.52721 0.0440221 2.096 0.00500013L2.25 1.69987e-08H13.75ZM13.75 1.5H2.25C2.06876 1.50001 1.89366 1.56564 1.75707 1.68477C1.62048 1.80389 1.53165 1.96845 1.507 2.148L1.5 2.25V17.748C1.5 18.128 1.782 18.442 2.148 18.491L2.25 18.498H13.75C13.9312 18.498 14.1063 18.4324 14.2429 18.3132C14.3795 18.1941 14.4684 18.0296 14.493 17.85L14.5 17.748V2.25C14.5 2.06876 14.4344 1.89366 14.3152 1.75707C14.1961 1.62048 14.0316 1.53165 13.852 1.507L13.75 1.5ZM3 13.749C3 13.5501 3.07902 13.3593 3.21967 13.2187C3.36032 13.078 3.55109 12.999 3.75 12.999H12.25C12.4489 12.999 12.6397 13.078 12.7803 13.2187C12.921 13.3593 13 13.5501 13 13.749C13 13.9479 12.921 14.1387 12.7803 14.2793C12.6397 14.42 12.4489 14.499 12.25 14.499H3.75C3.55109 14.499 3.36032 14.42 3.21967 14.2793C3.07902 14.1387 3 13.9479 3 13.749ZM3 5.749C3 5.55009 3.07902 5.35932 3.21967 5.21867C3.36032 5.07802 3.55109 4.999 3.75 4.999H12.25C12.4489 4.999 12.6397 5.07802 12.7803 5.21867C12.921 5.35932 13 5.55009 13 5.749C13 5.94791 12.921 6.13868 12.7803 6.27933C12.6397 6.41998 12.4489 6.499 12.25 6.499H3.75C3.55109 6.499 3.36032 6.41998 3.21967 6.27933C3.07902 6.13868 3 5.94791 3 5.749ZM3 9.749C3 9.55009 3.07902 9.35932 3.21967 9.21867C3.36032 9.07802 3.55109 8.999 3.75 8.999H12.25C12.4489 8.999 12.6397 9.07802 12.7803 9.21867C12.921 9.35932 13 9.55009 13 9.749C13 9.94791 12.921 10.1387 12.7803 10.2793C12.6397 10.42 12.4489 10.499 12.25 10.499H3.75C3.55109 10.499 3.36032 10.42 3.21967 10.2793C3.07902 10.1387 3 9.94791 3 9.749Z" fill="black"/>
</svg>
