<svg width="24" height="24" viewBox="0 0 24 24" fill="none" xmlns="http://www.w3.org/2000/svg">
<path d="M0 19.5308V8.42354C0 8.24828 0.0766612 8.07303 0.120477 7.88681C0.375391 6.77069 1.00439 5.77532 1.90302 5.06597C2.80166 4.35663 3.91588 3.97595 5.06069 3.9872H6.07946C6.07601 3.95809 6.07601 3.92869 6.07946 3.89958V3.79004C6.28034 2.97039 6.68784 2.21587 7.2631 1.59842C7.83836 0.980972 8.56222 0.521173 9.36563 0.262883C9.7052 0.14239 10.0667 0.0876311 10.461 0H13.55H13.6814C14.5291 0.10838 15.3337 0.43622 16.0158 0.951111C16.6978 1.466 17.2336 2.15008 17.5701 2.93563C17.7234 3.24234 17.811 3.59288 17.9534 3.97627C18.4464 3.97627 18.9831 3.97627 19.5089 3.97627C20.7277 4.09484 21.8598 4.65885 22.6885 5.56031C23.5172 6.46178 23.9842 7.6373 24 8.86169V19.005C23.9994 19.2547 23.9773 19.5039 23.9342 19.7499C23.7403 20.9268 23.1308 21.9951 22.2162 22.7609C21.3017 23.5267 20.143 23.9391 18.9503 23.9233H5.06069C4.8346 23.9396 4.60764 23.9396 4.38155 23.9233C3.36848 23.7969 2.41863 23.3626 1.66047 22.6788C0.902301 21.9951 0.372401 21.0951 0.142406 20.1004L0 19.5308ZM2.01548 14.0538V19.235C2.01013 19.2897 2.01013 19.3447 2.01548 19.3993C2.1202 20.1248 2.48875 20.7863 3.05056 21.2572C3.61237 21.7281 4.32803 21.9753 5.06069 21.9516H18.8845C19.0413 21.9625 19.1987 21.9625 19.3556 21.9516C20.09 21.8569 20.7632 21.4931 21.2448 20.9305C21.7264 20.368 21.9822 19.6467 21.9626 18.9064V14.251C21.9626 14.1743 21.9626 14.0977 21.9626 14.01H12.9803C12.9803 14.3825 12.9803 14.7439 12.9803 15.1054C12.968 15.3113 12.8885 15.5075 12.7539 15.6638C12.6194 15.8201 12.4373 15.9279 12.2355 15.9707C12.0314 16.0303 11.8132 16.0208 11.6151 15.9435C11.417 15.8662 11.25 15.7256 11.1401 15.5436C11.0471 15.332 10.9914 15.1059 10.9758 14.8754C10.9758 14.5906 10.9758 14.3058 10.9758 14.021L2.01548 14.0538ZM21.9845 12.0274V9.05885C21.9889 8.66154 21.914 8.26734 21.7643 7.89928C21.6146 7.53122 21.393 7.19668 21.1126 6.91521C20.8321 6.63374 20.4985 6.41101 20.131 6.25997C19.7635 6.10894 19.3695 6.03267 18.9722 6.0356H5.01696C4.61973 6.03114 4.22553 6.10644 3.85793 6.25707C3.49033 6.4077 3.15675 6.63057 2.87687 6.9125C2.59698 7.19443 2.37657 7.52966 2.22862 7.89834C2.08067 8.26703 2.00812 8.66166 2.01548 9.05885C2.01548 9.96802 2.01548 10.8882 2.01548 11.7973C2.01003 11.8739 2.01003 11.9508 2.01548 12.0274H21.9845ZM15.7846 4.02006V3.89958C15.5706 3.38279 15.2159 2.93638 14.7609 2.61107C14.3058 2.28577 13.7687 2.09463 13.2105 2.05934C12.4765 2.05934 11.7536 2.05934 11.0197 2.05934C10.3411 2.05313 9.68181 2.28578 9.15743 2.71658C8.72659 3.05557 8.40322 3.51211 8.22638 4.03102L15.7846 4.02006Z" fill="#1D1F3E"/>
</svg>
