<svg width="24" height="25" viewBox="0 0 24 25" fill="none" xmlns="http://www.w3.org/2000/svg">
<path d="M24 3.53685V16.5528V16.6297C23.8624 17.6057 23.3692 18.4964 22.6151 19.1309C21.8609 19.7654 20.8991 20.0991 19.914 20.0677H17.3326C17.2053 20.0677 17.0816 20.1102 16.9812 20.1885C15.5899 21.3528 14.2022 22.5245 12.8182 23.7034C12.7155 23.8132 12.5913 23.9007 12.4534 23.9605C12.3155 24.0203 12.1668 24.0511 12.0164 24.0511C11.8661 24.0511 11.7174 24.0203 11.5795 23.9605C11.4415 23.9007 11.3174 23.8132 11.2146 23.7034C9.83064 22.5391 8.45762 21.3639 7.07363 20.2105C6.96793 20.1251 6.83613 20.0786 6.70022 20.0787H3.94322C2.89139 20.0614 1.8885 19.6314 1.15083 18.8814C0.413166 18.1314 -0.000133555 17.1215 8.58613e-06 16.0695V3.98716C-0.00172584 3.15225 0.259351 2.33799 0.746309 1.6598C1.23327 0.981608 1.92136 0.473897 2.71302 0.208665C2.97664 0.120793 3.25122 0.0659039 3.51483 0H20.518H20.6498C21.4194 0.10275 22.1419 0.429181 22.7277 0.938808C23.3135 1.44844 23.7368 2.11882 23.945 2.86681C23.9121 3.13042 23.9561 3.33913 24 3.53685ZM11.9176 21.7483L12.1592 21.5506L15.6302 18.6068C16.0537 18.2401 16.5968 18.0409 17.157 18.0467C18.0467 18.0467 18.9473 18.0467 19.837 18.0467C20.1159 18.0592 20.3942 18.0135 20.6544 17.9124C20.9146 17.8114 21.1509 17.6573 21.3483 17.4599C21.5456 17.2626 21.6996 17.0263 21.8007 16.7661C21.9017 16.5059 21.9475 16.2276 21.935 15.9487V4.12996C21.9508 3.85125 21.9077 3.57237 21.8086 3.31142C21.7094 3.05047 21.5564 2.81331 21.3595 2.6154C21.1627 2.4175 20.9263 2.26325 20.6659 2.16274C20.4055 2.06223 20.1268 2.01768 19.848 2.03201H3.99806C3.7208 2.01621 3.44341 2.05902 3.18378 2.15761C2.92416 2.2562 2.68814 2.40835 2.49125 2.60421C2.29436 2.80006 2.14096 3.03519 2.041 3.29429C1.94105 3.55339 1.89688 3.83066 1.91121 4.108V16.0146C1.90026 16.1462 1.90026 16.2785 1.91121 16.4101C1.9944 16.8812 2.24197 17.3076 2.61005 17.6134C2.97812 17.9191 3.44278 18.0843 3.92123 18.0796H6.75506C7.23704 18.0605 7.70833 18.2255 8.07321 18.5409L9.4792 19.7272L11.9176 21.7483Z" fill="#1D1F3E"/>
<path d="M12.0055 9.03983H16.9043C17.0418 9.02614 17.1808 9.04112 17.3122 9.0838C17.4436 9.12648 17.5647 9.19595 17.6679 9.28781C17.7711 9.37967 17.8542 9.49194 17.9118 9.61752C17.9695 9.7431 18.0004 9.87926 18.0027 10.0174C18.0064 10.1597 17.9799 10.3011 17.9251 10.4324C17.8703 10.5638 17.7884 10.6821 17.6847 10.7795C17.581 10.877 17.4579 10.9515 17.3235 10.9981C17.189 11.0447 17.0461 11.0623 16.9043 11.0499H7.01874C6.75905 11.075 6.4997 10.9988 6.29497 10.837C6.09024 10.6753 5.956 10.4406 5.92034 10.1822C5.89112 9.93974 5.95077 9.69494 6.08808 9.49302C6.22539 9.2911 6.43112 9.14572 6.66731 9.08377C6.77688 9.07283 6.88732 9.07283 6.99689 9.08377L12.0055 9.03983Z" fill="#1D1F3E"/>
<path d="M11.9832 15.0481H7.05137C6.91387 15.0618 6.77504 15.0468 6.64362 15.0042C6.51221 14.9615 6.39112 14.892 6.2879 14.8002C6.18469 14.7083 6.10165 14.596 6.04401 14.4705C5.98637 14.3449 5.95532 14.2087 5.95297 14.0706C5.94933 13.9283 5.97579 13.7868 6.0306 13.6555C6.08541 13.5242 6.16731 13.4059 6.27101 13.3084C6.3747 13.211 6.49789 13.1365 6.63236 13.0899C6.76683 13.0433 6.90959 13.0256 7.05137 13.0381H16.937C17.195 13.0127 17.4529 13.0875 17.6574 13.2469C17.8618 13.4064 17.9971 13.6384 18.0354 13.8948C18.067 14.1376 18.0084 14.3835 17.8707 14.586C17.733 14.7885 17.5259 14.9334 17.2885 14.9932C17.1793 15.0098 17.0682 15.0098 16.9589 14.9932L11.9832 15.0481Z" fill="#1D1F3E"/>
<path d="M9.49026 5.03074H11.9508C12.1434 5.01869 12.335 5.06591 12.5 5.16606C12.665 5.26621 12.7953 5.41449 12.8734 5.59093C12.9589 5.75094 12.997 5.93195 12.9834 6.11284C12.9697 6.29374 12.9049 6.46702 12.7965 6.61243C12.7198 6.72848 12.6175 6.82544 12.4976 6.89588C12.3776 6.96633 12.2432 7.00837 12.1045 7.01884H11.8518H7.08483C6.80718 7.03862 6.53242 6.95225 6.31601 6.77719C6.15755 6.64831 6.04285 6.47351 5.98777 6.27683C5.9327 6.08014 5.93993 5.87121 6.00842 5.67879C6.05528 5.48636 6.16276 5.31411 6.31507 5.18751C6.46738 5.06092 6.65646 4.98671 6.85421 4.97583C7.17275 4.97583 7.48028 4.97583 7.79882 4.97583H9.49026V5.03074Z" fill="#1D1F3E"/>
</svg>
