<svg width="24" height="24" viewBox="0 0 24 24" fill="none" xmlns="http://www.w3.org/2000/svg">
<path d="M23.956 20.4618C23.8793 20.7576 23.8246 21.0534 23.726 21.3382C23.4529 22.1083 22.9485 22.7752 22.2819 23.2478C21.6152 23.7203 20.8188 23.9754 20.0016 23.978H16.9346C15.956 23.9824 15.0111 23.6208 14.2855 22.9641C13.5599 22.3075 13.106 21.4032 13.0131 20.429C12.9145 19.2021 13.0131 17.9644 13.0131 16.7375C13.0237 16.3636 13.0941 15.9939 13.2212 15.6421C13.4836 14.8684 13.9773 14.1939 14.6355 13.71C15.2938 13.2261 16.085 12.9561 16.9017 12.9365C17.9679 12.9365 19.0305 12.9365 20.0894 12.9365C21.0254 12.9584 21.924 13.3081 22.6286 13.9247C23.3332 14.5412 23.7991 15.3855 23.945 16.3103C23.945 16.3103 23.945 16.398 23.945 16.4418L23.956 20.4618ZM18.479 21.9735H19.9797C20.2432 21.9779 20.505 21.9294 20.7495 21.8309C20.994 21.7325 21.2162 21.5859 21.4031 21.4001C21.59 21.2142 21.7377 20.9928 21.8375 20.7488C21.9374 20.5049 21.9873 20.2434 21.9844 19.9799C21.9844 18.9721 21.9844 17.9753 21.9844 16.9785C21.9902 16.4603 21.7907 15.9609 21.4294 15.5894C21.0682 15.2179 20.5746 15.0045 20.0565 14.9959C19.0268 14.9959 17.9862 14.9959 16.9456 14.9959C16.4313 15.0016 15.9397 15.2092 15.577 15.5739C15.2143 15.9387 15.0096 16.4313 15.0067 16.9456C15.0067 17.9644 15.0067 18.9831 15.0067 20.0127C15.0125 20.5367 15.2254 21.037 15.599 21.4044C15.9725 21.7718 16.4763 21.9764 17.0003 21.9735H18.479Z" fill="#1D1F3E"/>
<path d="M23.9561 7.49257C23.9561 7.64593 23.8904 7.81023 23.8466 7.96358C23.629 8.82403 23.1328 9.58828 22.4354 10.1371C21.7379 10.686 20.8783 10.9886 19.9908 10.9978H16.9457C15.8909 10.9892 14.8816 10.5664 14.1357 9.82051C13.3898 9.07461 12.9671 8.06542 12.9585 7.0106C12.9585 6.00284 12.9585 4.99509 12.9585 3.99828C12.9585 3.04037 13.3023 2.11428 13.9275 1.38854C14.5527 0.662804 15.4178 0.185664 16.3651 0.0439453H16.4637H20.4509H20.5714C21.3389 0.146413 22.0594 0.47195 22.6436 0.98018C23.2277 1.48841 23.6499 2.15695 23.8576 2.90289C23.9154 3.10113 23.9629 3.30224 24 3.50538L23.9561 7.49257ZM18.4792 2.01563H17.0114C16.7468 2.01127 16.4841 2.0596 16.2384 2.15784C15.9927 2.25607 15.769 2.40224 15.5804 2.5878C15.3918 2.77335 15.242 2.99461 15.1398 3.23865C15.0375 3.48269 14.9849 3.74465 14.9849 4.00925C14.9849 5.00605 14.9849 6.00284 14.9849 7.0106C14.982 7.53165 15.1855 8.03266 15.5508 8.40417C15.9162 8.77568 16.4137 8.98747 16.9348 8.99325C17.9644 8.99325 18.994 8.99325 20.0237 8.99325C20.2821 8.9904 20.5374 8.93651 20.7749 8.83463C21.0124 8.73276 21.2275 8.58493 21.4076 8.39966C21.5878 8.21438 21.7296 7.99532 21.8248 7.75506C21.9201 7.51479 21.9669 7.25804 21.9626 6.99964C21.9626 5.98092 21.9626 4.97317 21.9626 3.95446C21.954 3.44102 21.7456 2.95118 21.3814 2.5891C21.0173 2.22702 20.5262 2.02127 20.0127 2.01563H18.4792Z" fill="#1D1F3E"/>
<path d="M7.47062 0C7.79285 0.074587 8.11094 0.165995 8.42361 0.273847C9.16507 0.552983 9.80621 1.04725 10.2649 1.69326C10.7235 2.33926 10.9787 3.10755 10.9977 3.89958C10.9977 4.99497 10.9977 5.99177 10.9977 7.04334C10.978 8.082 10.5559 9.07246 9.82025 9.80601C9.08466 10.5396 8.09308 10.9589 7.05437 10.9758H3.92158C2.87454 10.9557 1.87709 10.5256 1.14379 9.778C0.410495 9.03036 -0.000192534 8.02485 6.77134e-08 6.97762V3.93244C0.00512552 2.98407 0.34903 2.06877 0.969697 1.35169C1.59036 0.634604 2.44701 0.162964 3.38485 0.0218957H3.51629L7.47062 0ZM1.99368 5.47694V6.97762C1.98782 7.49868 2.1885 8.0009 2.55181 8.37447C2.91511 8.74804 3.41151 8.96258 3.93254 8.97123C4.96221 8.97123 5.99181 8.97123 7.02148 8.97123C7.53583 8.96839 8.02853 8.76356 8.39325 8.40088C8.75798 8.0382 8.96556 7.5467 8.9713 7.03238C8.9713 6.00271 8.9713 4.97307 8.9713 3.94341C8.96552 3.42238 8.75366 2.92481 8.38216 2.55946C8.01065 2.19411 7.50963 1.99069 6.98858 1.99362H3.94351C3.43003 1.99925 2.93893 2.20497 2.5748 2.56705C2.21068 2.92913 2.00221 3.419 1.99368 3.93244V5.47694Z" fill="#1D1F3E"/>
<path d="M5.52078 23.9342C4.80878 23.9342 4.09684 23.9342 3.39579 23.9342C2.57129 23.8034 1.80922 23.4151 1.21892 22.8248C0.62862 22.2345 0.240381 21.4725 0.109623 20.648C0.0933418 20.4073 0.0933418 20.1658 0.109623 19.9251C0.109623 18.9173 0.109623 17.8986 0.109623 16.8908C0.125923 15.9325 0.492577 15.0133 1.14043 14.3069C1.78828 13.6006 2.67242 13.1559 3.62578 13.057C4.97185 12.9748 6.32162 12.9748 7.6677 13.057C8.48354 13.1561 9.24689 13.512 9.84738 14.0731C10.4479 14.6342 10.8545 15.3716 11.0087 16.1788C11.0693 16.493 11.1023 16.8119 11.1072 17.1318C11.1072 18.0629 11.1072 19.005 11.1072 19.936C11.1247 20.8732 10.8115 21.7865 10.2226 22.5156C9.63365 23.2448 8.80668 23.7432 7.88685 23.9232C7.66628 23.965 7.44298 23.9906 7.21868 23.9999H5.52078V23.9342ZM2.03738 18.4573V19.9798C2.03738 20.2397 2.08884 20.497 2.18861 20.7369C2.28839 20.9769 2.43452 21.1947 2.61877 21.3779C2.80303 21.5612 3.02172 21.7062 3.26221 21.8046C3.50269 21.903 3.76025 21.953 4.0201 21.9516H7.02146C7.2813 21.9544 7.53911 21.9059 7.78015 21.8088C8.02119 21.7117 8.24072 21.5679 8.42599 21.3857C8.61126 21.2035 8.75866 20.9864 8.85976 20.7471C8.96086 20.5077 9.01358 20.2507 9.015 19.9908C9.015 18.9721 9.015 17.9424 9.015 16.9237C9.01216 16.4094 8.80739 15.9167 8.44471 15.552C8.08203 15.1873 7.5906 14.9796 7.07628 14.9739C6.04661 14.9739 5.0059 14.9739 3.96528 14.9739C3.44808 14.9854 2.95615 15.1997 2.59551 15.5706C2.23486 15.9415 2.03438 16.4393 2.03738 16.9566V18.4573Z" fill="#1D1F3E"/>
</svg>
