<svg width="24" height="24" viewBox="0 0 24 24" fill="none" xmlns="http://www.w3.org/2000/svg">
<path d="M10.9069 0H13.1583C13.4861 0 13.8139 0.0874128 14.1418 0.152985C15.9747 0.470179 17.7074 1.21416 19.1997 2.3248C20.6919 3.43543 21.9018 4.88157 22.7318 6.54632C23.5807 8.16749 24.0162 9.97317 23.9995 11.8031C23.9995 14.1637 23.9995 16.5243 23.9995 18.8849C23.9995 19.1144 23.9995 19.3439 23.9995 19.5734C23.8533 20.7743 23.2744 21.8806 22.3712 22.6853C21.4679 23.49 20.3022 23.9379 19.0925 23.9449H11.7266C11.2658 23.9448 10.8056 23.912 10.3495 23.8466C7.89144 23.5135 5.59887 22.4207 3.79225 20.7209C1.89014 18.9644 0.622115 16.6283 0.185704 14.0763C0.120131 13.661 0.0655726 13.2457 0 12.8304V11.1036C0 10.8413 0.065546 10.59 0.109261 10.3277C0.401101 8.22308 1.25004 6.23465 2.56823 4.56822C4.35149 2.27703 6.91466 0.721215 9.77026 0.19671L10.9069 0ZM21.9996 15.1582C21.9996 14.0653 21.9996 12.885 21.9996 11.7484C22.0061 10.8697 21.8734 9.99548 21.6062 9.15832C21.0401 7.19676 19.8813 5.45817 18.2888 4.18064C16.6962 2.9031 14.7478 2.14908 12.7102 2.02183C10.6945 1.87829 8.68347 2.35908 6.95068 3.39883C5.24035 4.4187 3.87257 5.92501 3.02196 7.72552C2.17134 9.52602 1.87645 11.5391 2.17482 13.5079C2.53839 15.8534 3.73776 17.9882 5.55177 19.5188C7.31135 21.0546 9.56586 21.9044 11.9014 21.9122C14.2511 21.9122 16.6117 21.9122 18.9614 21.9122C19.3633 21.9213 19.7628 21.8484 20.1357 21.6981C20.5085 21.5478 20.8468 21.3232 21.1301 21.0379C21.4133 20.7527 21.6355 20.4127 21.7831 20.0388C21.9307 19.6649 22.0007 19.2649 21.9887 18.8631C21.9996 17.639 21.9996 16.4041 21.9996 15.1582Z" fill="#1D1F3E"/>
<path d="M12.0437 14.9506H15.9452C16.0823 14.9402 16.22 14.9577 16.3501 15.002C16.4802 15.0464 16.5999 15.1167 16.7021 15.2086C16.8042 15.3006 16.8867 15.4122 16.9445 15.537C17.0022 15.6617 17.0341 15.7968 17.0381 15.9342C17.0385 16.0743 17.01 16.2131 16.9542 16.3417C16.8984 16.4703 16.8166 16.5859 16.7139 16.6813C16.6113 16.7768 16.49 16.85 16.3577 16.8963C16.2254 16.9427 16.085 16.9611 15.9452 16.9506H8.09845C7.83392 16.972 7.57146 16.8891 7.36724 16.7196C7.16302 16.5501 7.03324 16.3074 7.00557 16.0435C6.97455 15.8004 7.03424 15.5544 7.1734 15.3528C7.31256 15.1511 7.52134 15.0079 7.75959 14.9506C7.86826 14.9341 7.97884 14.9341 8.08751 14.9506H12.0437Z" fill="#1D1F3E"/>
<path d="M12.0104 12.9616H8.13066C7.87875 12.9877 7.62634 12.9178 7.42373 12.7659C7.22112 12.6139 7.08323 12.3911 7.03778 12.1419C7.01431 12.0119 7.01701 11.8785 7.04566 11.7496C7.0743 11.6206 7.12837 11.4986 7.20468 11.3908C7.28098 11.2829 7.37795 11.1914 7.49004 11.1214C7.60212 11.0515 7.72703 11.0046 7.85744 10.9835C7.9555 10.9726 8.05448 10.9726 8.15254 10.9835H15.8683C16.1182 10.9595 16.368 11.0289 16.5698 11.1782C16.7716 11.3275 16.9111 11.5462 16.9612 11.7922C16.9864 11.9222 16.9853 12.056 16.9581 12.1856C16.9309 12.3152 16.878 12.4381 16.8027 12.547C16.7274 12.6559 16.631 12.7487 16.5193 12.8199C16.4077 12.8911 16.283 12.9392 16.1525 12.9616C16.0252 12.9724 15.8971 12.9724 15.7699 12.9616H12.0104Z" fill="#1D1F3E"/>
<path d="M10.0436 8.97244H8.07652C7.93947 8.98284 7.80172 8.96536 7.67163 8.92101C7.54154 8.87667 7.42172 8.80641 7.31956 8.71446C7.21741 8.62252 7.13505 8.5108 7.07729 8.38608C7.01954 8.26136 6.98768 8.12624 6.98364 7.98886C6.98363 7.85446 7.01019 7.7214 7.06195 7.59737C7.11371 7.47334 7.1896 7.36081 7.28514 7.26629C7.38068 7.17176 7.49409 7.09713 7.61866 7.0467C7.74324 6.99627 7.87649 6.97104 8.01088 6.97249H11.9562C12.0909 6.96792 12.2251 6.99107 12.3505 7.04053C12.4759 7.08999 12.5898 7.16471 12.6851 7.26002C12.7804 7.35532 12.8551 7.46919 12.9046 7.59457C12.954 7.71995 12.9772 7.85415 12.9726 7.98886C12.9712 8.12134 12.9433 8.25223 12.8907 8.37381C12.838 8.49538 12.7616 8.60519 12.6659 8.69682C12.5702 8.78845 12.4572 8.86004 12.3334 8.90737C12.2097 8.9547 12.0776 8.97682 11.9452 8.97244H10.0436Z" fill="#1D1F3E"/>
</svg>
