<svg width="25" height="24" viewBox="0 0 25 24" fill="none" xmlns="http://www.w3.org/2000/svg">
<path d="M24.0035 18.4209C23.8928 18.514 23.7944 18.63 23.6679 18.6968C21.5715 19.8214 19.4717 20.9337 17.3788 22.0618C17.1117 22.2059 16.9097 22.1972 16.6513 22.0337C14.5515 20.6983 12.4446 19.3733 10.3342 18.0536C10.1426 17.9342 10.0741 17.7953 10.0759 17.5757C10.0811 15.7236 10.0829 13.8732 10.0759 12.0211C10.0759 11.7611 10.1725 11.6029 10.3992 11.4817C12.5395 10.3412 14.6762 9.19554 16.8095 8.04281C17.001 7.93914 17.1328 8.01294 17.2839 8.09553C18.7846 8.91087 20.2835 9.72798 21.7842 10.5433C22.408 10.8825 23.0335 11.2181 23.6521 11.5643C23.7821 11.6381 23.8875 11.7576 24.0035 11.856V18.4191V18.4209ZM10.7735 12.478V12.7574C10.7735 14.2475 10.777 15.7394 10.77 17.2295C10.77 17.4 10.8227 17.4931 10.965 17.5827C12.4639 18.5246 13.9575 19.4735 15.4529 20.4206C15.8255 20.6561 16.1997 20.8915 16.5986 21.1428C16.6074 21.0497 16.6162 20.9899 16.6162 20.932C16.6162 19.2767 16.6144 17.6214 16.6215 15.9678C16.6215 15.8027 16.5424 15.7359 16.4211 15.6674C15.2667 15.0172 14.1139 14.3653 12.9594 13.7133C12.2478 13.3109 11.5361 12.9103 10.7735 12.4798V12.478ZM17.3894 21.1868C17.4737 21.1463 17.5159 21.1288 17.5563 21.1077C19.4067 20.1377 21.2552 19.1642 23.1091 18.2013C23.2602 18.1222 23.2725 18.022 23.2725 17.8832C23.2708 16.2191 23.2725 14.5568 23.2708 12.8927C23.2708 12.8189 23.2637 12.7434 23.2567 12.6344C22.7823 12.8874 22.3394 13.1299 21.8913 13.3584C21.756 13.4269 21.7016 13.506 21.7051 13.6624C21.7156 14.2247 21.7016 14.787 21.7121 15.3493C21.7174 15.5918 21.6225 15.7412 21.4099 15.8519C20.9407 16.0979 20.4786 16.3597 20.0129 16.6127C19.6456 16.8113 19.3856 16.6584 19.3785 16.2332C19.3715 15.8185 19.3785 15.4055 19.3768 14.9908C19.3768 14.9188 19.3662 14.8467 19.3592 14.7466C18.7389 15.084 18.1538 15.409 17.5616 15.7183C17.421 15.7921 17.3859 15.88 17.3859 16.0276C17.3911 17.6671 17.3894 19.3083 17.3894 20.9478V21.1868ZM11.1899 11.8806C11.2374 11.9175 11.2602 11.9403 11.2866 11.9544C13.158 13.014 15.0312 14.0736 16.9079 15.1261C16.9747 15.163 17.1029 15.1455 17.1768 15.1068C17.7197 14.8151 18.2557 14.5129 18.7934 14.2124C18.8443 14.1843 18.8918 14.1491 18.941 14.1157C18.9199 14.0876 18.9146 14.0718 18.9023 14.0648C16.987 13.0175 15.0734 11.9702 13.1562 10.9282C13.107 10.9018 13.0174 10.9 12.9682 10.9282C12.3831 11.2374 11.8014 11.5537 11.1917 11.8823L11.1899 11.8806ZM22.8789 11.979C22.849 11.9473 22.8367 11.9245 22.8174 11.914C20.9231 10.8825 19.0271 9.85274 17.1311 8.82477C17.0836 8.79841 17.0045 8.78084 16.9624 8.80193C16.4879 9.04267 16.017 9.29219 15.5021 9.5628C15.887 9.77367 16.2261 9.96169 16.5635 10.148C18.1116 11.0002 19.6614 11.8524 21.2113 12.6994C21.2834 12.7381 21.3993 12.7785 21.4591 12.7469C21.9335 12.5026 22.4009 12.2408 22.8771 11.979H22.8789ZM20.1113 15.706C20.3889 15.5566 20.6279 15.4407 20.8493 15.2983C20.9179 15.2562 20.9776 15.1437 20.9794 15.0629C20.9917 14.5867 20.9794 14.1105 20.9881 13.6343C20.9899 13.4972 20.9407 13.4234 20.823 13.3601C20.3151 13.0878 19.8108 12.8084 19.3047 12.5307C17.8357 11.7242 16.3684 10.9176 14.8976 10.1146C14.8168 10.0706 14.6921 10.0162 14.6253 10.0478C14.3599 10.1673 14.1104 10.3202 13.8345 10.4695C13.9154 10.517 13.9681 10.5486 14.0226 10.5785C15.9414 11.617 17.8585 12.659 19.7809 13.6905C20.0164 13.817 20.1254 13.9699 20.1148 14.2423C20.0972 14.7167 20.1095 15.1911 20.1095 15.706H20.1113Z" fill="#020B1C"/>
<path d="M0.237223 24C0.0544733 23.8963 0 23.7399 0 23.5326C0.00351442 17.1188 0.0035145 10.7049 0.0035145 4.29287C0.0035145 3.91858 0.108947 3.81491 0.497291 3.81491C1.82574 3.81491 3.15244 3.81139 4.48089 3.81842C4.6531 3.81842 4.76204 3.77801 4.86221 3.62337C5.21365 3.08391 5.6758 2.66218 6.2504 2.35994C6.32772 2.31952 6.40504 2.2053 6.41734 2.11744C6.56494 0.934837 7.61576 0 8.8089 0C10.0811 0 11.0037 0.602724 11.3709 1.67462C11.3885 1.72558 11.4201 1.7783 11.4184 1.83101C11.4113 2.20882 11.645 2.38805 11.9455 2.5585C12.4042 2.82033 12.7784 3.1911 13.0561 3.64621C13.1369 3.77976 13.2283 3.81666 13.3759 3.81666C14.6956 3.81139 16.017 3.81315 17.3367 3.81315C17.8076 3.81315 17.9007 3.90452 17.9007 4.37194C17.9007 5.23122 17.9007 6.0905 17.9007 6.94977C17.9007 7.14834 17.8691 7.33285 17.6477 7.39962C17.3736 7.48221 17.1644 7.31176 17.1627 7.00073C17.1592 6.275 17.1627 5.54752 17.1627 4.82179V4.55821H13.5586C13.5868 4.99751 13.6237 5.42978 13.6395 5.86382C13.65 6.16957 13.5235 6.28555 13.2142 6.28555C10.3711 6.28555 7.5279 6.28555 4.68473 6.28555C4.3737 6.28555 4.25772 6.1766 4.26475 5.86206C4.27705 5.42803 4.3122 4.99575 4.33856 4.55469H0.753844V23.2462H17.1258C17.1258 23.1231 17.1188 23.0001 17.1258 22.8789C17.1434 22.6434 17.2927 22.4976 17.493 22.5064C17.6811 22.5134 17.8498 22.6856 17.8568 22.8965C17.8638 23.139 17.8849 23.385 17.848 23.6204C17.8269 23.7557 17.7039 23.8735 17.6266 23.9982H0.237223V24ZM4.98872 5.54927H12.8558C12.8558 5.4825 12.861 5.42803 12.8558 5.37531C12.731 4.21028 12.123 3.39318 11.0564 2.91873C10.8508 2.82735 10.7295 2.71314 10.726 2.46888C10.7155 1.46551 9.93879 0.731 8.90731 0.732757C7.88285 0.734515 7.11319 1.46024 7.09738 2.45307C7.09386 2.67975 6.99546 2.80451 6.80568 2.90994C6.52101 3.06809 6.22756 3.228 5.98331 3.44062C5.35422 3.98536 5.01157 4.68297 4.98872 5.54927Z" fill="#020B1C"/>
<path d="M2.15082 14.6638C2.15082 14.2421 2.14731 13.8204 2.15082 13.3986C2.15258 13.0999 2.2668 12.9857 2.56025 12.9857C3.34924 12.9839 4.13823 12.9839 4.92722 12.9857C5.22419 12.9857 5.34368 13.1034 5.34368 13.3934C5.34543 14.2456 5.34543 15.0961 5.34368 15.9484C5.34368 16.2418 5.22594 16.3613 4.93249 16.3613C4.1435 16.3631 3.35451 16.3631 2.56552 16.3613C2.26856 16.3613 2.15434 16.2488 2.15082 15.9536C2.14731 15.5249 2.15082 15.0943 2.15082 14.6656V14.6638ZM4.60038 15.6233V13.7325H2.88534V15.6233H4.60038Z" fill="#020B1C"/>
<path d="M5.34544 9.80343C5.34544 10.2339 5.34895 10.6627 5.34544 11.0932C5.34368 11.3603 5.22595 11.4851 4.96237 11.4868C4.15054 11.4903 3.33695 11.4903 2.52511 11.4868C2.27383 11.4868 2.15434 11.3656 2.15434 11.109C2.15083 10.2339 2.15083 9.35885 2.15434 8.48376C2.15434 8.23424 2.28086 8.11299 2.5339 8.11299C3.34573 8.10947 4.15932 8.10947 4.97115 8.11299C5.21892 8.11299 5.34192 8.24126 5.34368 8.49255C5.34895 8.93009 5.34368 9.36764 5.34368 9.80518L5.34544 9.80343ZM2.89061 8.81763V10.7189H4.60038V8.81763H2.89061Z" fill="#020B1C"/>
<path d="M2.15082 19.5753C2.15082 19.1535 2.14907 18.7318 2.15082 18.3101C2.15258 18.0078 2.25801 17.8954 2.55674 17.8936C3.34573 17.8883 4.13472 17.8883 4.92195 17.8936C5.22243 17.8936 5.34368 18.0254 5.34368 18.3259C5.34368 19.1693 5.34543 20.0128 5.34368 20.8563C5.34368 21.1462 5.22067 21.2727 4.93249 21.2745C4.1435 21.278 3.35627 21.278 2.56728 21.2745C2.27559 21.2745 2.15434 21.1515 2.15082 20.8633C2.14731 20.4345 2.15082 20.004 2.15082 19.5753ZM4.60038 18.6299H2.88885V20.5206H4.60038V18.6299Z" fill="#020B1C"/>
<path d="M8.97934 9.42041C9.81578 9.42041 10.6505 9.42041 11.4869 9.42041C11.7803 9.42041 11.9156 9.5276 11.9262 9.75779C11.9367 9.99502 11.7874 10.1461 11.5027 10.1479C9.80875 10.1532 8.11304 10.1532 6.41909 10.1479C6.13442 10.1479 6.00263 10.0143 6.00614 9.77888C6.0079 9.5399 6.15199 9.42217 6.45072 9.42217C7.29418 9.42217 8.13764 9.42217 8.9811 9.42217L8.97934 9.42041Z" fill="#020B1C"/>
<path d="M8.47327 19.925C7.71591 19.925 6.96031 19.925 6.20295 19.925C5.8972 19.925 5.75311 19.8108 5.75135 19.577C5.75135 19.3521 5.91829 19.2028 6.19241 19.201C7.72821 19.1992 9.26577 19.1975 10.8016 19.201C11.1161 19.201 11.2901 19.3855 11.2303 19.6386C11.1794 19.86 11.0247 19.9267 10.8121 19.925C10.0319 19.9215 9.25172 19.925 8.47151 19.925H8.47327Z" fill="#020B1C"/>
<path d="M7.84069 15.0487C7.34867 15.0487 6.85665 15.0504 6.36639 15.0487C6.11335 15.0487 5.96574 14.9134 5.96223 14.6955C5.95871 14.4776 6.10632 14.3335 6.35584 14.3317C7.33988 14.3282 8.32216 14.3282 9.3062 14.3317C9.57154 14.3317 9.71563 14.4793 9.70685 14.7131C9.69806 14.9345 9.56451 15.0487 9.2939 15.0487C8.81067 15.0504 8.32568 15.0487 7.84244 15.0487H7.84069Z" fill="#020B1C"/>
<path d="M7.49803 2.83976C7.49803 2.04902 8.13414 1.40763 8.91962 1.41115C9.7086 1.41466 10.3219 2.03144 10.3236 2.8257C10.3271 3.61821 9.69103 4.26134 8.90556 4.25783C8.12887 4.25432 7.49803 3.61996 7.49803 2.83976ZM8.90907 2.15269C8.53127 2.15269 8.222 2.4602 8.22025 2.83449C8.22025 3.20877 8.52776 3.51629 8.90731 3.51804C9.30796 3.52156 9.60669 3.22459 9.60493 2.82746C9.60317 2.45493 9.29039 2.15093 8.91083 2.15093L8.90907 2.15269Z" fill="#020B1C"/>
</svg>
