<svg width="22" height="24" viewBox="0 0 22 24" fill="none" xmlns="http://www.w3.org/2000/svg">
<path d="M0 5.38977C0.135315 5.09629 0.244273 4.78348 0.414735 4.51285C0.611557 4.20356 0.926117 4.01728 1.27231 3.89075C2.53408 3.42505 3.39518 2.5622 3.86264 1.29867C4.17544 0.451634 4.84323 0 5.75002 0C9.18738 0 12.6247 0 16.0621 0C16.9548 0 17.6226 0.451633 17.9337 1.28637C18.4081 2.56396 19.278 3.43384 20.5609 3.90129C21.3201 4.1772 21.8033 4.88364 21.7998 5.68851C21.7928 6.92216 21.8104 8.15757 21.7559 9.38947C21.6592 11.558 21.1162 13.6229 20.1778 15.5771C18.3695 19.3395 15.5577 22.0845 11.7513 23.8049C11.5756 23.884 11.3893 23.9367 11.2066 24H10.5968C10.4087 23.9315 10.2137 23.8752 10.0309 23.7944C6.97313 22.4219 4.52516 20.3324 2.70455 17.5189C1.31449 15.3715 0.456908 13.0254 0.142344 10.4861C0.0913813 10.0696 0.0492036 9.65132 0.00351275 9.23307V5.38977H0ZM10.9201 1.40411C9.21726 1.40411 7.51439 1.40411 5.81153 1.40411C5.41964 1.40411 5.29662 1.48847 5.16131 1.84345C4.54975 3.45142 3.4356 4.56205 1.83466 5.18591C1.50077 5.31595 1.40763 5.44599 1.40763 5.79746C1.40763 6.6568 1.40412 7.51615 1.40763 8.37549C1.4129 9.53358 1.5201 10.6864 1.79952 11.8093C3.02965 16.7404 5.92927 20.3096 10.537 22.4817C10.7936 22.6029 11.0133 22.5976 11.2681 22.4817C14.8425 20.8368 17.4346 18.2148 19.0566 14.6369C19.8228 12.9446 20.2692 11.1644 20.3465 9.30512C20.3939 8.15933 20.3816 7.01004 20.3922 5.86249C20.3957 5.43194 20.3131 5.31771 19.9159 5.16306C18.3379 4.54624 17.2501 3.43912 16.642 1.86102C16.4979 1.48847 16.3819 1.40587 15.9795 1.40587C14.2925 1.40587 12.6054 1.40587 10.9184 1.40587L10.9201 1.40411Z" fill="#020B1C"/>
<path d="M7.96251 9.09243C7.96251 8.43695 7.96778 7.79025 7.96251 7.14355C7.95724 6.56538 8.10837 6.03466 8.41415 5.54612C9.10303 4.44778 10.4421 3.93113 11.6933 4.27908C12.9288 4.62176 13.8109 5.75349 13.832 7.04162C13.8443 7.71995 13.8338 8.39829 13.8338 9.08541C14.0166 9.12056 14.187 9.13989 14.3504 9.18558C15.0499 9.38064 15.5577 9.9799 15.5648 10.7039C15.5823 12.1959 15.5964 13.6879 15.5525 15.1781C15.5156 16.4891 14.3557 17.721 13.0289 17.9512C12.876 17.9776 12.7196 18.0004 12.565 18.0004C11.4561 18.0039 10.3472 18.018 9.23834 18.0004C7.65498 17.9723 6.28425 16.656 6.2368 15.0709C6.19287 13.6352 6.20869 12.1959 6.22802 10.7602C6.23856 9.885 6.86593 9.2383 7.73581 9.1311C7.80435 9.12231 7.87289 9.11001 7.96075 9.09419L7.96251 9.09243ZM10.8973 10.5247C9.9448 10.5247 8.99231 10.5247 8.03984 10.5247C7.69891 10.5247 7.63038 10.595 7.63038 10.9394C7.63038 12.2363 7.62335 13.5315 7.63213 14.8284C7.63916 15.8582 8.38427 16.5928 9.41056 16.5963C10.3701 16.5998 11.3331 16.5682 12.2908 16.6051C13.3189 16.6455 14.2011 15.8371 14.173 14.7335C14.1396 13.477 14.1659 12.2187 14.1642 10.9622C14.1642 10.5879 14.1044 10.5247 13.7301 10.5247C12.7847 10.5247 11.841 10.5247 10.8955 10.5247H10.8973ZM9.37718 9.09069H12.4103C12.4174 9.05027 12.4262 9.02741 12.4262 9.00633C12.4262 8.35084 12.4349 7.6936 12.4226 7.03811C12.4086 6.26313 11.7461 5.61114 10.957 5.57951C10.1785 5.54788 9.42989 6.15592 9.38596 6.92036C9.34378 7.6356 9.37718 8.35436 9.37718 9.09069Z" fill="#020B1C"/>
<path d="M11.6055 13.5684C11.6055 13.7793 11.6125 13.9902 11.6055 14.2011C11.5861 14.6298 11.2979 14.9286 10.906 14.9339C10.5106 14.9391 10.2049 14.6298 10.1943 14.1905C10.1838 13.7687 10.1838 13.347 10.1943 12.9252C10.2066 12.4982 10.5036 12.1977 10.892 12.1924C11.2786 12.1889 11.5809 12.4877 11.602 12.9129C11.6125 13.1308 11.6037 13.3505 11.6037 13.5684H11.6055Z" fill="#020B1C"/>
</svg>
