<svg width="16" height="16" viewBox="0 0 16 16" fill="none" xmlns="http://www.w3.org/2000/svg">
<path d="M8.00065 14.6673C4.31865 14.6673 1.33398 11.6827 1.33398 8.00065C1.33398 4.31865 4.31865 1.33398 8.00065 1.33398C11.6827 1.33398 14.6673 4.31865 14.6673 8.00065C14.6673 11.6827 11.6827 14.6673 8.00065 14.6673ZM7.33398 10.0007V11.334H8.66732V10.0007H7.33398ZM8.66732 8.90398C9.2031 8.7425 9.66306 8.39395 9.96342 7.92181C10.2638 7.44967 10.3846 6.88535 10.3038 6.33163C10.223 5.7779 9.94606 5.27161 9.52333 4.90496C9.1006 4.5383 8.56023 4.33568 8.00065 4.33398C7.46122 4.33394 6.93843 4.52075 6.52118 4.86265C6.10393 5.20454 5.81799 5.6804 5.71198 6.20932L7.01998 6.47132C7.0571 6.28561 7.1462 6.11425 7.2769 5.9772C7.40759 5.84014 7.57453 5.74301 7.75827 5.69712C7.94201 5.65123 8.135 5.65846 8.3148 5.71796C8.49459 5.77747 8.65379 5.88681 8.77387 6.03326C8.89395 6.17971 8.96998 6.35724 8.99311 6.54521C9.01623 6.73318 8.9855 6.92385 8.9045 7.09504C8.82349 7.26623 8.69554 7.41089 8.53553 7.5122C8.37553 7.61351 8.19004 7.66731 8.00065 7.66732C7.82384 7.66732 7.65427 7.73756 7.52925 7.86258C7.40422 7.9876 7.33398 8.15717 7.33398 8.33398V9.33398H8.66732V8.90398Z" fill="#9CA3AF"/>
</svg>
