<svg width="66" height="68" viewBox="0 0 66 68" fill="none" xmlns="http://www.w3.org/2000/svg">
<path d="M65.8393 28.4707C65.8441 26.5786 65.4081 24.7113 64.5658 23.017C63.7235 21.3227 62.498 19.8479 60.9866 18.7095C60.652 18.4588 60.4074 18.1066 60.2893 17.7055C59.2465 14.1183 56.8558 11.0738 53.6182 9.21C50.3806 7.34619 46.5473 6.80768 42.9214 7.70731C42.538 7.80139 42.1349 7.77677 41.7658 7.6367C41.3966 7.49663 41.0787 7.24771 40.8542 6.92293C38.9989 4.22361 36.3585 2.16016 33.2907 1.0124C30.223 -0.13536 26.8766 -0.311896 23.7052 0.506746C20.5337 1.32539 17.6908 3.0996 15.5619 5.58876C13.433 8.07792 12.1211 11.1616 11.8042 14.4216C11.7723 14.7557 11.6544 15.0758 11.462 15.3508C11.2695 15.6257 11.0091 15.8461 10.7061 15.9904C10.5143 16.081 10.3191 16.1821 10.1309 16.2867C9.96959 16.3772 9.79568 16.443 9.61491 16.4819C6.90912 17.0964 4.48669 18.5985 2.73328 20.7489C0.952257 22.9269 -0.0141916 25.6573 0.000157512 28.4707C0.0130779 31.738 1.32148 34.8667 3.63832 37.1705C5.95516 39.4742 9.09123 40.7649 12.3585 40.7593H53.4949C56.7597 40.7612 59.8922 39.4689 62.206 37.1655C64.5199 34.8622 65.8264 31.7356 65.8393 28.4707Z" fill="#F8FDFF"/>
<path d="M17.4309 58.4236C17.7348 58.4232 18.0343 58.3517 18.3056 58.2147C18.5768 58.0777 18.8122 57.879 18.9928 57.6347C19.1735 57.3903 19.2944 57.107 19.3458 56.8075C19.3972 56.5081 19.3778 56.2007 19.289 55.9101L16.9394 48.2894C16.7886 47.7966 16.4483 47.3838 15.9933 47.1419C15.5383 46.9 15.0058 46.8488 14.513 46.9995C14.0202 47.1502 13.6075 47.4905 13.3656 47.9455C13.1237 48.4006 13.0724 48.9331 13.2231 49.4259L15.5623 57.057C15.6868 57.4546 15.9354 57.8019 16.2717 58.0478C16.608 58.2937 17.0143 58.4254 17.4309 58.4236Z" fill="#44C2E4"/>
<path d="M28.074 67.62C28.2665 67.6196 28.4579 67.5914 28.6423 67.5364C28.8876 67.4616 29.1157 67.339 29.3134 67.1756C29.5111 67.0122 29.6745 66.8113 29.7941 66.5844C29.9137 66.3575 29.9872 66.1091 30.0103 65.8537C30.0334 65.5982 30.0056 65.3408 29.9287 65.0961L27.5929 57.4684C27.4345 56.9855 27.093 56.5839 26.6418 56.3499C26.1906 56.116 25.6656 56.0682 25.1796 56.217C24.6936 56.3658 24.2853 56.6992 24.0423 57.1456C23.7994 57.5921 23.7412 58.116 23.8802 58.6049L26.2159 66.2325C26.3357 66.6326 26.581 66.9836 26.9156 67.2334C27.2502 67.4833 27.6564 67.6189 28.074 67.62Z" fill="#44C2E4"/>
<path d="M41.6175 55.7079C41.3719 55.7822 41.1435 55.9046 40.9455 56.0679C40.7476 56.2312 40.584 56.4322 40.4644 56.6592C40.3447 56.8862 40.2713 57.1347 40.2484 57.3903C40.2256 57.6459 40.2537 57.9035 40.3311 58.1482L42.6703 65.7793C42.7925 66.1759 43.0385 66.5229 43.3723 66.7694C43.706 67.016 44.11 67.1491 44.525 67.1493C44.7175 67.1506 44.9092 67.1224 45.0932 67.0657C45.3386 66.9909 45.5668 66.8683 45.7646 66.705C45.9625 66.5416 46.126 66.3408 46.2459 66.114C46.3658 65.8871 46.4397 65.6388 46.4632 65.3834C46.4867 65.1279 46.4595 64.8703 46.3831 64.6254L44.0439 57.0047C43.9705 56.7597 43.8494 56.5317 43.6875 56.3337C43.5257 56.1357 43.3262 55.9717 43.1007 55.8512C42.8751 55.7306 42.628 55.6559 42.3734 55.6313C42.1189 55.6067 41.862 55.6327 41.6175 55.7079Z" fill="#44C2E4"/>
<path d="M33.676 58.4236C33.9799 58.4232 34.2794 58.3517 34.5507 58.2147C34.8219 58.0777 35.0573 57.879 35.2379 57.6347C35.4186 57.3903 35.5394 57.107 35.5909 56.8075C35.6423 56.5081 35.6229 56.2007 35.5341 55.9101L33.1984 48.2894C33.0477 47.7966 32.7074 47.3838 32.2523 47.1419C31.7973 46.9 31.2648 46.8488 30.772 46.9995C30.2792 47.1502 29.8665 47.4905 29.6246 47.9455C29.3827 48.4006 29.3315 48.9331 29.4822 49.4259L31.8214 57.057C31.9451 57.4523 32.1916 57.7979 32.5251 58.0437C32.8586 58.2894 33.2617 58.4225 33.676 58.4236Z" fill="#44C2E4"/>
<path d="M49.9356 58.4236C50.2395 58.4232 50.539 58.3517 50.8103 58.2147C51.0815 58.0777 51.3169 57.8791 51.4975 57.6347C51.6782 57.3903 51.7991 57.1071 51.8505 56.8076C51.9019 56.5081 51.8825 56.2007 51.7937 55.9101L49.4545 48.2894C49.2961 47.8065 48.9546 47.4049 48.5034 47.1709C48.0521 46.9369 47.5272 46.8892 47.0412 47.038C46.5551 47.1868 46.1468 47.5202 45.9039 47.9666C45.661 48.4131 45.6028 48.937 45.7418 49.4259L48.081 57.057C48.2047 57.4524 48.4513 57.798 48.7847 58.0437C49.1182 58.2894 49.5214 58.4225 49.9356 58.4236Z" fill="#44C2E4"/>
</svg>
