<svg width="24" height="25" viewBox="0 0 24 25" fill="none" xmlns="http://www.w3.org/2000/svg">
<path d="M10.5595 0C10.9885 0.0769958 11.4285 0.131994 11.8465 0.241988C12.966 0.51295 14.013 1.02419 14.9152 1.74024C15.8174 2.45629 16.5531 3.36001 17.0712 4.38875C17.1743 4.6038 17.3283 4.79041 17.52 4.93227C17.7118 5.07414 17.9353 5.16699 18.1711 5.20273C19.5578 5.48152 20.8299 6.16716 21.8251 7.1722C22.8204 8.17724 23.4936 9.45605 23.7588 10.8454C24.0542 11.9611 24.0787 13.1312 23.8299 14.2582C23.5812 15.3852 23.0664 16.4364 22.3288 17.3241C21.8316 17.9427 21.2282 18.4678 20.5469 18.875C20.4354 18.9509 20.31 19.0038 20.1778 19.0305C20.0456 19.0572 19.9094 19.0573 19.7773 19.0306C19.6451 19.004 19.5195 18.9512 19.408 18.8753C19.2965 18.7995 19.2014 18.7021 19.1281 18.589C19.0548 18.4751 19.0054 18.3475 18.9829 18.2139C18.9604 18.0804 18.9653 17.9436 18.9971 17.812C19.029 17.6804 19.0872 17.5566 19.1683 17.4481C19.2495 17.3397 19.3517 17.2488 19.469 17.1811C20.1008 16.8016 20.6425 16.2893 21.0566 15.6796C21.4706 15.0699 21.7472 14.3775 21.8669 13.6503C22.1554 12.2808 21.911 10.8529 21.1835 9.65734C20.4559 8.4618 19.2999 7.58859 17.951 7.2156C17.6079 7.14219 17.27 7.04665 16.9392 6.92961C16.2314 6.62999 15.6647 6.07128 15.3552 5.36771C14.7444 4.09 13.6942 3.07483 12.3964 2.50786C11.5665 2.14489 10.6654 1.97362 9.76018 2.0068C8.85498 2.03998 7.96893 2.27675 7.16783 2.6995C6.36672 3.12225 5.67122 3.72009 5.13297 4.44863C4.59471 5.17717 4.22754 6.01767 4.05881 6.90762C3.92137 7.71947 3.92137 8.54865 4.05881 9.3605C4.1289 9.82719 4.08341 10.3039 3.92615 10.7489C3.76888 11.1938 3.50471 11.5933 3.15691 11.9123C2.59431 12.4337 2.20957 13.1185 2.05697 13.8702C1.89039 14.6885 2.02014 15.5394 2.42313 16.2709C2.82612 17.0023 3.47611 17.5666 4.25685 17.863C4.41574 17.9149 4.56067 18.0022 4.68074 18.1185C4.80082 18.2348 4.89288 18.3769 4.94982 18.534C5.01476 18.712 5.02534 18.9053 4.9803 19.0894C4.93526 19.2734 4.83666 19.44 4.69686 19.5679C4.56782 19.7096 4.39741 19.8071 4.20986 19.8466C4.02231 19.8861 3.82706 19.8656 3.65183 19.7879C2.79406 19.4914 2.0259 18.9814 1.41973 18.306C0.813556 17.6305 0.389302 16.8119 0.186996 15.9271C-0.0684603 14.9839 -0.0620413 13.9889 0.205391 13.049C0.472824 12.1091 0.991171 11.2599 1.70492 10.5924C1.87292 10.4397 1.99796 10.2455 2.06745 10.0293C2.13693 9.81316 2.14854 9.58254 2.10102 9.3605C1.9076 8.28475 1.94275 7.18033 2.20427 6.11909C2.46579 5.05784 2.9477 4.06353 3.6188 3.20083C4.26658 2.32593 5.09084 1.59678 6.03821 1.06056C6.98559 0.52435 8.03498 0.193001 9.1185 0.0879804H9.29453L10.5595 0Z" fill="white"/>
<path d="M17.9843 16.0151C17.9478 16.1795 17.9 16.3412 17.8413 16.4991C16.866 18.7943 15.8798 21.0932 14.8825 23.3957C14.837 23.5341 14.7618 23.6609 14.6622 23.7672C14.5626 23.8735 14.441 23.9568 14.3058 24.0113C14.1707 24.0658 14.0254 24.0901 13.8799 24.0825C13.7345 24.075 13.5923 24.0358 13.4636 23.9677C13.2289 23.8436 13.0524 23.6321 12.9721 23.379C12.8919 23.1259 12.9143 22.8515 13.0346 22.6148L14.8165 18.457C15.2125 17.522 15.6084 16.5871 16.0154 15.6522C16.0804 15.4828 16.1928 15.3358 16.3391 15.2285C16.4854 15.1213 16.6593 15.0583 16.8403 15.0472C17.021 15.0194 17.206 15.0453 17.3722 15.1215C17.5383 15.1978 17.6786 15.3211 17.7754 15.4762C17.8611 15.6492 17.931 15.8296 17.9843 16.0151Z" fill="white"/>
<path d="M10.0205 24.0777C9.84573 24.0939 9.66969 24.0644 9.50976 23.992C9.34983 23.9197 9.21148 23.807 9.10829 23.6649C9.00511 23.5229 8.94067 23.3565 8.92125 23.182C8.90184 23.0076 8.92808 22.831 8.99752 22.6698L10.0975 20.118C10.7244 18.666 11.3515 17.2031 11.9674 15.7182C12.0251 15.5737 12.1128 15.4432 12.2247 15.3351C12.3366 15.227 12.47 15.1439 12.6164 15.0912C12.8051 15.0139 13.0136 14.9988 13.2114 15.0483C13.4093 15.0978 13.5862 15.2091 13.7163 15.3662C13.8526 15.5107 13.9423 15.6929 13.9737 15.8891C14.0051 16.0852 13.9768 16.2863 13.8923 16.4661L12.6824 19.271C12.0995 20.6239 11.5164 21.9768 10.9444 23.3408C10.8886 23.5458 10.769 23.7277 10.6029 23.8602C10.4367 23.9927 10.2328 24.0688 10.0205 24.0777Z" fill="white"/>
<path d="M9.92165 16.0702C9.90933 16.2018 9.87966 16.3312 9.83357 16.4551C8.83629 18.7943 7.83169 21.1372 6.81975 23.4838C6.73842 23.6769 6.59738 23.8387 6.4172 23.9457C6.23703 24.0526 6.0272 24.0989 5.81876 24.0777C5.6217 24.0705 5.43216 24.0004 5.27779 23.8777C5.12342 23.755 5.01243 23.5861 4.96091 23.3958C4.88933 23.1591 4.88933 22.9065 4.96091 22.6698C5.93986 20.3379 6.94076 18.0061 7.94171 15.6852C8.02509 15.4715 8.18094 15.2938 8.38198 15.1832C8.58302 15.0726 8.81647 15.0362 9.04165 15.0802C9.28281 15.1119 9.50454 15.2294 9.66614 15.4112C9.82773 15.593 9.91844 15.8269 9.92165 16.0702Z" fill="white"/>
</svg>
