<svg width="11" height="15" viewBox="0 0 11 15" fill="none" xmlns="http://www.w3.org/2000/svg">
<path d="M3.43594 8.88352L5.81799 10.6949M4.06946 2.00397L1.30558 8.30932C0.925803 9.17571 1.15118 10.2836 1.80896 10.7838L5.38205 13.5009C6.03983 14.0011 6.88094 13.7043 7.26071 12.8379L10.0246 6.53253C10.2335 6.05597 10.2666 5.48019 10.1146 4.96763L9.15318 1.72658C8.91911 0.937453 8.30102 0.46743 7.66512 0.594993L5.05341 1.11891C4.64039 1.20177 4.27835 1.52742 4.06946 2.00397ZM6.34606 5.86739C6.8394 6.24254 7.47024 6.01991 7.75507 5.37011C8.03989 4.72032 7.87086 3.88944 7.37752 3.51428C6.88418 3.13912 6.25335 3.36175 5.96852 4.01155C5.68369 4.66134 5.85272 5.49223 6.34606 5.86739Z" stroke="#464646" stroke-linecap="round"/>
</svg>
