<svg width="20" height="20" viewBox="0 0 20 20" fill="none" xmlns="http://www.w3.org/2000/svg">
<path d="M15.4449 16.3052C13.9328 17.6155 11.9982 18.3355 9.9974 18.3327C5.3949 18.3327 1.66406 14.6018 1.66406 9.99935C1.66406 5.39685 5.3949 1.66602 9.9974 1.66602C14.5999 1.66602 18.3307 5.39685 18.3307 9.99935C18.3307 11.7793 17.7724 13.4293 16.8224 14.7827L14.1641 9.99935H16.6641C16.6639 8.46285 16.1331 6.97357 15.1613 5.78342C14.1895 4.59328 12.8364 3.77534 11.331 3.46798C9.82557 3.16062 8.26017 3.3827 6.89963 4.09665C5.53908 4.81061 4.46692 5.97261 3.8645 7.38608C3.26208 8.79956 3.1664 10.3777 3.59364 11.8536C4.02088 13.3295 4.94481 14.6126 6.20913 15.4857C7.47345 16.3587 9.00056 16.7683 10.5321 16.6451C12.0636 16.5219 13.5056 15.8734 14.6141 14.8093L15.4449 16.3052Z" fill="#DC2626"/>
</svg>
