<svg width="28" height="28" viewBox="0 0 28 28" fill="none" xmlns="http://www.w3.org/2000/svg">
<path d="M22.7161 24.0897C20.2967 26.1861 17.2014 27.3381 14.0001 27.3337C6.63608 27.3337 0.666748 21.3643 0.666748 14.0003C0.666748 6.63633 6.63608 0.666992 14.0001 0.666992C21.3641 0.666992 27.3334 6.63633 27.3334 14.0003C27.3334 16.8483 26.4401 19.4883 24.9201 21.6537L20.6667 14.0003H24.6667C24.6665 11.5419 23.8172 9.15908 22.2623 7.25485C20.7075 5.35062 18.5426 4.04192 16.1339 3.55014C13.7252 3.05836 11.2205 3.41368 9.04365 4.55601C6.86678 5.69834 5.15131 7.55754 4.18745 9.8191C3.22358 12.0807 3.07049 14.6057 3.75407 16.9672C4.43765 19.3286 5.91594 21.3815 7.93886 22.7784C9.96178 24.1754 12.4051 24.8307 14.8556 24.6335C17.3061 24.4363 19.6132 23.3988 21.3867 21.6963L22.7161 24.0897Z" fill="#4B5563"/>
</svg>
