<svg width="18" height="18" viewBox="0 0 18 18" fill="none" xmlns="http://www.w3.org/2000/svg">
<path d="M14.4473 15.3057C12.9352 16.616 11.0007 17.336 8.99984 17.3332C4.39734 17.3332 0.666504 13.6023 0.666504 8.99984C0.666504 4.39734 4.39734 0.666504 8.99984 0.666504C13.6023 0.666504 17.3332 4.39734 17.3332 8.99984C17.3332 10.7798 16.7748 12.4298 15.8248 13.7832L13.1665 8.99984H15.6665C15.6664 7.46334 15.1355 5.97406 14.1637 4.78391C13.1919 3.59377 11.8389 2.77583 10.3334 2.46847C8.82801 2.16111 7.26261 2.38319 5.90207 3.09714C4.54152 3.8111 3.46936 4.9731 2.86694 6.38657C2.26452 7.80005 2.16884 9.37822 2.59608 10.8541C3.02332 12.33 3.94725 13.613 5.21157 14.4861C6.4759 15.3592 8.003 15.7688 9.53454 15.6456C11.0661 15.5223 12.5081 14.8739 13.6165 13.8098L14.4473 15.3057Z" fill="#DC2626"/>
</svg>
