<svg width="20" height="20" viewBox="0 0 20 20" fill="none" xmlns="http://www.w3.org/2000/svg">
<g clip-path="url(#clip0_3159_27235)">
<path d="M4.16667 4.16667V15.8333H15.8333V6.52333L13.4767 4.16667H4.16667ZM3.33333 2.5H14.1667L17.2558 5.58917C17.4121 5.74541 17.5 5.95734 17.5 6.17833V16.6667C17.5 16.8877 17.4122 17.0996 17.2559 17.2559C17.0996 17.4122 16.8877 17.5 16.6667 17.5H3.33333C3.11232 17.5 2.90036 17.4122 2.74408 17.2559C2.5878 17.0996 2.5 16.8877 2.5 16.6667V3.33333C2.5 3.11232 2.5878 2.90036 2.74408 2.74408C2.90036 2.5878 3.11232 2.5 3.33333 2.5ZM10 15C9.33696 15 8.70107 14.7366 8.23223 14.2678C7.76339 13.7989 7.5 13.163 7.5 12.5C7.5 11.837 7.76339 11.2011 8.23223 10.7322C8.70107 10.2634 9.33696 10 10 10C10.663 10 11.2989 10.2634 11.7678 10.7322C12.2366 11.2011 12.5 11.837 12.5 12.5C12.5 13.163 12.2366 13.7989 11.7678 14.2678C11.2989 14.7366 10.663 15 10 15ZM5 5H12.5V8.33333H5V5Z" fill="white"/>
</g>
<defs>
<clipPath id="clip0_3159_27235">
<rect width="20" height="20" fill="white"/>
</clipPath>
</defs>
</svg>
