<svg width="21" height="20" viewBox="0 0 21 20" fill="none" xmlns="http://www.w3.org/2000/svg">
<path d="M6.33333 15.8333V10.8333H14.6667V15.8333H16.3333V6.52333L13.9767 4.16667H4.66667V15.8333H6.33333ZM3.83333 2.5H14.6667L18 5.83333V16.6667C18 16.8877 17.9122 17.0996 17.7559 17.2559C17.5996 17.4122 17.3877 17.5 17.1667 17.5H3.83333C3.61232 17.5 3.40036 17.4122 3.24408 17.2559C3.0878 17.0996 3 16.8877 3 16.6667V3.33333C3 3.11232 3.0878 2.90036 3.24408 2.74408C3.40036 2.5878 3.61232 2.5 3.83333 2.5ZM8 12.5V15.8333H13V12.5H8Z" fill="#6B7280"/>
</svg>
