<svg width="20" height="20" viewBox="0 0 20 20" fill="none" xmlns="http://www.w3.org/2000/svg">
<path d="M15.8307 18.3327H4.16406C3.50102 18.3327 2.86514 18.0693 2.3963 17.6005C1.92745 17.1316 1.66406 16.4957 1.66406 15.8327V2.49935C1.66406 2.27834 1.75186 2.06637 1.90814 1.91009C2.06442 1.75381 2.27638 1.66602 2.4974 1.66602H14.1641C14.3851 1.66602 14.597 1.75381 14.7533 1.91009C14.9096 2.06637 14.9974 2.27834 14.9974 2.49935V12.4993H18.3307V15.8327C18.3307 16.4957 18.0673 17.1316 17.5985 17.6005C17.1297 18.0693 16.4938 18.3327 15.8307 18.3327ZM14.9974 14.166V15.8327C14.9974 16.0537 15.0852 16.2657 15.2415 16.4219C15.3978 16.5782 15.6097 16.666 15.8307 16.666C16.0517 16.666 16.2637 16.5782 16.42 16.4219C16.5763 16.2657 16.6641 16.0537 16.6641 15.8327V14.166H14.9974ZM13.3307 16.666V3.33268H3.33073V15.8327C3.33073 16.0537 3.41853 16.2657 3.57481 16.4219C3.73109 16.5782 3.94305 16.666 4.16406 16.666H13.3307ZM4.9974 5.83268H11.6641V7.49935H4.9974V5.83268ZM4.9974 9.16602H11.6641V10.8327H4.9974V9.16602ZM4.9974 12.4993H9.16406V14.166H4.9974V12.4993Z" fill="#6B7280"/>
</svg>
