<svg width="34" height="36" viewBox="0 0 34 36" fill="none" xmlns="http://www.w3.org/2000/svg">
<path d="M16.5664 13.0986C15.3978 13.0986 14.3035 13.5653 13.475 14.4183C12.6504 15.2713 12.1931 16.3979 12.1931 17.6009C12.1931 18.8039 12.6504 19.9305 13.475 20.7835C14.3035 21.6325 15.3978 22.1032 16.5664 22.1032C17.7349 22.1032 18.8292 21.6325 19.6577 20.7835C20.4823 19.9305 20.9396 18.8039 20.9396 17.6009C20.9396 16.3979 20.4823 15.2713 19.6577 14.4183C19.253 13.9985 18.7714 13.6656 18.2407 13.4391C17.71 13.2125 17.1409 13.0968 16.5664 13.0986V13.0986ZM32.6797 22.574L30.1238 20.3248C30.2449 19.5604 30.3075 18.7798 30.3075 18.0033C30.3075 17.2267 30.2449 16.4421 30.1238 15.6817L32.6797 13.4325C32.8728 13.2624 33.011 13.0357 33.0759 12.7827C33.1408 12.5297 33.1294 12.2624 33.0432 12.0163L33.008 11.9116C32.3046 9.88657 31.2506 8.00945 29.8971 6.37125L29.8268 6.28676C29.6624 6.0878 29.4433 5.94478 29.1985 5.87655C28.9536 5.80832 28.6944 5.81807 28.455 5.90452L25.2816 7.06732C24.1091 6.07753 22.8038 5.29697 21.389 4.75379L20.7754 1.33782C20.7292 1.08049 20.6079 0.843743 20.4278 0.659044C20.2477 0.474346 20.0173 0.350436 19.7671 0.303776L19.6616 0.283658C17.6294 -0.0945528 15.4877 -0.0945528 13.4555 0.283658L13.3499 0.303776C13.0998 0.350436 12.8694 0.474346 12.6893 0.659044C12.5092 0.843743 12.3879 1.08049 12.3416 1.33782L11.7241 4.76989C10.3228 5.31739 9.01733 6.09607 7.85897 7.07537L4.66209 5.90452C4.42278 5.81738 4.16337 5.80728 3.91835 5.87555C3.67332 5.94383 3.45428 6.08725 3.29033 6.28676L3.21998 6.37125C1.8689 8.0112 0.815174 9.88784 0.109081 11.9116L0.0739076 12.0163C-0.10196 12.5192 0.0426424 13.0825 0.437367 13.4325L3.02457 15.7058C2.90342 16.4623 2.8448 17.2348 2.8448 17.9992C2.8448 18.7718 2.90342 19.5443 3.02457 20.2926L0.445183 22.5659C0.252103 22.7361 0.113913 22.9628 0.048989 23.2157C-0.0159352 23.4687 -0.00451768 23.7361 0.0817238 23.9822L0.116897 24.0868C0.824275 26.1107 1.86775 27.9816 3.2278 29.6272L3.29814 29.7117C3.4625 29.9107 3.68155 30.0537 3.92643 30.1219C4.17131 30.1902 4.43052 30.1804 4.66991 30.094L7.86679 28.9231C9.03142 29.9089 10.3289 30.6894 11.732 31.2286L12.3494 34.6607C12.3957 34.918 12.517 35.1547 12.6971 35.3394C12.8772 35.5241 13.1076 35.648 13.3578 35.6947L13.4633 35.7148C15.5155 36.0951 17.6172 36.0951 19.6694 35.7148L19.775 35.6947C20.0251 35.648 20.2555 35.5241 20.4356 35.3394C20.6157 35.1547 20.737 34.918 20.7833 34.6607L21.3968 31.2447C22.8116 30.6975 24.1169 29.9209 25.2894 28.9312L28.4628 30.094C28.7021 30.1811 28.9615 30.1912 29.2065 30.1229C29.4516 30.0546 29.6706 29.9112 29.8346 29.7117L29.9049 29.6272C31.265 27.9736 32.3084 26.1107 33.0158 24.0868L33.051 23.9822C33.219 23.4833 33.0744 22.924 32.6797 22.574ZM16.5664 24.6743C12.7715 24.6743 9.69581 21.5078 9.69581 17.6009C9.69581 13.6941 12.7715 10.5276 16.5664 10.5276C20.3612 10.5276 23.4369 13.6941 23.4369 17.6009C23.4369 21.5078 20.3612 24.6743 16.5664 24.6743Z" fill="#262626"/>
</svg>
