<svg width="86" height="86" viewBox="0 0 86 86" fill="none" xmlns="http://www.w3.org/2000/svg">
<rect width="86" height="86" rx="24" fill="#2196F3"/>
<path d="M20.4934 20.266C22.5054 24.9062 26.1059 27.4862 30.4765 29.3538C39.0445 33.0313 47.5451 36.8436 56.065 40.6366C58.7316 41.8207 61.225 43.3322 63.4392 45.2576C68.8014 49.917 70.3129 55.8665 67.8484 62.5957C67.4825 63.6065 67.0108 64.5885 66.5295 65.7149C64.5271 61.142 61.0132 58.5524 56.71 56.6944C47.6029 52.757 38.5246 48.7233 29.5138 44.5644C27.3381 43.5632 25.2876 42.1192 23.4681 40.55C18 35.8424 16.6618 29.8063 19.3285 22.9327C19.6654 22.0759 20.0698 21.2479 20.4934 20.2756V20.266Z" fill="white"/>
<path d="M18 71V51.6498C23.6318 54.8844 29.1576 58.0517 34.8472 61.3152C29.1962 64.5692 23.651 67.7557 18 71Z" fill="white"/>
<path d="M52.1469 24.6655C57.8075 21.4116 63.3334 18.2443 68.9748 15V34.3213C63.3719 31.1059 57.8364 27.929 52.1469 24.6655Z" fill="white"/>
</svg>
