<svg width="20" height="20" viewBox="0 0 20 20" fill="none" xmlns="http://www.w3.org/2000/svg">
<path d="M3.68436 0H16.2894C16.3176 0.0141702 16.3468 0.0261944 16.3768 0.0359703C17.3865 0.165675 18.3134 0.661836 18.9813 1.43016C19.6492 2.19849 20.0116 3.18542 19.9995 4.2034V15.8013C20.0003 15.9835 19.9883 16.1655 19.9635 16.346C19.8417 17.3636 19.3474 18.3 18.576 18.9747C17.8045 19.6493 16.8106 20.0144 15.7859 19.9996H4.20851C4.01958 19.998 3.83082 19.986 3.64321 19.9636C2.79839 19.859 2.00623 19.4973 1.37386 18.9274C0.741481 18.3575 0.29951 17.6071 0.107891 16.7776L0 16.2638V3.71009C0.0141702 3.68192 0.0262296 3.65272 0.0360056 3.62273C0.132519 2.83576 0.454497 2.09349 0.963243 1.48537C1.47199 0.877242 2.14571 0.429213 2.90328 0.195267C3.15989 0.116002 3.42064 0.0508168 3.68436 0V0ZM15.7756 18.3141H15.9195C16.5473 18.283 17.14 18.0148 17.5777 17.5636C18.0155 17.1125 18.2659 16.512 18.2782 15.8835C18.2782 11.9576 18.2782 8.0334 18.2782 4.11091C18.2754 3.46125 18.0154 2.83912 17.555 2.3807C17.0947 1.92228 16.4715 1.66491 15.8219 1.66492C11.9131 1.66492 8.00083 1.66492 4.08519 1.66492C3.4328 1.66763 2.80811 1.9287 2.34776 2.39097C1.88742 2.85325 1.6289 3.47907 1.62891 4.13146C1.62891 8.03682 1.62891 11.9422 1.62891 15.8475C1.6209 16.2899 1.73646 16.7257 1.96249 17.1061C2.18852 17.4864 2.51604 17.7962 2.90842 18.0006C3.26892 18.2224 3.68816 18.3299 4.11091 18.309C4.11091 18.0983 4.11091 17.903 4.11091 17.7077C4.11091 17.2915 4.1417 16.8753 4.20337 16.4642C4.4263 15.2093 5.05376 14.0619 5.98997 13.1972C6.92618 12.3324 8.11974 11.7978 9.38829 11.675C10.1941 11.5923 11.0082 11.6815 11.7771 11.9366C12.5459 12.1917 13.252 12.6069 13.8486 13.1549C14.4222 13.6589 14.8879 14.2739 15.2173 14.9628C15.5467 15.6516 15.7331 16.4001 15.7653 17.163C15.8167 17.5484 15.7756 17.9236 15.7756 18.3141ZM14.1467 18.3141C14.1423 17.7848 14.1063 17.2563 14.0388 16.7314C13.8504 15.6638 13.2479 14.7138 12.3625 14.0882C11.477 13.4627 10.3803 13.2122 9.31114 13.3913C7.25569 13.7047 5.4881 15.5444 5.81697 18.3141H14.1467Z" fill="white"/>
<path d="M13.309 6.66483C13.3107 7.11175 13.2221 7.55441 13.0486 7.96626C12.875 8.37811 12.6201 8.75067 12.2991 9.06162C11.9781 9.37256 11.5976 9.61548 11.1804 9.77581C10.7632 9.93614 10.3179 10.0106 9.87129 9.99467C8.99984 9.96914 8.17317 9.60286 7.56882 8.97449C6.96447 8.34612 6.63063 7.50579 6.63907 6.634C6.64444 6.19401 6.73646 5.75939 6.9098 5.35495C7.08315 4.95051 7.33442 4.58418 7.64936 4.27688C7.9643 3.96958 8.33677 3.72733 8.74534 3.56395C9.1539 3.40058 9.59063 3.31929 10.0306 3.32472C10.9053 3.34219 11.7383 3.70163 12.3512 4.32599C12.964 4.95036 13.3078 5.78996 13.309 6.66483V6.66483ZM11.6338 6.66483C11.6311 6.22416 11.4538 5.80254 11.1408 5.49238C10.8277 5.18222 10.4044 5.00882 9.96375 5.01019C9.52308 5.01427 9.10208 5.19288 8.79288 5.5069C8.48368 5.82091 8.31153 6.2447 8.31427 6.68539C8.31494 6.90355 8.3587 7.11942 8.44311 7.32059C8.52753 7.52176 8.65096 7.70424 8.80618 7.85755C8.9614 8.01086 9.14545 8.13195 9.34764 8.21387C9.54984 8.29579 9.76618 8.33692 9.98433 8.33489C10.2034 8.33423 10.42 8.2901 10.6219 8.20504C10.8237 8.11998 11.0068 7.99569 11.1602 7.83938C11.3137 7.68307 11.4344 7.49785 11.5158 7.29446C11.5971 7.09107 11.6372 6.87357 11.6338 6.65455V6.66483Z" fill="white"/>
</svg>
