<svg width="24" height="25" viewBox="0 0 24 25" fill="none" xmlns="http://www.w3.org/2000/svg">
<path d="M11.2398 0.0109764C11.338 0.0518517 11.4333 0.099489 11.5249 0.153535C11.6718 0.244707 11.7926 0.372492 11.8752 0.524356C11.9579 0.67622 11.9997 0.846926 11.9965 1.0198C11.9965 2.11636 11.9965 3.21293 11.9965 4.3095V4.55074L13.3892 4.94552L14.376 3.2568C14.6391 2.80721 14.9024 2.35764 15.1766 1.90805C15.2384 1.7857 15.3247 1.67738 15.4302 1.5899C15.5358 1.50242 15.6582 1.43762 15.7899 1.39955C15.9216 1.36149 16.0598 1.35096 16.1958 1.36863C16.3317 1.38631 16.4625 1.43181 16.5801 1.50229C16.6949 1.57186 16.7947 1.66368 16.8736 1.77232C16.9525 1.88095 17.009 2.00425 17.0396 2.13497C17.0702 2.2657 17.0745 2.40122 17.0521 2.5336C17.0296 2.66598 16.9811 2.79254 16.9091 2.90589C16.317 3.93667 15.7138 4.95647 15.1327 5.95435C15.352 6.19559 15.5493 6.44782 15.7796 6.65616C15.8695 6.74261 15.9894 6.79089 16.1141 6.79089C16.2388 6.79089 16.3586 6.74261 16.4485 6.65616L19.0036 4.96744C19.1216 4.88245 19.2567 4.82429 19.3995 4.79701C19.5424 4.76972 19.6894 4.77398 19.8304 4.80949C19.9714 4.84501 20.1031 4.91093 20.2159 5.00261C20.3288 5.0943 20.4202 5.20953 20.4839 5.34027C20.5945 5.55116 20.6232 5.79549 20.5645 6.02626C20.5058 6.25703 20.3638 6.45795 20.1659 6.59037C19.2448 7.21542 18.3236 7.85142 17.3805 8.4326C16.9 8.72773 16.3326 8.84849 15.7734 8.7746C15.2143 8.70072 14.6977 8.4367 14.3102 8.02687C13.6939 7.36474 12.9033 6.88968 12.0293 6.65616C11.2782 6.46321 10.4887 6.47976 9.74635 6.70402C9.00399 6.92827 8.33718 7.35166 7.81852 7.92819C7.37171 8.36707 7.02414 8.89655 6.79906 9.48101C6.57397 10.0655 6.47666 10.6914 6.51367 11.3166C6.51367 11.7552 6.67811 12.1719 6.74391 12.6105C6.8326 13.0813 6.77502 13.568 6.579 14.0051C6.38297 14.4423 6.05788 14.8089 5.64734 15.0559C4.71526 15.648 3.76129 16.1524 2.80727 16.7446C2.66645 16.8343 2.50536 16.8872 2.33877 16.8986C2.17218 16.9099 2.00534 16.8792 1.85367 16.8094C1.702 16.7396 1.57027 16.6328 1.47057 16.4989C1.37086 16.3649 1.30642 16.2081 1.28303 16.0428C1.25438 15.8377 1.28953 15.6288 1.38369 15.4444C1.47785 15.26 1.62645 15.109 1.80936 15.012L4.43017 13.4549C4.77011 13.2465 4.83592 13.093 4.72626 12.7202C4.72626 12.5996 4.72618 12.4899 4.63845 12.3802C4.55073 12.2706 4.63852 12.15 4.57273 12.0074H4.32054C3.3117 12.0074 2.30285 12.0074 1.29401 12.0074C1.02394 12.052 0.746701 12.0008 0.510401 11.8626C0.274102 11.7245 0.0935519 11.508 0 11.2508V10.7793C0.072344 10.5155 0.240698 10.2882 0.471984 10.1421C0.70327 9.99606 0.9808 9.9417 1.2501 9.98974C2.26991 9.98974 3.28977 9.98974 4.32054 9.98974H4.5398L4.93455 8.59708L4.68236 8.44357L1.89704 6.8097C1.77655 6.74888 1.66992 6.66396 1.58354 6.56026C1.49717 6.45655 1.43296 6.33623 1.39494 6.20674C1.35691 6.07724 1.34582 5.94131 1.36241 5.80737C1.379 5.67343 1.42285 5.54432 1.49131 5.42802C1.56011 5.30951 1.65218 5.20606 1.76184 5.12389C1.8715 5.04172 1.99649 4.98249 2.12955 4.94974C2.26261 4.91699 2.40094 4.91139 2.53621 4.93328C2.67148 4.95516 2.80096 5.00407 2.9169 5.07711L3.64067 5.50478L5.95441 6.86452L6.89744 5.87761L6.80977 5.74603C6.26148 4.80298 5.71318 3.85993 5.14297 2.92785C5.06099 2.80721 5.00586 2.67037 4.98126 2.52661C4.95667 2.38284 4.96319 2.23547 5.00041 2.09445C5.03963 1.90526 5.13658 1.73293 5.27803 1.60131C5.41947 1.46969 5.59838 1.38529 5.7899 1.35976C6.00154 1.30154 6.2269 1.31895 6.42707 1.40902C6.62724 1.4991 6.78968 1.65619 6.88647 1.8532C7.45668 2.79625 7.98309 3.75027 8.5862 4.70428L8.71778 4.91263L10.0336 4.55074V4.32047C10.0336 3.2897 10.0336 2.26991 10.0336 1.2501C9.98557 0.9808 10.0399 0.70327 10.1859 0.471984C10.332 0.240698 10.5593 0.072344 10.8231 0L11.2398 0.0109764Z" fill="white"/>
<path d="M14.2879 24.0039H9.52886C8.63352 24.022 7.76691 23.6871 7.11633 23.0718C6.69943 22.6884 6.38193 22.2095 6.19097 21.6763C6.00001 21.1431 5.9413 20.5715 6.02004 20.0106C6.09877 19.4497 6.31262 18.9164 6.64301 18.4563C6.97341 17.9963 7.41046 17.6234 7.91681 17.3696C8.04839 17.3038 8.10324 17.2599 8.07034 17.0955C7.80474 15.6263 8.09253 14.1108 8.87818 12.8412C9.66382 11.5716 10.8917 10.6379 12.325 10.22C13.7086 9.82088 15.1896 9.93375 16.4967 10.538C17.8038 11.1422 18.8494 12.1972 19.4417 13.5097C19.5043 13.6789 19.6101 13.8287 19.7487 13.9441C19.8872 14.0596 20.0537 14.1366 20.2314 14.1677C21.2004 14.411 22.0735 14.941 22.7366 15.6883C23.3998 16.4356 23.8222 17.3655 23.9487 18.3565C24.1305 19.6096 23.8245 20.8847 23.0942 21.919C22.3638 22.9533 21.2646 23.6681 20.0229 23.9161C19.6002 23.9966 19.1703 24.0333 18.74 24.0258C17.2597 24.0258 15.7683 24.0258 14.2879 24.0258V24.0039ZM14.2879 21.9971H16.185C17.2815 21.9971 18.2794 21.9971 19.3211 21.9423C19.8771 21.9166 20.4118 21.7208 20.853 21.3816C21.2942 21.0424 21.6207 20.5759 21.7884 20.0452C22.0005 19.5219 22.0544 18.9479 21.9433 18.3943C21.8322 17.8407 21.561 17.3319 21.1634 16.931C20.7677 16.484 20.236 16.1795 19.6501 16.0647C19.1944 15.9716 18.7695 15.7651 18.4149 15.4641C18.0603 15.1632 17.7875 14.7776 17.6215 14.3431C17.3283 13.6441 16.8341 13.0478 16.2016 12.6301C15.569 12.2123 14.8267 11.9917 14.0687 11.9964C13.4793 11.9802 12.8938 12.0959 12.3549 12.3349C11.816 12.5739 11.3372 12.9302 10.9536 13.3779C10.5701 13.8256 10.2913 14.3533 10.1378 14.9225C9.98423 15.4917 9.95979 16.088 10.0662 16.6678C10.1592 17.0534 10.1592 17.4556 10.0662 17.8412C9.97637 18.1262 9.826 18.3884 9.62537 18.6098C9.42474 18.8313 9.17853 19.0067 8.90374 19.1241C8.54884 19.2787 8.26861 19.5661 8.12308 19.9248C7.97755 20.2835 7.97833 20.685 8.12522 21.0431C8.23856 21.3358 8.44192 21.5848 8.70603 21.7543C8.97015 21.9238 9.28132 22.005 9.59458 21.9862L14.2879 21.9971Z" fill="white"/>
</svg>
