<svg width="68" height="48" viewBox="0 0 68 48" fill="none" xmlns="http://www.w3.org/2000/svg">
<path d="M63.5373 28.4564C63.2553 28.2456 63.0493 27.949 62.9503 27.6111C62.0723 24.5908 60.0594 22.0275 57.3335 20.4582C54.6076 18.889 51.3801 18.4356 48.3273 19.193C48.0045 19.2727 47.665 19.2521 47.3541 19.1342C47.0432 19.0162 46.7755 18.8064 46.5868 18.5326C45.0252 16.2594 42.802 14.5215 40.2189 13.555C37.6359 12.5884 34.818 12.4399 32.1477 13.1296C29.4773 13.8193 27.0838 15.3138 25.2919 17.4104C23.5 19.5069 22.3964 22.1039 22.131 24.8491C22.103 25.1304 22.003 25.3998 21.8405 25.6312C21.678 25.8626 21.4586 26.0481 21.2035 26.1699C21.043 26.2462 20.8816 26.3284 20.7192 26.4165C20.5831 26.4928 20.4368 26.5491 20.2847 26.5838C18.0028 27.0962 15.9593 28.3604 14.4819 30.1735C12.9782 32.0067 12.1603 34.3067 12.169 36.6778C12.183 39.428 13.2867 42.0604 15.2382 43.9981C17.1897 45.9359 19.8299 47.021 22.58 47.0155H57.215C59.9659 47.0202 62.6063 45.9335 64.557 43.9938C66.5077 42.0541 67.6093 39.4199 67.6202 36.669C67.6223 35.0774 67.2546 33.507 66.5461 32.0818C65.8376 30.6566 64.8076 29.4155 63.5373 28.4564Z" fill="#F8FDFF"/>
<path d="M12.2366 20.3671C12.2329 22.382 12.9813 24.3256 14.3352 25.8177C15.7332 24.7659 17.3192 23.9908 19.008 23.5342C19.5972 19.7918 21.4442 16.3618 24.2443 13.81C24.3764 13.6896 24.5115 13.5722 24.6465 13.4548C23.4146 12.6934 22.0018 12.2746 20.554 12.2418C19.1062 12.209 17.6759 12.5634 16.4109 13.2683C15.1459 13.9733 14.092 15.0032 13.3582 16.2516C12.6243 17.5001 12.2371 18.9219 12.2366 20.3701V20.3671Z" fill="#E6C705"/>
<path d="M20.3671 7.86918C20.8004 7.8684 21.2158 7.69591 21.5223 7.38948C21.8287 7.08304 22.0012 6.66765 22.002 6.23429V1.63489C22.002 1.20129 21.8297 0.785449 21.5231 0.478848C21.2165 0.172247 20.8007 0 20.3671 0C19.9335 0 19.5176 0.172247 19.211 0.478848C18.9044 0.785449 18.7322 1.20129 18.7322 1.63489V6.23429C18.7322 6.66789 18.9044 7.08373 19.211 7.39033C19.5176 7.69693 19.9335 7.86918 20.3671 7.86918Z" fill="#E6C705"/>
<path d="M11.8844 8.94348C12.1012 9.31908 12.4583 9.59318 12.8772 9.70547C13.2961 9.81776 13.7425 9.75905 14.1181 9.54225C14.4937 9.32545 14.7678 8.96832 14.8801 8.54943C14.9924 8.13054 14.9336 7.6842 14.7168 7.30859L12.4157 3.32557C12.3083 3.13959 12.1654 2.97658 11.9951 2.84583C11.8247 2.71509 11.6303 2.61918 11.4229 2.56358C11.2154 2.50798 10.9991 2.49377 10.7862 2.52178C10.5733 2.54978 10.368 2.61945 10.182 2.7268C9.99603 2.83415 9.83302 2.97707 9.70228 3.14742C9.57153 3.31777 9.47562 3.5122 9.42002 3.71962C9.36442 3.92703 9.35022 4.14337 9.37822 4.35627C9.40623 4.56918 9.47589 4.77448 9.58324 4.96046L11.8844 8.94348Z" fill="#E6C705"/>
<path d="M3.32556 12.4158L7.30858 14.7287C7.68311 14.945 8.12788 15.0046 8.54618 14.8947C8.96447 14.7848 9.32245 14.5141 9.54223 14.1416C9.6505 13.9565 9.72121 13.7518 9.7503 13.5393C9.77939 13.3267 9.76629 13.1106 9.71177 12.9031C9.65725 12.6957 9.56237 12.501 9.43255 12.3302C9.30273 12.1595 9.14052 12.016 8.9552 11.908L4.97218 9.60681C4.59657 9.39001 4.15024 9.33129 3.73134 9.44359C3.31245 9.55588 2.95532 9.82997 2.73852 10.2056C2.52172 10.5812 2.46301 11.0275 2.5753 11.4464C2.68759 11.8653 2.96169 12.2224 3.3373 12.4392L3.32556 12.4158Z" fill="#E6C705"/>
<path d="M1.63488 22.002H6.23429C6.66789 22.002 7.08372 21.8298 7.39032 21.5232C7.69693 21.2166 7.86918 20.8007 7.86918 20.3671C7.86918 19.9335 7.69693 19.5177 7.39032 19.2111C7.08372 18.9045 6.66789 18.7322 6.23429 18.7322H1.63488C1.42018 18.7322 1.20759 18.7745 1.00924 18.8567C0.810887 18.9388 0.630659 19.0593 0.478846 19.2111C0.327032 19.3629 0.206606 19.5431 0.124445 19.7415C0.0422846 19.9398 0 20.1524 0 20.3671C0 20.5818 0.0422846 20.7944 0.124445 20.9928C0.206606 21.1911 0.327032 21.3714 0.478846 21.5232C0.630659 21.675 0.810887 21.7954 1.00924 21.8776C1.20759 21.9597 1.42018 22.002 1.63488 22.002Z" fill="#E6C705"/>
<path d="M9.54232 26.6161C9.43431 26.4308 9.29082 26.2686 9.12007 26.1387C8.94932 26.0089 8.75464 25.914 8.54719 25.8595C8.33974 25.805 8.12357 25.7919 7.91105 25.821C7.69853 25.8501 7.49384 25.9208 7.30867 26.029L3.32564 28.3302C3.02087 28.5124 2.78368 28.7888 2.64994 29.1177C2.5162 29.4467 2.49319 29.8102 2.58436 30.1534C2.67554 30.4965 2.87596 30.8007 3.15533 31.0198C3.43469 31.239 3.77781 31.3612 4.13281 31.3681C4.41951 31.3684 4.70112 31.2924 4.94879 31.148L8.93181 28.8497C9.11881 28.7434 9.28298 28.6012 9.41491 28.4313C9.54685 28.2614 9.64396 28.0671 9.70067 27.8596C9.75739 27.6521 9.7726 27.4355 9.74542 27.2221C9.71825 27.0087 9.64923 26.8027 9.54232 26.6161Z" fill="#E6C705"/>
<path d="M26.6161 9.54226C26.8638 9.68666 27.1454 9.76264 27.4321 9.76239C27.7195 9.76257 28.0019 9.68696 28.2508 9.54318C28.4997 9.39941 28.7063 9.19256 28.8498 8.94348L31.1363 4.96046C31.3531 4.58486 31.4118 4.13851 31.2995 3.71962C31.1872 3.30073 30.9131 2.9436 30.5375 2.7268C30.1619 2.51 29.7155 2.45129 29.2967 2.56358C28.8778 2.67587 28.5206 2.94997 28.3038 3.32558L26.0056 7.3086C25.8983 7.49517 25.829 7.70112 25.8016 7.91459C25.7742 8.12807 25.7893 8.34485 25.8461 8.55246C25.9028 8.76007 26.0001 8.95441 26.1322 9.12428C26.2644 9.29415 26.4288 9.4362 26.6161 9.54226Z" fill="#E6C705"/>
</svg>
