<svg width="86" height="86" viewBox="0 0 86 86" fill="none" xmlns="http://www.w3.org/2000/svg">
<rect width="86" height="86" rx="24" fill="#0E349C"/>
<path d="M41.0024 56.7597L39.7507 71C32.5102 70.5378 23.1323 64.5201 18.7995 57.0582C12.6663 46.4959 14.0527 33.3629 22.2753 24.2063C30.2957 15.2713 43.3614 12.4983 54.3858 17.3991C65.5546 22.3673 71.2065 33.4688 70.9369 42.9045C70.9369 42.9623 70.8887 43.0105 70.831 43.0105H57.2069C57.1491 43.0105 57.101 43.0586 57.101 43.126C57.1299 47.0736 58.5452 50.251 61.193 52.9276C63.4075 55.1614 66.0746 56.3457 69.0786 56.8271C70.1859 57.0004 70.9754 57.9825 70.9754 59.0994V68.564C70.9754 69.8446 69.9355 70.8845 68.655 70.8845H59.1037C57.9675 70.8845 56.9951 70.0661 56.8218 68.9395C56.4848 66.6865 55.6952 64.5875 54.2606 62.7389C51.8535 59.6386 48.8688 57.6551 45.1234 57.2122C43.8813 57.0678 42.9666 55.9894 42.9666 54.7378C42.9666 51.6663 42.9666 48.5949 42.9666 45.4753C42.9666 44.0696 44.1124 42.9045 45.5181 42.9045H56.8506C56.8506 42.2209 56.9084 41.6721 56.8506 41.1426C55.9552 34.3353 50.1012 29.1457 43.2266 29.0494C36.2557 28.9435 30.2765 34.0561 29.227 41.0366C28.216 47.7283 32.3947 54.343 38.942 56.2976C39.6159 56.4997 40.3092 56.6345 41.012 56.7501L41.0024 56.7597Z" fill="white"/>
</svg>
