<svg width="22" height="22" viewBox="0 0 22 22" fill="none" xmlns="http://www.w3.org/2000/svg">
<path d="M15.4749 8.72384L11.3499 6.28321C11.244 6.22044 11.1231 6.18738 10.9999 6.1875C10.8767 6.18762 10.7559 6.22092 10.6501 6.2839L6.52506 8.72453C6.42221 8.78519 6.33698 8.87164 6.27777 8.97533C6.21857 9.07902 6.18746 9.19637 6.1875 9.31578V14.0595C6.1875 14.3029 6.31606 14.5277 6.52506 14.6508L10.6501 17.0914C10.7558 17.1548 10.8767 17.1884 11 17.1884C11.1233 17.1884 11.2442 17.1548 11.3499 17.0914L15.4749 14.6508C15.5778 14.5901 15.663 14.5037 15.7222 14.4C15.7814 14.2963 15.8125 14.1789 15.8125 14.0595V9.31578C15.8125 9.19628 15.7814 9.07885 15.7222 8.97504C15.663 8.87124 15.5778 8.78466 15.4749 8.72384ZM14.4375 13.6677L11 15.7013L7.5625 13.6677V9.70765L11 7.67403L14.4375 9.70765V13.6677Z" fill="#838383"/>
<path d="M4.125 13.8765V7.61062L8.3875 5.09163L7.68831 3.90775L3.08756 6.62681C2.98471 6.68763 2.89948 6.77422 2.84028 6.87802C2.78109 6.98182 2.74997 7.09926 2.75 7.21875V13.8765C2.34903 14.0178 2.00162 14.2798 1.75543 14.6264C1.50925 14.973 1.37636 15.3874 1.375 15.8125C1.375 16.9496 2.30037 17.875 3.4375 17.875C4.57463 17.875 5.5 16.9496 5.5 15.8125C5.49864 15.3874 5.36575 14.973 5.11957 14.6264C4.87338 14.2798 4.52597 14.0178 4.125 13.8765ZM3.4375 16.5C3.26048 16.4921 3.09334 16.4162 2.97088 16.2881C2.84841 16.1601 2.78007 15.9897 2.78007 15.8125C2.78007 15.6353 2.84841 15.4649 2.97088 15.3369C3.09334 15.2088 3.26048 15.1329 3.4375 15.125C3.61452 15.1329 3.78166 15.2088 3.90412 15.3369C4.02659 15.4649 4.09493 15.6353 4.09493 15.8125C4.09493 15.9897 4.02659 16.1601 3.90412 16.2881C3.78166 16.4162 3.61452 16.4921 3.4375 16.5ZM18.5625 13.75C17.4254 13.75 16.5 14.6754 16.5 15.8125C16.5 16.0552 16.5495 16.2848 16.6272 16.5014L11 19.8261L6.59725 17.2246L5.89806 18.4085L10.6501 21.2163C10.7559 21.2792 10.8767 21.3125 10.9999 21.3127C11.1231 21.3128 11.244 21.2797 11.3499 21.2169L17.5099 17.5766C17.8193 17.7616 18.1768 17.875 18.5625 17.875C19.6996 17.875 20.625 16.9496 20.625 15.8125C20.625 14.6754 19.6996 13.75 18.5625 13.75ZM18.5625 16.5C18.3855 16.4921 18.2183 16.4162 18.0959 16.2881C17.9734 16.1601 17.9051 15.9897 17.9051 15.8125C17.9051 15.6353 17.9734 15.4649 18.0959 15.3369C18.2183 15.2088 18.3855 15.1329 18.5625 15.125C18.7395 15.1329 18.9067 15.2088 19.0291 15.3369C19.1516 15.4649 19.2199 15.6353 19.2199 15.8125C19.2199 15.9897 19.1516 16.1601 19.0291 16.2881C18.9067 16.4162 18.7395 16.4921 18.5625 16.5ZM11 4.8125C11.5026 4.8125 11.957 4.62481 12.3152 4.32575L17.875 7.61131V12.375H19.25V7.21875C19.25 7.09926 19.2189 6.98182 19.1597 6.87802C19.1005 6.77422 19.0153 6.68763 18.9124 6.62681L13.0226 3.14669C13.0474 3.01813 13.0625 2.88613 13.0625 2.75C13.0625 1.61287 12.1371 0.6875 11 0.6875C9.86287 0.6875 8.9375 1.61287 8.9375 2.75C8.9375 3.88713 9.86287 4.8125 11 4.8125ZM11 2.0625C11.1362 2.06236 11.2693 2.10263 11.3826 2.17819C11.4959 2.25376 11.5842 2.36123 11.6364 2.48701C11.6885 2.61279 11.7022 2.75122 11.6757 2.88478C11.6492 3.01834 11.5836 3.14102 11.4873 3.23731C11.391 3.3336 11.2683 3.39915 11.1348 3.42568C11.0012 3.45222 10.8628 3.43853 10.737 3.38636C10.6112 3.33419 10.5038 3.24587 10.4282 3.1326C10.3526 3.01932 10.3124 2.88617 10.3125 2.75C10.3125 2.3705 10.6212 2.0625 11 2.0625Z" fill="#838383"/>
<path d="M10.8649 7.0083L7.09863 9.37097V14.1196L11.0286 16.5525L14.9352 14.3302V9.37097L10.8649 7.0083Z" fill="#838383"/>
<circle cx="11.0005" cy="2.72753" r="1.07079" fill="#838383"/>
<circle cx="18.685" cy="15.8491" r="1.07079" fill="#838383"/>
<circle cx="3.31493" cy="15.8491" r="1.07079" fill="#838383"/>
</svg>
