<svg width="23" height="22" viewBox="0 0 23 22" fill="none" xmlns="http://www.w3.org/2000/svg">
<path fill-rule="evenodd" clip-rule="evenodd" d="M19.975 10.2225C20.1812 10.4288 20.297 10.7085 20.297 11.0002C20.297 11.2919 20.1812 11.5716 19.975 11.7779L12.275 19.4779C12.0687 19.6841 11.7889 19.8 11.4973 19.8C11.2056 19.8 10.9258 19.6841 10.7196 19.4779L3.01957 11.7779C2.91727 11.6759 2.83613 11.5547 2.78082 11.4212C2.72551 11.2877 2.69712 11.1447 2.69727 11.0002V5.5002C2.69727 4.62498 3.04494 3.78561 3.66381 3.16674C4.28268 2.54787 5.12205 2.2002 5.99727 2.2002H11.4973C11.7789 2.2002 12.0605 2.308 12.275 2.5225L19.975 10.2225ZM5.99727 6.60019C6.289 6.60019 6.56879 6.4843 6.77508 6.27801C6.98137 6.07172 7.09727 5.79193 7.09727 5.5002C7.09727 5.20846 6.98137 4.92867 6.77508 4.72238C6.56879 4.51609 6.289 4.4002 5.99727 4.4002C5.70553 4.4002 5.42574 4.51609 5.21945 4.72238C5.01316 4.92867 4.89727 5.20846 4.89727 5.5002C4.89727 5.79193 5.01316 6.07172 5.21945 6.27801C5.42574 6.4843 5.70553 6.60019 5.99727 6.60019Z" fill="#838383"/>
</svg>
