<svg width="23" height="22" viewBox="0 0 23 22" fill="none" xmlns="http://www.w3.org/2000/svg">
<path d="M5.19425 16.3203C7.1178 15.2331 9.29045 14.6633 11.5 14.6667C13.7917 14.6667 15.9431 15.2671 17.8058 16.3203M14.25 9.16667C14.25 9.89601 13.9603 10.5955 13.4445 11.1112C12.9288 11.6269 12.2293 11.9167 11.5 11.9167C10.7707 11.9167 10.0712 11.6269 9.55546 11.1112C9.03973 10.5955 8.75 9.89601 8.75 9.16667C8.75 8.43732 9.03973 7.73785 9.55546 7.22212C10.0712 6.7064 10.7707 6.41667 11.5 6.41667C12.2293 6.41667 12.9288 6.7064 13.4445 7.22212C13.9603 7.73785 14.25 8.43732 14.25 9.16667ZM19.75 11C19.75 12.0834 19.5366 13.1562 19.122 14.1571C18.7074 15.1581 18.0997 16.0675 17.3336 16.8336C16.5675 17.5997 15.6581 18.2074 14.6571 18.622C13.6562 19.0366 12.5834 19.25 11.5 19.25C10.4166 19.25 9.3438 19.0366 8.34286 18.622C7.34193 18.2074 6.43245 17.5997 5.66637 16.8336C4.90029 16.0675 4.2926 15.1581 3.87799 14.1571C3.46339 13.1562 3.25 12.0834 3.25 11C3.25 8.81196 4.11919 6.71354 5.66637 5.16637C7.21354 3.61919 9.31196 2.75 11.5 2.75C13.688 2.75 15.7865 3.61919 17.3336 5.16637C18.8808 6.71354 19.75 8.81196 19.75 11Z"
 stroke="#71717A" stroke-width="1.5" stroke-linecap="round" stroke-linejoin="round"/>
</svg>
