<svg width="24" height="25" viewBox="0 0 24 25" fill="none" xmlns="http://www.w3.org/2000/svg">
<path d="M24 23.2624C23.9498 23.4539 23.8451 23.6266 23.6985 23.7596C23.5519 23.8926 23.3698 23.9801 23.1744 24.0115C22.979 24.0429 22.7787 24.0169 22.5979 23.9365C22.417 23.8561 22.2633 23.7249 22.1556 23.5589L16.5459 17.9491L16.4361 17.7954C15.7006 18.2235 15.0419 18.6736 14.3283 19.0249C12.5799 19.8954 10.607 20.2095 8.67472 19.9251C6.60713 19.6439 4.67855 18.7252 3.15757 17.2966C1.63659 15.8681 0.598896 14.001 0.188733 11.9551C-0.225714 9.84846 0.0464667 7.66445 0.965315 5.724C1.88416 3.78355 3.40111 2.18899 5.29341 1.17466C6.56081 0.490446 7.96168 0.0896518 9.39918 0C9.48323 0.00605718 9.56773 0.00605718 9.65178 0H10.3543H10.7056C11.1338 0 11.562 0.0768395 11.9791 0.164664C14.0265 0.569227 15.8956 1.60553 17.3233 3.12777C18.751 4.65001 19.6655 6.58157 19.9382 8.65069C20.198 10.4465 19.9508 12.2792 19.2246 13.9421C18.8483 14.8113 18.3532 15.6241 17.7536 16.3572L17.9731 16.511C19.8174 18.3553 21.6727 20.1996 23.4621 22.0548C23.6559 22.2761 23.8286 22.515 23.978 22.7684L24 23.2624ZM17.9951 10.0229C17.9979 8.97105 17.7934 7.92893 17.3932 6.95614C16.993 5.98336 16.4049 5.09898 15.6626 4.35365C14.9204 3.60832 14.0384 3.01664 13.0673 2.61244C12.0961 2.20823 11.0549 1.99945 10.003 1.99801C7.87835 2.00379 5.84226 2.84963 4.33886 4.35097C2.83546 5.85232 1.98671 7.88729 1.97802 10.012C1.98669 12.1318 2.83265 14.1624 4.33162 15.6613C5.8306 17.1603 7.86119 18.0063 9.98104 18.0149C11.0333 18.0193 12.0761 17.8157 13.0496 17.4161C14.023 17.0164 14.9079 16.4284 15.6535 15.6858C16.3991 14.9433 16.9909 14.0608 17.3946 13.089C17.7983 12.1172 18.0061 11.0752 18.006 10.0229H17.9951Z" fill="#1D1F3E"/>
<path d="M4.97522 8.99101C4.97807 7.7841 5.41393 6.61833 6.20368 5.70568C6.99344 4.79303 8.08453 4.19414 9.27852 4.01797C10.5774 3.83724 11.8955 4.17112 12.9517 4.94839C14.0079 5.72566 14.7185 6.88481 14.9322 8.17865C15.0695 8.95683 15.0164 9.75666 14.7774 10.5099C14.5385 11.2631 14.1208 11.9473 13.56 12.504C12.9562 13.1297 12.3195 13.7226 11.6938 14.3263C11.2396 14.7637 10.6336 15.0081 10.0031 15.0081C9.3726 15.0081 8.76659 14.7637 8.31245 14.3263C7.54399 13.6018 6.7865 12.8772 6.11685 12.1307C5.35994 11.2621 4.95311 10.143 4.97522 8.99101ZM6.98415 8.60677C6.94575 9.06065 7.00415 9.51753 7.15555 9.94713C7.30695 10.3767 7.54796 10.7693 7.86245 11.0988C8.4333 11.6806 9.02608 12.1966 9.60791 12.8114C9.65203 12.8684 9.70858 12.9145 9.77328 12.9462C9.83798 12.9779 9.90907 12.9944 9.98113 12.9944C10.0532 12.9944 10.1243 12.9779 10.189 12.9462C10.2537 12.9145 10.3102 12.8684 10.3543 12.8114C10.9472 12.2405 11.5401 11.7136 12.1219 11.0878C12.4629 10.7512 12.7155 10.3356 12.8572 9.87785C12.999 9.42012 13.0254 8.9345 12.9343 8.46409C12.8107 7.73326 12.4198 7.07449 11.8374 6.61593C11.2551 6.15738 10.523 5.93179 9.7836 5.98304C9.08026 6.01313 8.41093 6.29439 7.89729 6.77581C7.38365 7.25722 7.05969 7.90685 6.98415 8.60677Z" fill="#1D1F3E"/>
<path d="M9.98122 9.97893C9.84868 9.98044 9.71721 9.95529 9.5946 9.90493C9.47199 9.85457 9.36083 9.78002 9.26762 9.68579C9.17441 9.59155 9.10102 9.47954 9.052 9.3564C9.00298 9.23325 8.97922 9.10149 8.98218 8.96897C8.98787 8.70391 9.09655 8.45147 9.28504 8.26503C9.47353 8.07858 9.7271 7.97276 9.99221 7.96997C10.2551 7.99047 10.5019 8.10493 10.6873 8.2924C10.8728 8.47986 10.9846 8.72781 11.0022 8.99092C10.9965 9.25687 10.886 9.50981 10.6948 9.6948C10.5037 9.87979 10.2472 9.98189 9.98122 9.97893Z" fill="#1D1F3E"/>
</svg>
