<svg width="20" height="20" viewBox="0 0 20 20" fill="none" xmlns="http://www.w3.org/2000/svg">
    <path d="M0 0H20V20H0V0Z" fill="white" />
    <path
        d="M14.166 4.99935H18.3327V6.66602H16.666V17.4993C16.666 17.7204 16.5782 17.9323 16.4219 18.0886C16.2657 18.2449 16.0537 18.3327 15.8327 18.3327H4.16602C3.945 18.3327 3.73304 18.2449 3.57676 18.0886C3.42048 17.9323 3.33268 17.7204 3.33268 17.4993V6.66602H1.66602V4.99935H5.83268V2.49935C5.83268 2.27834 5.92048 2.06637 6.07676 1.91009C6.23304 1.75381 6.445 1.66602 6.66602 1.66602H13.3327C13.5537 1.66602 13.7657 1.75381 13.9219 1.91009C14.0782 2.06637 14.166 2.27834 14.166 2.49935V4.99935ZM14.9993 6.66602H4.99935V16.666H14.9993V6.66602ZM7.49935 9.16602H9.16602V14.166H7.49935V9.16602ZM10.8327 9.16602H12.4993V14.166H10.8327V9.16602ZM7.49935 3.33268V4.99935H12.4993V3.33268H7.49935Z"
        fill="#DC3537" />
</svg>