<svg width="17" height="16" viewBox="0 0 17 16" fill="none" xmlns="http://www.w3.org/2000/svg">
<path d="M1.16699 9.66684C1.16658 8.93047 1.35394 8.20617 1.71136 7.56237C2.06878 6.91857 2.58446 6.37654 3.20966 5.9875C3.37467 4.70089 4.00286 3.5185 4.97667 2.66161C5.95049 1.80471 7.20318 1.33203 8.50033 1.33203C9.79747 1.33203 11.0502 1.80471 12.024 2.66161C12.9978 3.5185 13.626 4.70089 13.791 5.9875C14.5665 6.46996 15.1697 7.1851 15.5145 8.03082C15.8593 8.87654 15.9281 9.80959 15.7111 10.6967C15.494 11.5839 15.0022 12.3798 14.3059 12.9707C13.6096 13.5617 12.7443 13.9176 11.8337 13.9875L5.16699 14.0002C2.92966 13.8175 1.16699 11.9482 1.16699 9.66684ZM11.7323 12.6582C12.3629 12.6097 12.962 12.3632 13.4441 11.9539C13.9261 11.5445 14.2665 10.9933 14.4166 10.379C14.5667 9.76465 14.5188 9.11859 14.2798 8.53309C14.0408 7.94759 13.6228 7.4526 13.0857 7.11884L12.5477 6.7835L12.4677 6.1555C12.343 5.19129 11.8716 4.30546 11.1414 3.66356C10.4112 3.02166 9.47222 2.66763 8.49999 2.66763C7.52777 2.66763 6.58881 3.02166 5.85861 3.66356C5.12841 4.30546 4.65694 5.19129 4.53233 6.1555L4.45233 6.7835L3.91566 7.11884C3.37852 7.45257 2.96058 7.94749 2.72152 8.53294C2.48247 9.11838 2.43452 9.76439 2.58453 10.3787C2.73454 10.993 3.07484 11.5442 3.55683 11.9536C4.03881 12.363 4.63783 12.6096 5.26833 12.6582L5.38366 12.6668H11.617L11.7323 12.6582ZM9.16699 8.66684V11.3335H7.83366V8.66684H5.83366L8.50033 5.3335L11.167 8.66684H9.16699Z" fill="#4B5563"/>
</svg>
