<svg width="20" height="20" viewBox="0 0 20 20" fill="none" xmlns="http://www.w3.org/2000/svg">
<path d="M5.83401 17.4834C4.69572 17.396 3.61415 16.9512 2.74372 16.2125C1.8733 15.4737 1.25854 14.4789 0.987225 13.3699C0.715906 12.261 0.801901 11.0947 1.23293 10.0376C1.66396 8.9804 2.41799 8.08647 3.38734 7.4834C3.5936 5.87514 4.37884 4.39715 5.59611 3.32603C6.81338 2.25491 8.37925 1.66406 10.0007 1.66406C11.6221 1.66406 13.188 2.25491 14.4052 3.32603C15.6225 4.39715 16.4078 5.87514 16.614 7.4834C17.5834 8.08647 18.3374 8.9804 18.7684 10.0376C19.1995 11.0947 19.2854 12.261 19.0141 13.3699C18.7428 14.4789 18.128 15.4737 17.2576 16.2125C16.3872 16.9512 15.3056 17.396 14.1673 17.4834V17.4992H5.83401V17.4834ZM10.834 10.8326H13.334L10.0007 6.6659L6.66734 10.8326H9.16734V14.1659H10.834V10.8326Z" fill="#60A5FA"/>
</svg>
