<svg width="15" height="13" viewBox="0 0 15 13" fill="none" xmlns="http://www.w3.org/2000/svg">
<path d="M0.166016 8.66684C0.165606 7.93047 0.352964 7.20617 0.710384 6.56237C1.0678 5.91857 1.58348 5.37654 2.20868 4.9875C2.37369 3.70089 3.00188 2.5185 3.9757 1.66161C4.94951 0.804709 6.2022 0.332031 7.49935 0.332031C8.7965 0.332031 10.0492 0.804709 11.023 1.66161C11.9968 2.5185 12.625 3.70089 12.79 4.9875C13.5655 5.46996 14.1687 6.1851 14.5135 7.03082C14.8584 7.87654 14.9272 8.80959 14.7101 9.69673C14.4931 10.5839 14.0012 11.3798 13.3049 11.9707C12.6086 12.5617 11.7433 12.9176 10.8327 12.9875L4.16602 13.0002C1.92868 12.8175 0.166016 10.9482 0.166016 8.66684ZM10.7313 11.6582C11.3619 11.6097 11.961 11.3632 12.4431 10.9539C12.9252 10.5445 13.2656 9.99334 13.4157 9.379C13.5658 8.76465 13.5179 8.11859 13.2788 7.53309C13.0398 6.94759 12.6218 6.4526 12.0847 6.11884L11.5467 5.7835L11.4667 5.1555C11.3421 4.19129 10.8706 3.30546 10.1404 2.66356C9.4102 2.02166 8.47124 1.66763 7.49902 1.66763C6.52679 1.66763 5.58783 2.02166 4.85763 2.66356C4.12743 3.30546 3.65597 4.19129 3.53135 5.1555L3.45135 5.7835L2.91468 6.11884C2.37755 6.45257 1.9596 6.94749 1.72055 7.53294C1.48149 8.11838 1.43354 8.76439 1.58355 9.37871C1.73357 9.99303 2.07387 10.5442 2.55585 10.9536C3.03783 11.363 3.63685 11.6096 4.26735 11.6582L4.38268 11.6668H10.616L10.7313 11.6582ZM8.16602 7.66684V10.3335H6.83268V7.66684H4.83268L7.49935 4.3335L10.166 7.66684H8.16602Z" fill="#374151"/>
</svg>
