<svg width="16" height="16" viewBox="0 0 16 16" fill="none" xmlns="http://www.w3.org/2000/svg">
<path d="M13.3333 14.668H2.66666V13.3346C2.66666 12.4506 3.01785 11.6027 3.64297 10.9776C4.26809 10.3525 5.11593 10.0013 5.99999 10.0013H9.99999C10.884 10.0013 11.7319 10.3525 12.357 10.9776C12.9821 11.6027 13.3333 12.4506 13.3333 13.3346V14.668ZM7.99999 8.66797C7.4747 8.66797 6.95456 8.56451 6.46926 8.36349C5.98395 8.16247 5.543 7.86783 5.17156 7.4964C4.80013 7.12496 4.50549 6.68401 4.30447 6.1987C4.10345 5.7134 3.99999 5.19326 3.99999 4.66797C3.99999 4.14268 4.10345 3.62254 4.30447 3.13724C4.50549 2.65193 4.80013 2.21098 5.17156 1.83954C5.543 1.46811 5.98395 1.17347 6.46926 0.972451C6.95456 0.771432 7.4747 0.667969 7.99999 0.667969C9.06086 0.667969 10.0783 1.0894 10.8284 1.83954C11.5786 2.58969 12 3.6071 12 4.66797C12 5.72883 11.5786 6.74625 10.8284 7.4964C10.0783 8.24654 9.06086 8.66797 7.99999 8.66797Z" fill="#9CA3AF"/>
</svg>
