<svg width="32" height="28" viewBox="0 0 32 28" fill="none" xmlns="http://www.w3.org/2000/svg">
<path fill-rule="evenodd" clip-rule="evenodd" d="M12.5137 2.19771C14.0437 -0.522285 17.9577 -0.522285 19.4857 2.19771L30.6457 22.0377C32.1457 24.7057 30.2197 27.9977 27.1617 27.9977H4.83969C1.7797 27.9977 -0.146303 24.7057 1.3537 22.0377L12.5137 2.19771ZM17.9997 21.9997C17.9997 22.5301 17.789 23.0389 17.4139 23.4139C17.0388 23.789 16.5301 23.9997 15.9997 23.9997C15.4693 23.9997 14.9606 23.789 14.5855 23.4139C14.2104 23.0389 13.9997 22.5301 13.9997 21.9997C13.9997 21.4693 14.2104 20.9606 14.5855 20.5855C14.9606 20.2104 15.4693 19.9997 15.9997 19.9997C16.5301 19.9997 17.0388 20.2104 17.4139 20.5855C17.789 20.9606 17.9997 21.4693 17.9997 21.9997ZM15.9997 5.99971C15.4693 5.99971 14.9606 6.21043 14.5855 6.5855C14.2104 6.96057 13.9997 7.46928 13.9997 7.99971V13.9997C13.9997 14.5301 14.2104 15.0389 14.5855 15.4139C14.9606 15.789 15.4693 15.9997 15.9997 15.9997C16.5301 15.9997 17.0388 15.789 17.4139 15.4139C17.789 15.0389 17.9997 14.5301 17.9997 13.9997V7.99971C17.9997 7.46928 17.789 6.96057 17.4139 6.5855C17.0388 6.21043 16.5301 5.99971 15.9997 5.99971Z" fill="#EF4444"/>
</svg>
