<svg width="19" height="19" viewBox="0 0 19 19" fill="none" xmlns="http://www.w3.org/2000/svg">
<g filter="url(#filter0_di_90_5231)">
<path d="M8.70346 12.2845H3.93462V10.8861H8.70346C9.17209 10.8862 9.63174 11.0086 10.0326 11.2399C10.4335 11.4713 10.7603 11.8027 10.9776 12.1984C11.1949 12.5941 11.2945 13.0389 11.2655 13.4847C11.2365 13.9304 11.08 14.3601 10.8131 14.7272C10.5462 15.0943 10.1789 15.3847 9.75114 15.5671C9.32336 15.7495 8.85138 15.8168 8.38631 15.7618C7.92125 15.7068 7.48085 15.5316 7.11283 15.2551C6.7448 14.9786 6.46319 14.6114 6.2985 14.1933L7.67266 13.7017C7.74322 13.8809 7.8639 14.0383 8.02161 14.1568C8.17933 14.2753 8.36807 14.3505 8.56738 14.3741C8.76669 14.3976 8.96898 14.3688 9.15232 14.2907C9.33566 14.2125 9.49306 14.088 9.60748 13.9307C9.72189 13.7734 9.78895 13.5893 9.8014 13.3982C9.81384 13.2072 9.77118 13.0166 9.67806 12.847C9.58493 12.6774 9.44489 12.5353 9.27309 12.4362C9.1013 12.337 8.90431 12.2846 8.70346 12.2845ZM4.66829 8.08931H14.5728C15.0414 8.08947 15.5011 8.21185 15.902 8.44318C16.3028 8.6745 16.6296 9.00597 16.8469 9.40165C17.0643 9.79733 17.1638 10.2421 17.1348 10.6879C17.1058 11.1337 16.9494 11.5633 16.6824 11.9304C16.4155 12.2975 16.0483 12.588 15.6205 12.7703C15.1927 12.9527 14.7207 13.02 14.2557 12.965C13.7906 12.91 13.3502 12.7348 12.9822 12.4583C12.6141 12.1818 12.3325 11.8146 12.1678 11.3965L13.542 10.905C13.6126 11.0842 13.7332 11.2416 13.891 11.3601C14.0487 11.4786 14.2374 11.5537 14.4367 11.5773C14.636 11.6009 14.8383 11.572 15.0217 11.4939C15.205 11.4157 15.3624 11.2913 15.4768 11.134C15.5912 10.9766 15.6583 10.7925 15.6707 10.6015C15.6832 10.4104 15.6405 10.2198 15.5474 10.0502C15.4543 9.88061 15.3142 9.73854 15.1424 9.63939C14.9706 9.54024 14.7737 9.48778 14.5728 9.4877H4.66829C4.08455 9.4877 3.52471 9.26671 3.11194 8.87333C2.69918 8.47996 2.46729 7.94643 2.46729 7.39012C2.46729 6.83381 2.69918 6.30028 3.11194 5.90691C3.52471 5.51354 4.08455 5.29254 4.66829 5.29254H10.9045C11.1053 5.29246 11.3023 5.24 11.4741 5.14085C11.6459 5.0417 11.7859 4.89963 11.8791 4.73005C11.9722 4.56046 12.0148 4.36982 12.0024 4.17878C11.99 3.98775 11.9229 3.8036 11.8085 3.64629C11.6941 3.48898 11.5367 3.3645 11.3533 3.28636C11.17 3.20821 10.9677 3.17937 10.7684 3.20296C10.5691 3.22655 10.3803 3.30167 10.2226 3.42018C10.0649 3.53869 9.94423 3.69608 9.87367 3.87528L8.49951 3.38444C8.71115 2.84803 9.11357 2.39938 9.63665 2.11668C10.1597 1.83397 10.7703 1.73513 11.362 1.83737C11.9537 1.93962 12.489 2.23647 12.8746 2.6762C13.2602 3.11593 13.4718 3.67067 13.4723 4.24375C13.4723 4.89278 13.2018 5.51523 12.7202 5.97417C12.2386 6.4331 11.5855 6.69093 10.9045 6.69093H4.66829C4.47371 6.69093 4.2871 6.76459 4.14951 6.89572C4.01192 7.02684 3.93462 7.20468 3.93462 7.39012C3.93462 7.57556 4.01192 7.7534 4.14951 7.88453C4.2871 8.01565 4.47371 8.08931 4.66829 8.08931Z" fill="white"/>
</g>
<defs>
<filter id="filter0_di_90_5231" x="-1.26241" y="0.398438" width="19.8706" height="19.7972" filterUnits="userSpaceOnUse" color-interpolation-filters="sRGB">
<feFlood flood-opacity="0" result="BackgroundImageFix"/>
<feColorMatrix in="SourceAlpha" type="matrix" values="0 0 0 0 0 0 0 0 0 0 0 0 0 0 0 0 0 0 127 0" result="hardAlpha"/>
<feOffset dx="-1.50827" dy="2.26241"/>
<feGaussianBlur stdDeviation="0.377069"/>
<feColorMatrix type="matrix" values="0 0 0 0 0 0 0 0 0 0 0 0 0 0 0 0 0 0 0.1 0"/>
<feBlend mode="normal" in2="BackgroundImageFix" result="effect1_dropShadow_90_5231"/>
<feBlend mode="normal" in="SourceGraphic" in2="effect1_dropShadow_90_5231" result="shape"/>
<feColorMatrix in="SourceAlpha" type="matrix" values="0 0 0 0 0 0 0 0 0 0 0 0 0 0 0 0 0 0 127 0" result="hardAlpha"/>
<feOffset dx="-0.754137" dy="0.754137"/>
<feGaussianBlur stdDeviation="0.754137"/>
<feComposite in2="hardAlpha" operator="arithmetic" k2="-1" k3="1"/>
<feColorMatrix type="matrix" values="0 0 0 0 1 0 0 0 0 1 0 0 0 0 1 0 0 0 0.25 0"/>
<feBlend mode="normal" in2="shape" result="effect2_innerShadow_90_5231"/>
</filter>
</defs>
</svg>
